<?xml version="1.0" encoding="UTF-8"?>
<!DOCTYPE svg PUBLIC "-//W3C//DTD SVG 1.1//EN" "http://www.w3.org/Graphics/SVG/1.1/DTD/svg11.dtd">
<!-- Creator: CorelDRAW X7 -->
<svg xmlns="http://www.w3.org/2000/svg" xml:space="preserve" width="148mm" height="105mm" version="1.1" style="shape-rendering:geometricPrecision; text-rendering:geometricPrecision; image-rendering:optimizeQuality; fill-rule:evenodd; clip-rule:evenodd"
viewBox="0 0 14800 10500"
 xmlns:xlink="http://www.w3.org/1999/xlink">
 <defs>
  <style type="text/css">
   <![CDATA[
    .fil2 {fill:#718FC8}
    .fil1 {fill:#718FC8;fill-rule:nonzero}
    .fil0 {fill:#27B367;fill-rule:nonzero}
   ]]>
  </style>
 </defs>
 <g id="Layer_x0020_1">
  <metadata id="CorelCorpID_0Corel-Layer"/>
  <path class="fil0" d="M4192 6463l0 -996 -201 0 0 1011c0,87 -59,152 -131,152l-208 0c-72,0 -131,-65 -131,-152l0 -1011 -201 0 0 996c0,185 149,333 332,333l208 0c183,0 332,-148 332,-333z"/>
  <path class="fil0" d="M5313 6796l0 -665c0,-185 -149,-332 -332,-332l-498 0 0 997 187 0 0 -831 311 0c73,0 143,67 143,154l0 677 189 0z"/>
  <polygon class="fil0" points="5791,6796 5791,5301 5604,5301 5604,6796 "/>
  <polygon class="fil0" points="6268,6796 6268,5799 6082,5799 6082,6796 "/>
  <path class="fil0" d="M7597 5799l-1038 0 0 997 187 0 0 -831 403 0 0 831 189 0 0 -831 259 0c73,0 144,67 144,154l0 677 188 0 0 -665c0,-183 -149,-332 -332,-332z"/>
  <polygon class="fil0" points="8407,6796 8407,5799 8220,5799 8220,6796 "/>
  <path class="fil0" d="M9321 6630l-353 0 0 -665 353 0 0 -166 -353 0 0 -332 -187 0 0 332 -166 0 0 166 166 0 0 665c0,91 72,166 166,166l374 0 0 -166z"/>
  <path class="fil0" d="M10359 6360l0 -229c0,-185 -150,-332 -332,-332l-208 0c-183,0 -332,147 -332,332l0 332c0,183 149,333 332,333l484 0 0 -166 -484 0c-73,0 -143,-67 -143,-154l0 -116 683 0zm-189 -167l-494 0 0 -76c0,-88 70,-152 143,-152l208 0c72,0 143,64 143,152l0 76z"/>
  <path class="fil0" d="M11480 6796l0 -1495 -189 0 0 498 -351 0c-183,0 -332,147 -332,332l0 332c0,183 149,333 332,333l540 0zm-189 -166l-351 0c-72,0 -143,-67 -143,-154l0 -357c0,-87 71,-154 143,-154l351 0 0 665z"/>
  <path class="fil1" d="M7448 7192c0,5 -1,10 -1,14 -1,3 -2,6 -3,9 -1,2 -2,4 -4,5 -2,1 -4,2 -6,2l-152 0 0 468c0,2 0,4 -2,6 -1,1 -3,3 -5,4 -3,1 -7,2 -11,2 -5,1 -11,1 -18,1 -6,0 -12,0 -17,-1 -5,0 -8,-1 -11,-2 -3,-1 -5,-3 -6,-4 -1,-2 -2,-4 -2,-6l0 -468 -151 0c-2,0 -4,-1 -6,-2 -2,-1 -3,-3 -5,-5 -1,-3 -2,-6 -2,-9 -1,-4 -1,-9 -1,-14 0,-5 0,-10 1,-14 0,-4 1,-7 2,-10 2,-2 3,-4 5,-5 2,-1 4,-2 6,-2l375 0c2,0 4,1 6,2 2,1 3,3 4,5 1,3 2,6 3,10 0,4 1,9 1,14zm314 294c0,11 -3,19 -9,23 -5,5 -11,7 -18,7l-247 0c0,21 2,40 7,57 4,16 11,31 21,43 9,12 22,21 37,27 16,7 35,10 58,10 17,0 33,-1 47,-4 14,-3 26,-7 36,-10 10,-4 19,-7 25,-10 7,-3 12,-4 15,-4 2,0 4,0 5,1 2,1 3,3 4,5 1,1 1,4 2,8 0,3 0,7 0,12 0,4 0,7 0,10 0,2 -1,5 -1,7 -1,2 -1,4 -2,5 -1,2 -2,3 -4,5 -1,2 -6,4 -13,7 -8,4 -18,7 -30,11 -12,3 -25,6 -41,8 -16,3 -32,4 -50,4 -31,0 -58,-4 -81,-13 -23,-8 -43,-21 -59,-38 -15,-17 -27,-38 -35,-64 -8,-25 -12,-55 -12,-89 0,-32 4,-61 12,-87 8,-25 20,-47 36,-65 16,-18 35,-32 57,-42 22,-9 47,-14 75,-14 29,0 54,5 75,14 21,10 37,22 51,38 13,16 23,35 29,57 6,21 10,44 10,69l0 12zm-70 -20c1,-36 -7,-65 -24,-85 -17,-21 -41,-31 -75,-31 -17,0 -32,3 -44,9 -13,7 -24,15 -33,26 -8,11 -15,23 -20,37 -4,14 -7,29 -8,44l204 0zm445 167c0,4 0,8 -1,12 0,3 0,6 -1,9 -1,2 -2,4 -3,6 -1,2 -3,4 -6,8 -4,3 -10,8 -18,13 -8,5 -18,10 -28,14 -11,4 -22,7 -34,10 -12,2 -25,3 -38,3 -27,0 -51,-4 -72,-13 -21,-9 -38,-22 -52,-39 -14,-17 -25,-38 -32,-63 -8,-25 -11,-53 -11,-86 0,-37 4,-68 13,-95 9,-26 22,-48 37,-65 16,-17 35,-30 56,-38 21,-8 44,-12 69,-12 12,0 23,1 35,3 11,2 21,5 31,9 9,4 18,8 25,13 7,4 13,8 16,12 3,3 6,6 7,8 1,2 2,4 3,7 1,2 1,5 2,9 0,3 0,7 0,12 0,11 -1,19 -4,23 -2,4 -5,6 -9,6 -4,0 -9,-2 -14,-7 -6,-4 -12,-9 -21,-15 -8,-5 -18,-11 -30,-15 -12,-5 -26,-7 -42,-7 -33,0 -59,13 -76,38 -18,25 -27,62 -27,111 0,24 3,45 7,63 5,18 11,33 20,46 9,12 20,21 33,27 13,6 28,9 45,9 16,0 29,-3 41,-8 12,-5 23,-10 31,-17 9,-5 17,-11 23,-16 6,-5 10,-7 14,-7 1,0 3,0 5,2 1,1 2,3 3,5 1,3 2,6 2,10 1,4 1,9 1,15zm414 57c0,3 -1,5 -2,6 -1,1 -3,3 -5,4 -3,1 -6,2 -11,2 -4,1 -10,1 -16,1 -8,0 -13,0 -18,-1 -4,0 -8,-1 -10,-2 -3,-1 -4,-3 -6,-4 -1,-1 -1,-3 -1,-6l0 -219c0,-22 -2,-39 -5,-52 -4,-13 -8,-24 -15,-34 -6,-9 -14,-17 -24,-22 -11,-5 -22,-7 -35,-7 -18,0 -35,6 -52,18 -17,12 -35,30 -54,54l0 262c0,3 0,5 -1,6 -2,1 -3,3 -6,4 -2,1 -6,2 -10,2 -5,1 -11,1 -18,1 -6,0 -12,0 -16,-1 -5,0 -8,-1 -11,-2 -3,-1 -5,-3 -6,-4 -1,-1 -1,-3 -1,-6l0 -556c0,-3 0,-5 1,-6 1,-2 3,-3 6,-5 3,-1 6,-1 11,-2 4,-1 10,-1 16,-1 7,0 13,0 18,1 4,1 8,1 10,2 3,2 4,3 6,5 1,1 1,3 1,6l0 224c20,-21 40,-37 60,-47 20,-10 40,-15 60,-15 25,0 46,4 63,13 17,8 31,20 41,34 11,14 18,31 23,50 5,19 7,42 7,69l0 228zm448 0c0,3 0,5 -1,6 -1,1 -3,3 -6,4 -2,1 -6,2 -10,2 -5,1 -10,1 -17,1 -7,0 -13,0 -17,-1 -5,0 -8,-1 -11,-2 -2,-1 -4,-3 -5,-4 -1,-1 -2,-3 -2,-6l0 -219c0,-22 -1,-39 -5,-52 -3,-13 -8,-24 -14,-34 -7,-9 -15,-17 -25,-22 -10,-5 -22,-7 -35,-7 -17,0 -34,6 -51,18 -17,12 -35,30 -54,54l0 262c0,3 -1,5 -2,6 -1,1 -3,3 -5,4 -3,1 -6,2 -11,2 -4,1 -10,1 -17,1 -7,0 -12,0 -17,-1 -4,0 -8,-1 -10,-2 -3,-1 -5,-3 -6,-4 -1,-1 -1,-3 -1,-6l0 -375c0,-2 0,-4 1,-6 1,-1 2,-3 5,-4 2,-1 6,-2 10,-2 3,-1 9,-1 15,-1 6,0 11,0 15,1 4,0 8,1 10,2 2,1 4,3 5,4 1,2 1,4 1,6l0 50c21,-24 42,-42 63,-52 21,-11 42,-17 63,-17 25,0 46,4 64,13 17,8 30,20 41,34 10,14 18,31 23,50 4,19 6,42 6,68l0 229zm475 -192c0,31 -4,59 -13,85 -7,25 -20,48 -36,66 -15,19 -36,33 -59,44 -24,10 -52,15 -84,15 -31,0 -58,-4 -81,-13 -23,-9 -42,-23 -57,-40 -15,-18 -26,-39 -34,-64 -8,-25 -11,-53 -11,-85 0,-31 4,-59 12,-85 8,-25 19,-48 35,-66 16,-19 36,-33 60,-44 24,-10 52,-15 84,-15 31,0 58,5 81,14 22,9 42,22 57,40 15,17 27,39 34,64 8,25 12,53 12,84zm-72 5c0,-21 -2,-40 -6,-58 -4,-18 -10,-34 -18,-48 -9,-13 -21,-24 -36,-32 -14,-8 -33,-12 -55,-12 -20,0 -38,4 -52,11 -15,7 -27,18 -37,31 -9,13 -16,29 -21,47 -4,18 -7,38 -7,59 0,21 2,40 6,58 4,18 10,34 19,47 9,14 21,25 35,32 15,8 34,12 56,12 20,0 37,-3 52,-10 15,-8 27,-18 36,-31 10,-13 17,-29 21,-47 5,-18 7,-38 7,-59zm243 187c0,3 -1,5 -2,6 -1,1 -3,3 -5,4 -3,1 -6,2 -11,2 -4,1 -10,1 -17,1 -7,0 -12,0 -17,-1 -4,0 -8,-1 -11,-2 -2,-1 -4,-3 -5,-4 -1,-1 -2,-3 -2,-6l0 -556c0,-3 1,-5 2,-6 1,-2 3,-3 5,-5 3,-1 7,-1 11,-2 5,-1 10,-1 17,-1 7,0 13,0 17,1 5,1 8,1 11,2 2,2 4,3 5,5 1,1 2,3 2,6l0 556zm475 -192c0,31 -4,59 -12,85 -8,25 -20,48 -36,66 -16,19 -36,33 -60,44 -24,10 -52,15 -84,15 -31,0 -58,-4 -80,-13 -23,-9 -42,-23 -58,-40 -15,-18 -26,-39 -34,-64 -7,-25 -11,-53 -11,-85 0,-31 4,-59 12,-85 8,-25 20,-48 36,-66 16,-19 35,-33 59,-44 24,-10 52,-15 84,-15 31,0 58,5 81,14 23,9 42,22 57,40 15,17 27,39 34,64 8,25 12,53 12,84zm-72 5c0,-21 -2,-40 -6,-58 -3,-18 -10,-34 -18,-48 -9,-13 -21,-24 -35,-32 -15,-8 -34,-12 -56,-12 -20,0 -37,4 -52,11 -15,7 -27,18 -36,31 -10,13 -17,29 -21,47 -5,18 -7,38 -7,59 0,21 2,40 5,58 4,18 10,34 19,47 9,14 21,25 35,32 15,8 34,12 56,12 20,0 37,-3 52,-10 15,-8 27,-18 36,-31 10,-13 17,-29 21,-47 5,-18 7,-38 7,-59zm487 -171c0,10 -1,17 -4,22 -2,4 -6,6 -10,6l-54 0c10,10 17,21 20,33 4,12 6,24 6,37 0,22 -3,41 -10,58 -7,17 -17,31 -30,42 -13,12 -28,21 -46,27 -18,6 -38,9 -59,9 -16,0 -30,-2 -44,-6 -14,-4 -24,-9 -32,-15 -5,5 -8,10 -12,17 -3,6 -4,14 -4,22 0,10 4,18 13,24 9,7 21,10 36,11l98 4c19,0 36,3 51,8 16,4 29,11 41,19 11,9 20,19 26,31 7,13 10,27 10,44 0,17 -4,33 -11,49 -7,15 -18,29 -33,41 -15,11 -34,21 -57,28 -23,6 -50,10 -82,10 -30,0 -56,-3 -77,-8 -21,-5 -39,-12 -52,-21 -14,-9 -24,-19 -30,-32 -6,-12 -9,-26 -9,-40 0,-9 1,-18 3,-27 2,-8 6,-17 10,-25 5,-7 11,-15 17,-22 7,-7 15,-14 24,-21 -13,-7 -23,-16 -30,-26 -6,-11 -10,-22 -10,-34 0,-17 4,-32 11,-46 6,-13 15,-25 25,-36 -9,-10 -15,-21 -20,-34 -5,-13 -8,-29 -8,-47 0,-22 4,-41 11,-58 7,-17 17,-31 30,-43 13,-11 28,-20 46,-27 18,-6 38,-9 59,-9 11,0 22,1 32,2 9,1 19,3 27,6l114 0c5,0 8,2 11,6 2,5 3,12 3,21zm-108 99c0,-26 -6,-45 -21,-60 -14,-14 -34,-21 -59,-21 -14,0 -25,2 -35,7 -10,4 -18,10 -25,18 -6,8 -11,17 -14,27 -4,10 -5,20 -5,32 0,24 7,43 21,58 14,14 34,21 59,21 13,0 25,-2 35,-6 10,-5 19,-11 25,-18 7,-8 12,-17 15,-27 3,-10 4,-20 4,-31zm35 297c0,-16 -7,-29 -20,-37 -13,-9 -31,-14 -54,-14l-97 -4c-8,7 -16,14 -21,20 -6,6 -11,12 -14,18 -3,6 -6,11 -7,17 -1,5 -2,11 -2,17 0,18 9,32 28,41 18,9 44,14 76,14 21,0 39,-2 53,-6 14,-4 25,-10 33,-16 9,-7 15,-14 19,-23 4,-9 6,-18 6,-27zm231 -38c0,3 -1,5 -2,6 -1,1 -3,3 -5,4 -3,1 -6,2 -11,2 -4,1 -10,1 -17,1 -7,0 -12,0 -17,-1 -4,0 -8,-1 -10,-2 -3,-1 -5,-3 -6,-4 -1,-1 -1,-3 -1,-6l0 -375c0,-2 0,-4 1,-5 1,-2 3,-4 6,-5 2,-1 6,-2 10,-2 5,-1 10,-1 17,-1 7,0 13,0 17,1 5,0 8,1 11,2 2,1 4,3 5,5 1,1 2,3 2,5l0 375zm7 -502c0,17 -3,28 -9,33 -6,6 -17,9 -34,9 -16,0 -27,-3 -33,-8 -6,-6 -9,-17 -9,-33 0,-16 3,-27 9,-33 6,-6 18,-9 34,-9 16,0 27,3 33,9 6,6 9,17 9,32zm439 298c0,11 -3,19 -8,23 -6,5 -12,7 -19,7l-246 0c0,21 2,40 6,57 4,16 11,31 21,43 10,12 22,21 38,27 15,7 34,10 57,10 18,0 34,-1 47,-4 14,-3 26,-7 37,-10 10,-4 18,-7 25,-10 6,-3 11,-4 14,-4 2,0 4,0 6,1 1,1 2,3 3,5 1,1 2,4 2,8 1,3 1,7 1,12 0,4 0,7 -1,10 0,2 0,5 -1,7 0,2 -1,4 -2,5 -1,2 -2,3 -4,5 -1,2 -6,4 -13,7 -8,4 -17,7 -29,11 -12,3 -26,6 -42,8 -15,3 -32,4 -50,4 -31,0 -58,-4 -81,-13 -23,-8 -42,-21 -58,-38 -16,-17 -28,-38 -36,-64 -8,-25 -12,-55 -12,-89 0,-32 4,-61 12,-87 9,-25 21,-47 36,-65 16,-18 35,-32 57,-42 23,-9 47,-14 75,-14 29,0 54,5 75,14 21,10 38,22 51,38 13,16 23,35 30,57 6,21 9,44 9,69l0 12zm-69 -20c1,-36 -7,-65 -24,-85 -17,-21 -42,-31 -75,-31 -17,0 -32,3 -45,9 -13,7 -24,15 -32,26 -9,11 -16,23 -20,37 -5,14 -8,29 -8,44l204 0zm410 122c0,19 -4,36 -11,51 -7,15 -17,28 -30,38 -13,10 -28,18 -47,23 -18,6 -38,8 -59,8 -14,0 -26,-1 -38,-3 -12,-2 -23,-4 -33,-8 -9,-3 -18,-6 -24,-9 -7,-4 -12,-7 -15,-10 -3,-2 -5,-6 -6,-11 -2,-5 -3,-12 -3,-21 0,-5 1,-9 1,-13 1,-4 2,-7 2,-9 1,-2 2,-4 4,-5 1,-1 3,-1 5,-1 3,0 8,2 14,6 6,3 13,7 22,12 8,4 19,8 31,12 12,4 25,6 41,6 12,0 22,-1 31,-4 10,-2 18,-6 25,-11 7,-5 12,-11 16,-19 4,-7 6,-16 6,-27 0,-10 -3,-19 -8,-26 -6,-8 -13,-14 -22,-20 -9,-5 -19,-10 -30,-14 -11,-5 -22,-9 -34,-14 -12,-5 -23,-10 -35,-16 -11,-6 -21,-13 -30,-22 -9,-9 -16,-19 -21,-31 -5,-12 -8,-26 -8,-43 0,-14 3,-28 8,-42 6,-13 15,-25 26,-35 12,-10 26,-19 43,-25 17,-6 37,-9 60,-9 10,0 20,1 30,3 10,1 19,4 27,6 8,3 15,6 20,9 6,3 11,5 13,8 3,2 5,4 6,5 1,2 2,4 2,6 1,2 1,5 2,8 0,3 0,7 0,11 0,5 0,9 0,12 -1,4 -1,6 -2,9 -1,2 -3,3 -4,4 -1,1 -3,2 -5,2 -2,0 -6,-2 -11,-5 -4,-3 -10,-6 -18,-10 -7,-3 -16,-6 -26,-9 -10,-4 -22,-5 -35,-5 -12,0 -22,1 -31,4 -9,2 -16,6 -22,11 -6,5 -10,10 -13,17 -3,7 -4,14 -4,22 0,10 2,20 8,27 6,7 13,14 22,19 8,6 19,11 30,15 11,5 23,9 35,14 12,5 23,10 35,16 11,6 22,13 30,21 9,9 16,19 22,30 5,12 8,26 8,42z"/>
  <path class="fil2" d="M7244 2971c461,0 860,268 1048,657 -56,-64 -140,-103 -233,-103l-714 0 -185 0 -464 0 -443 0c205,-332 572,-554 991,-554z"/>
  <path class="fil2" d="M8364 3817c28,101 43,207 43,317 0,161 -33,316 -93,456l-528 0 0 -219c0,-87 66,-161 148,-161l97 0c184,0 333,-124 333,-308l0 -82 0 -3z"/>
  <path class="fil2" d="M7345 4357l0 -588 0 -35 0 -57 714 0c67,0 120,52 120,131l0 94c0,83 -66,140 -148,140l-97 0c-183,0 -331,149 -331,331l0 369 632 0c-204,332 -572,554 -991,554 -142,0 -279,-25 -405,-72l201 0c168,0 305,-137 305,-304l0 -539 0 -24z"/>
  <path class="fil2" d="M6175 4590c-60,-140 -93,-295 -93,-456 0,-162 33,-317 93,-457l52 0 437 0 0 304 -437 0 0 153 418 0c66,0 120,58 120,138l0 177c0,80 -54,141 -120,141l-470 0z"/>
  <path class="fil2" d="M7160 3789l0 0 0 50 0 95 0 0 0 73c0,40 0,-36 0,121l0 253 0 569c0,68 -53,122 -120,122l-483 0c-121,-89 -225,-201 -304,-330l392 0c167,0 304,-137 304,-304l0 -152c0,-92 -40,-172 -101,-229l0 -380 312 0 0 112z"/>
  <polygon class="fil0" points="8407,5467 8407,5301 8350,5301 8350,5390 8277,5390 8277,5301 8220,5301 8220,5467 "/>
  <polygon class="fil0" points="6268,5467 6268,5301 6212,5301 6212,5390 6138,5390 6138,5301 6082,5301 6082,5467 "/>
 </g>
</svg>
