<svg version="1.1" id="Layer_1" xmlns="http://www.w3.org/2000/svg" xmlns:xlink="http://www.w3.org/1999/xlink" x="0px" y="0px"
	 viewBox="0 0 21 23" width="21" heigth="23" style="enable-background:new 0 0 21 23;" xml:space="preserve">
<path style="fill:none;stroke:#A09B9C;stroke-width:2;stroke-linecap:round;stroke-linejoin:round;stroke-miterlimit:10;" d="
	M19.6,10.5l-9.5,9.8c-1.9,2-5.2,2-7.2,0.1l0,0c-2-1.9-2-5.2-0.1-7.2l8.6-8.8"/>
<path style="fill:none;stroke:#A09B9C;stroke-width:2;stroke-linecap:round;stroke-linejoin:round;stroke-miterlimit:10;" d="
	M3.7,12.3l9.5-9.8c1.3-1.4,3.6-1.4,4.9-0.1l0,0c1.4,1.3,1.4,3.6,0.1,4.9L10.8,15"/>
<path style="fill:none;stroke:#A09B9C;stroke-width:2;stroke-linecap:round;stroke-linejoin:round;stroke-miterlimit:10;" d="
	M17.3,8.3L10,15.8c-0.8,0.8-1.9,0.8-2.7,0l0,0c-0.8-0.8-0.8-1.9,0-2.7l6.4-6.6"/>
</svg>