<?xml version="1.0" encoding="utf-8"?>
<!-- Generator: Adobe Illustrator 20.0.0, SVG Export Plug-In . SVG Version: 6.00 Build 0)  -->
<svg version="1.1" id="Scheme" xmlns="http://www.w3.org/2000/svg" xmlns:xlink="http://www.w3.org/1999/xlink" x="0px" y="0px"
	 width="1501.1px" height="870.8px" viewBox="0 0 1501.1 870.8" style="enable-background:new 0 0 1501.1 870.8;"
	 xml:space="preserve">
<rect id="box_copy_44" x="444.05" y="16.4" style="fill:none;stroke:#2FD28E;" width="613" height="90"/>
<g id="Printbox" style="enable-background:new    ;">
	<path style="fill:#2FD28E;" d="M720.85,56.9c0.9,0.7,1.3,1.9,1.3,3.4s-0.4,2.6-1.3,3.3c-0.9,0.7-2.3,1.1-4.1,1.1h-2.2v3.7h-2.1
		V55.8h4.3C718.55,55.8,719.95,56.2,720.85,56.9z M719.35,62.1c0.4-0.5,0.6-1.1,0.6-2s-0.3-1.5-0.8-1.8c-0.5-0.4-1.4-0.5-2.5-0.5
		h-2.2v5h2.5C718.15,62.8,718.95,62.6,719.35,62.1z"/>
	<path style="fill:#2FD28E;" d="M729.45,60.7c-1,0-1.7,0.3-2.3,1c-0.5,0.6-0.8,1.5-0.8,2.6v4.1h-2v-9.6h2v1.9
		c0.3-0.6,0.8-1.1,1.3-1.5c0.6-0.4,1.2-0.6,1.8-0.6v2C729.45,60.7,729.45,60.7,729.45,60.7z"/>
	<path style="fill:#2FD28E;" d="M731.65,56.9c-0.3-0.3-0.4-0.6-0.4-0.9s0.1-0.6,0.4-0.9s0.6-0.4,0.9-0.4c0.3,0,0.6,0.1,0.9,0.4
		c0.3,0.3,0.4,0.6,0.4,0.9s-0.1,0.6-0.4,0.9c-0.3,0.3-0.6,0.4-0.9,0.4C732.25,57.3,731.95,57.2,731.65,56.9z M733.55,68.4h-2v-9.6h2
		V68.4z"/>
	<path style="fill:#2FD28E;" d="M738.45,63.2v5.2h-2v-9.6h2v1.7c0.3-0.6,0.8-1.1,1.3-1.4c0.6-0.3,1.2-0.5,1.8-0.5c1.1,0,2,0.3,2.6,1
		c0.7,0.7,1,1.6,1,2.9v5.9h-2v-5.3c0-1.8-0.7-2.6-2.2-2.6c-0.7,0-1.3,0.2-1.8,0.7C738.75,61.6,738.45,62.3,738.45,63.2z"/>
	<path style="fill:#2FD28E;" d="M750.45,60.4v4.9c0,0.5,0.1,0.8,0.4,1.1c0.2,0.3,0.6,0.4,1,0.4s0.8-0.2,1.2-0.6l0.8,1.4
		c-0.7,0.6-1.5,1-2.4,1s-1.6-0.3-2.2-0.9c-0.6-0.6-0.9-1.4-0.9-2.4v-4.8h-1.2v-1.6h1.2v-3h2v3h2.5v1.6h-2.4L750.45,60.4L750.45,60.4
		z"/>
	<path style="fill:#2FD28E;" d="M760.65,58.7c1.3,0,2.4,0.4,3.3,1.3c0.9,0.9,1.4,2.1,1.4,3.5c0,1.5-0.5,2.7-1.4,3.6
		c-0.9,0.9-2,1.4-3.2,1.4s-2.3-0.5-3.3-1.6v1.4h-2V55h2v5.5C758.35,59.3,759.35,58.7,760.65,58.7z M757.45,63.6
		c0,0.9,0.3,1.7,0.8,2.2c0.6,0.6,1.2,0.9,2,0.9s1.5-0.3,2.1-0.9c0.6-0.6,0.9-1.3,0.9-2.2c0-0.9-0.3-1.7-0.9-2.3
		c-0.6-0.6-1.3-0.9-2.1-0.9s-1.5,0.3-2,0.9C757.75,62,757.45,62.7,757.45,63.6z"/>
	<path style="fill:#2FD28E;" d="M775.65,67.1c-1,1-2.2,1.4-3.6,1.4c-1.4,0-2.6-0.5-3.6-1.4c-1-1-1.4-2.1-1.4-3.5
		c0-1.4,0.5-2.5,1.4-3.5c1-1,2.2-1.4,3.6-1.4c1.4,0,2.6,0.5,3.6,1.4c1,1,1.4,2.1,1.4,3.5C777.05,65,776.65,66.2,775.65,67.1z
		 M769.85,65.9c0.6,0.6,1.3,0.9,2.2,0.9s1.6-0.3,2.2-0.9c0.6-0.6,0.9-1.3,0.9-2.3c0-1-0.3-1.7-0.9-2.3c-0.6-0.6-1.3-0.9-2.2-0.9
		s-1.6,0.3-2.2,0.9c-0.6,0.6-0.9,1.3-0.9,2.3C768.95,64.6,769.35,65.3,769.85,65.9z"/>
	<path style="fill:#2FD28E;" d="M780.55,58.8l2.1,3.2l2.1-3.2h2.4l-3.4,4.7l3.5,4.9h-2.5l-2.3-3.2l-2.2,3.2h-2.4l3.4-4.9l-3.2-4.7
		H780.55z"/>
</g>
<rect id="box_copy_45" x="1.05" y="183.4" style="fill:none;stroke:#2FD28E;" width="174" height="90"/>
<g id="E-commerce" style="enable-background:new    ;">
	<path style="fill:#2FD28E;" d="M1364.15,222.8v2h-6.7v3.3h6v1.9h-6v3.4h6.9v2h-9.1v-12.6L1364.15,222.8L1364.15,222.8z"/>
	<path style="fill:#2FD28E;" d="M1366.65,231v-1.9h6v1.9H1366.65z"/>
	<path style="fill:#2FD28E;" d="M1379.65,235.5c-1.3,0-2.5-0.5-3.4-1.4c-1-0.9-1.4-2.1-1.4-3.6s0.5-2.7,1.5-3.6
		c1-0.9,2.2-1.4,3.7-1.4c1.4,0,2.7,0.5,3.7,1.5l-1.2,1.5c-0.8-0.7-1.7-1.1-2.5-1.1s-1.6,0.3-2.2,0.8c-0.6,0.6-0.9,1.3-0.9,2.2
		s0.3,1.6,0.9,2.2c0.6,0.6,1.4,0.9,2.3,0.9s1.7-0.4,2.5-1.2l1.2,1.3C1382.55,234.9,1381.15,235.5,1379.65,235.5z"/>
	<path style="fill:#2FD28E;" d="M1393.65,234.1c-1,1-2.2,1.4-3.6,1.4s-2.6-0.5-3.6-1.4c-1-1-1.4-2.1-1.4-3.5s0.5-2.5,1.4-3.5
		c1-1,2.2-1.4,3.6-1.4s2.6,0.5,3.6,1.4c1,1,1.4,2.1,1.4,3.5S1394.55,233.1,1393.65,234.1z M1387.85,232.9c0.6,0.6,1.3,0.9,2.2,0.9
		s1.6-0.3,2.2-0.9c0.6-0.6,0.9-1.3,0.9-2.3s-0.3-1.7-0.9-2.3s-1.3-0.9-2.2-0.9s-1.6,0.3-2.2,0.9c-0.6,0.6-0.9,1.3-0.9,2.3
		S1387.25,232.3,1387.85,232.9z"/>
	<path style="fill:#2FD28E;" d="M1399.35,230.2v5.2h-2v-9.6h2v1.7c0.3-0.6,0.7-1.1,1.3-1.4c0.6-0.3,1.2-0.5,1.9-0.5
		c1.5,0,2.5,0.6,3.1,1.9c0.9-1.2,2.1-1.9,3.6-1.9c1.1,0,2,0.3,2.6,1c0.7,0.7,1,1.6,1,2.9v5.9h-2v-5.3c0-1.8-0.7-2.6-2.2-2.6
		c-0.7,0-1.3,0.2-1.8,0.7c-0.5,0.4-0.8,1.1-0.8,1.9v5.3h-2v-5.3c0-0.9-0.2-1.6-0.5-2s-0.8-0.6-1.5-0.6s-1.3,0.2-1.8,0.7
		C1399.65,228.6,1399.35,229.3,1399.35,230.2z"/>
	<path style="fill:#2FD28E;" d="M1417.65,230.2v5.2h-2v-9.6h2v1.7c0.3-0.6,0.7-1.1,1.3-1.4c0.6-0.3,1.2-0.5,1.9-0.5
		c1.5,0,2.5,0.6,3.1,1.9c0.9-1.2,2.1-1.9,3.6-1.9c1.1,0,2,0.3,2.6,1c0.7,0.7,1,1.6,1,2.9v5.9h-2v-5.3c0-1.8-0.7-2.6-2.2-2.6
		c-0.7,0-1.3,0.2-1.8,0.7c-0.5,0.4-0.8,1.1-0.8,1.9v5.3h-2v-5.3c0-0.9-0.2-1.6-0.5-2s-0.8-0.6-1.5-0.6s-1.3,0.2-1.8,0.7
		C1417.85,228.6,1417.65,229.3,1417.65,230.2z"/>
	<path style="fill:#2FD28E;" d="M1442.85,231.5h-7.5c0,0.7,0.4,1.3,1,1.7s1.3,0.6,2,0.6c1.2,0,2.1-0.4,2.7-1.1l1.2,1.3
		c-1,1.1-2.4,1.6-4,1.6c-1.3,0-2.5-0.4-3.4-1.3s-1.4-2.1-1.4-3.6s0.5-2.7,1.4-3.6c1-0.9,2.1-1.3,3.4-1.3s2.4,0.4,3.3,1.2
		s1.4,1.9,1.4,3.3L1442.85,231.5L1442.85,231.5z M1435.35,229.9h5.5c0-0.8-0.3-1.4-0.8-1.9s-1.1-0.6-1.9-0.6s-1.4,0.2-2,0.7
		C1435.55,228.5,1435.35,229.1,1435.35,229.9z"/>
	<path style="fill:#2FD28E;" d="M1450.05,227.7c-1,0-1.7,0.3-2.3,1c-0.5,0.6-0.8,1.5-0.8,2.6v4.1h-2v-9.6h2v1.9
		c0.3-0.6,0.8-1.1,1.3-1.5c0.6-0.4,1.2-0.6,1.8-0.6v2C1450.15,227.7,1450.05,227.7,1450.05,227.7z"/>
	<path style="fill:#2FD28E;" d="M1456.45,235.5c-1.3,0-2.5-0.5-3.4-1.4c-1-0.9-1.4-2.1-1.4-3.6s0.5-2.7,1.5-3.6
		c1-0.9,2.2-1.4,3.7-1.4c1.4,0,2.7,0.5,3.7,1.5l-1.2,1.5c-0.8-0.7-1.7-1.1-2.5-1.1s-1.6,0.3-2.2,0.8c-0.6,0.6-0.9,1.3-0.9,2.2
		s0.3,1.6,0.9,2.2c0.6,0.6,1.4,0.9,2.3,0.9s1.7-0.4,2.5-1.2l1.2,1.3C1459.35,234.9,1457.95,235.5,1456.45,235.5z"/>
	<path style="fill:#2FD28E;" d="M1471.45,231.5h-7.5c0,0.7,0.4,1.3,1,1.7s1.3,0.6,2,0.6c1.2,0,2.1-0.4,2.7-1.1l1.2,1.3
		c-1,1.1-2.4,1.6-4,1.6c-1.3,0-2.5-0.4-3.4-1.3s-1.4-2.1-1.4-3.6s0.5-2.7,1.4-3.6c1-0.9,2.1-1.3,3.4-1.3s2.4,0.4,3.3,1.2
		s1.4,1.9,1.4,3.3L1471.45,231.5L1471.45,231.5z M1463.95,229.9h5.5c0-0.8-0.3-1.4-0.8-1.9s-1.1-0.6-1.9-0.6s-1.4,0.2-2,0.7
		C1464.25,228.5,1463.95,229.1,1463.95,229.9z"/>
</g>
<rect id="box_copy_46" x="332.05" y="183.4" style="fill:none;stroke:#2FD28E;" width="174" height="90"/>
<g id="CMS" style="enable-background:new    ;">
	<path style="fill:#2FD28E;" d="M405.05,233.5c0.7,0,1.4-0.1,1.9-0.4c0.5-0.2,1.1-0.6,1.7-1.2l1.4,1.4c-1.3,1.5-3,2.2-4.9,2.2
		s-3.5-0.6-4.7-1.8c-1.3-1.2-1.9-2.8-1.9-4.6s0.6-3.4,1.9-4.7c1.3-1.2,2.9-1.9,4.8-1.9c2,0,3.6,0.7,4.9,2.2l-1.4,1.5
		c-0.6-0.6-1.2-1-1.7-1.2s-1.2-0.3-1.9-0.3c-1.3,0-2.3,0.4-3.2,1.2c-0.9,0.8-1.3,1.9-1.3,3.2s0.4,2.3,1.3,3.2
		S403.95,233.5,405.05,233.5z"/>
	<path style="fill:#2FD28E;" d="M414.75,235.4h-2.2v-12.6h3.3l3.8,7.9l3.8-7.9h3.3v12.6h-2.1v-9.8l-4.4,8.7h-1.2l-4.4-8.7v9.8
		H414.75z"/>
	<path style="fill:#2FD28E;" d="M434.15,224.5c-0.6,0-1.1,0.1-1.5,0.4s-0.6,0.6-0.6,1.1s0.2,0.9,0.6,1.2s1.2,0.6,2.5,0.9
		c1.3,0.3,2.3,0.8,2.9,1.3c0.7,0.6,1,1.4,1,2.5s-0.4,2-1.2,2.7s-1.9,1-3.3,1c-2,0-3.7-0.7-5.2-2l1.3-1.6c1.3,1.1,2.6,1.7,4,1.7
		c0.7,0,1.2-0.1,1.6-0.4c0.4-0.3,0.6-0.7,0.6-1.2s-0.2-0.9-0.6-1.1c-0.4-0.3-1-0.5-2-0.7c-0.9-0.2-1.6-0.4-2.1-0.6s-0.9-0.4-1.3-0.7
		c-0.7-0.6-1.1-1.4-1.1-2.6c0-1.2,0.4-2.1,1.3-2.7s1.9-0.9,3.1-0.9c0.8,0,1.6,0.1,2.4,0.4c0.8,0.3,1.5,0.6,2.1,1.1l-1.1,1.6
		c-0.4-0.3-0.9-0.6-1.5-0.8C435.35,224.6,434.75,224.5,434.15,224.5z"/>
</g>
<path id="box_copy_56" style="fill:none;stroke:#E64343;" d="M438.05,764.4h174v90h-174V764.4z"/>
<g id="DESIGN_TEAM" style="enable-background:new    ;">
	<path style="fill:#E64343;" d="M470.85,804.4c1.2,1.1,1.8,2.6,1.8,4.6s-0.6,3.5-1.8,4.6c-1.2,1.1-3,1.7-5.4,1.7h-4.2v-12.6h4.3
		C467.95,802.8,469.65,803.3,470.85,804.4z M470.55,809.1c0-2.9-1.7-4.3-5-4.3h-2.1v8.6h2.4c1.5,0,2.7-0.4,3.5-1.1
		C470.15,811.6,470.55,810.5,470.55,809.1z"/>
	<path style="fill:#E64343;" d="M484.25,802.8v2h-6.7v3.3h6v1.9h-6v3.4h6.9v2h-9.1v-12.6L484.25,802.8L484.25,802.8z"/>
	<path style="fill:#E64343;" d="M491.05,804.5c-0.6,0-1.1,0.1-1.5,0.4c-0.4,0.3-0.6,0.6-0.6,1.1s0.2,0.9,0.6,1.2s1.2,0.6,2.5,0.9
		c1.3,0.3,2.3,0.8,2.9,1.3c0.7,0.6,1,1.4,1,2.5s-0.4,2-1.2,2.7c-0.8,0.7-1.9,1-3.3,1c-2,0-3.7-0.7-5.2-2l1.3-1.6
		c1.3,1.1,2.6,1.7,4,1.7c0.7,0,1.2-0.1,1.6-0.4s0.6-0.7,0.6-1.2s-0.2-0.9-0.6-1.1c-0.4-0.3-1-0.5-2-0.7c-0.9-0.2-1.6-0.4-2.1-0.6
		c-0.5-0.2-0.9-0.4-1.3-0.7c-0.7-0.6-1.1-1.4-1.1-2.6s0.4-2.1,1.3-2.7c0.8-0.6,1.9-0.9,3.1-0.9c0.8,0,1.6,0.1,2.4,0.4
		c0.8,0.3,1.5,0.6,2.1,1.1l-1.1,1.6c-0.4-0.3-0.9-0.6-1.5-0.8S491.65,804.5,491.05,804.5z"/>
	<path style="fill:#E64343;" d="M498.55,802.8h2.1v12.6h-2.1V802.8z"/>
	<path style="fill:#E64343;" d="M512.95,809.3h2.1v4.3c-1.2,1.3-2.9,2-5.1,2c-1.9,0-3.4-0.6-4.7-1.8s-1.9-2.8-1.9-4.6
		c0-1.9,0.6-3.4,1.9-4.7c1.3-1.2,2.8-1.9,4.6-1.9s3.3,0.5,4.5,1.6l-1.1,1.6c-0.5-0.4-1-0.7-1.5-0.9s-1.1-0.2-1.7-0.2
		c-1.3,0-2.3,0.4-3.2,1.2c-0.9,0.8-1.3,1.9-1.3,3.2s0.4,2.4,1.3,3.2c0.8,0.8,1.9,1.2,3.1,1.2s2.2-0.3,3-0.8V809.3z"/>
	<path style="fill:#E64343;" d="M527.25,802.8h2.1v12.6h-2.3l-7.1-9.2v9.2h-2.1v-12.6h2.1l7.3,9.4V802.8z"/>
	<path style="fill:#E64343;" d="M542.55,804.7v10.6h-2.1v-10.6h-3.8v-1.9h9.8v1.9H542.55z"/>
	<path style="fill:#E64343;" d="M557.55,802.8v2h-6.7v3.3h6v1.9h-6v3.4h6.9v2h-9.1v-12.6L557.55,802.8L557.55,802.8z"/>
	<path style="fill:#E64343;" d="M562.25,812.5l-1.3,2.9h-2.3l5.6-12.6h2.3l5.6,12.6h-2.3l-1.3-2.9H562.25z M567.75,810.6l-2.3-5.2
		l-2.3,5.2H567.75z"/>
	<path style="fill:#E64343;" d="M576.05,815.4h-2.1v-12.6h3.3l3.8,7.9l3.8-7.9h3.3v12.6h-2.1v-9.8l-4.4,8.7h-1.2l-4.4-8.7
		L576.05,815.4L576.05,815.4z"/>
</g>
<path id="box_copy_57" style="fill:none;stroke:#E64343;" d="M886.05,764.4h174v90h-174V764.4z"/>
<g id="FRONT_END" style="enable-background:new    ;">
	<path style="fill:#E64343;" d="M920.95,792.8v3.5h5.6v2h-5.6v5.2h-2.1v-12.6h8.4v2h-6.3L920.95,792.8L920.95,792.8z"/>
	<path style="fill:#E64343;" d="M939.75,794.9c0,2.1-0.9,3.4-2.7,3.9l3.3,4.6h-2.7l-3-4.2h-2.8v4.2h-2.1v-12.6h4.7
		c1.9,0,3.3,0.3,4.1,1C939.35,792.4,939.75,793.5,939.75,794.9z M936.95,796.7c0.4-0.4,0.6-1,0.6-1.8s-0.2-1.4-0.7-1.7
		s-1.2-0.5-2.4-0.5h-2.7v4.5h2.6C935.75,797.2,936.55,797.1,936.95,796.7z"/>
	<path style="fill:#E64343;" d="M953.35,801.7c-1.3,1.2-2.8,1.9-4.7,1.9s-3.4-0.6-4.7-1.9s-1.9-2.8-1.9-4.6s0.6-3.4,1.9-4.6
		s2.8-1.9,4.7-1.9s3.4,0.6,4.7,1.9s1.9,2.8,1.9,4.6S954.65,800.4,953.35,801.7z M951.85,793.8c-0.9-0.9-1.9-1.3-3.2-1.3
		s-2.3,0.4-3.2,1.3c-0.9,0.9-1.3,2-1.3,3.2s0.4,2.3,1.3,3.2c0.9,0.9,1.9,1.3,3.2,1.3s2.3-0.4,3.2-1.3c0.9-0.9,1.3-2,1.3-3.2
		S952.65,794.7,951.85,793.8z"/>
	<path style="fill:#E64343;" d="M967.45,790.8h2.1v12.6h-2.3l-7.1-9.2v9.2h-2.1v-12.6h2.1l7.3,9.4V790.8z"/>
	<path style="fill:#E64343;" d="M977.85,792.8v10.6h-2.1v-10.6h-3.8v-1.9h9.8v1.9H977.85z"/>
	<path style="fill:#E64343;" d="M997.75,790.8v2h-6.7v3.3h6v1.9h-6v3.4h6.9v2h-9.1v-12.6L997.75,790.8L997.75,790.8z"/>
	<path style="fill:#E64343;" d="M1010.15,790.8h2.1v12.6h-2.3l-7.1-9.2v9.2h-2.1v-12.6h2.1l7.3,9.4V790.8z"/>
	<path style="fill:#E64343;" d="M1025.25,792.5c1.2,1.1,1.8,2.6,1.8,4.6s-0.6,3.5-1.8,4.6s-3,1.7-5.4,1.7h-4.2v-12.6h4.3
		C1022.35,790.8,1024.05,791.4,1025.25,792.5z M1024.95,797.1c0-2.9-1.7-4.3-5-4.3h-2.1v8.6h2.4c1.5,0,2.7-0.4,3.5-1.1
		C1024.55,799.6,1024.95,798.5,1024.95,797.1z"/>
</g>
<g id="TEAM" style="enable-background:new    ;">
	<path style="fill:#E64343;" d="M952.25,816.8v10.6h-2.1v-10.6h-3.8v-1.9h9.8v1.9H952.25z"/>
	<path style="fill:#E64343;" d="M967.15,814.8v2h-6.7v3.3h6v1.9h-6v3.4h6.9v2h-9.1v-12.6L967.15,814.8L967.15,814.8z"/>
	<path style="fill:#E64343;" d="M971.95,824.5l-1.3,2.9h-2.3l5.6-12.6h2.3l5.6,12.6h-2.3l-1.3-2.9H971.95z M977.35,822.6l-2.3-5.2
		l-2.3,5.2H977.35z"/>
	<path style="fill:#E64343;" d="M985.65,827.4h-2.1v-12.6h3.3l3.8,7.9l3.8-7.9h3.3v12.6h-2.2v-9.8l-4.4,8.7h-1.2l-4.4-8.7v9.8
		H985.65z"/>
</g>
<rect id="box_copy_47" x="664.05" y="183.4" style="fill:none;stroke:#2FD28E;" width="174" height="90"/>
<g id="Apps" style="enable-background:new    ;">
	<path style="fill:#2FD28E;" d="M732.15,232.5l-1.3,2.9h-2.3l5.6-12.6h2.3l5.6,12.6h-2.3l-1.3-2.9H732.15z M737.55,230.6l-2.3-5.2
		l-2.3,5.2H737.55z"/>
	<path style="fill:#2FD28E;" d="M748.55,225.7c1.3,0,2.4,0.4,3.3,1.3c0.9,0.9,1.4,2.1,1.4,3.5c0,1.5-0.5,2.7-1.4,3.6s-2,1.4-3.2,1.4
		s-2.3-0.5-3.3-1.6v4.9h-2v-13.1h2v1.7C746.25,226.3,747.25,225.7,748.55,225.7z M745.45,230.6c0,0.9,0.3,1.7,0.8,2.2
		c0.6,0.6,1.2,0.9,2,0.9s1.5-0.3,2.1-0.9s0.9-1.3,0.9-2.2s-0.3-1.7-0.9-2.3c-0.6-0.6-1.3-0.9-2.1-0.9s-1.5,0.3-2,0.9
		C745.65,228.9,745.45,229.7,745.45,230.6z"/>
	<path style="fill:#2FD28E;" d="M760.65,225.7c1.3,0,2.4,0.4,3.3,1.3c0.9,0.9,1.4,2.1,1.4,3.5c0,1.5-0.5,2.7-1.4,3.6s-2,1.4-3.2,1.4
		s-2.3-0.5-3.3-1.6v4.9h-2v-13.1h2v1.7C758.35,226.3,759.35,225.7,760.65,225.7z M757.55,230.6c0,0.9,0.3,1.7,0.8,2.2
		c0.6,0.6,1.2,0.9,2,0.9s1.5-0.3,2.1-0.9s0.9-1.3,0.9-2.2s-0.3-1.7-0.9-2.3c-0.6-0.6-1.3-0.9-2.1-0.9s-1.5,0.3-2,0.9
		C757.75,228.9,757.55,229.7,757.55,230.6z"/>
	<path style="fill:#2FD28E;" d="M774.45,232.5c0,0.9-0.3,1.6-1,2.2c-0.7,0.5-1.5,0.8-2.5,0.8c-0.7,0-1.4-0.1-2.2-0.4
		c-0.8-0.3-1.4-0.6-2-1.1l1-1.6c1.1,0.8,2.2,1.3,3.2,1.3c0.5,0,0.8-0.1,1.1-0.3s0.4-0.5,0.4-0.8c0-0.5-0.6-0.9-1.9-1.3
		c-0.1,0-0.2-0.1-0.2-0.1c-2-0.5-3-1.4-3-2.7c0-0.9,0.3-1.6,1-2.1s1.6-0.8,2.7-0.8s2.2,0.3,3.1,1l-0.8,1.5c-0.8-0.5-1.6-0.8-2.5-0.8
		c-0.5,0-0.9,0.1-1.2,0.3s-0.5,0.4-0.5,0.8c0,0.3,0.2,0.5,0.5,0.7c0.2,0.1,0.5,0.2,0.9,0.3s0.7,0.2,1,0.3s0.6,0.2,0.9,0.3
		c0.3,0.1,0.6,0.3,0.9,0.5C774.15,230.9,774.45,231.6,774.45,232.5z"/>
</g>
<path id="box_copy_50" style="fill:none;stroke:#2FD28E;" d="M181.05,365.4h134v60h-134V365.4z"/>
<g id="Android_app" style="enable-background:new    ;">
	<path style="fill:#2FD28E;" d="M199.15,397.5l-1.3,2.9h-2.3l5.6-12.6h2.3l5.6,12.6h-2.3l-1.3-2.9H199.15z M204.55,395.6l-2.3-5.2
		l-2.3,5.2H204.55z"/>
	<path style="fill:#2FD28E;" d="M212.45,395.2v5.2h-2v-9.6h2v1.7c0.3-0.6,0.8-1.1,1.3-1.4s1.2-0.5,1.8-0.5c1.1,0,2,0.3,2.6,1
		c0.7,0.7,1,1.6,1,2.9v5.9h-2v-5.3c0-1.8-0.7-2.6-2.2-2.6c-0.7,0-1.3,0.2-1.8,0.7C212.65,393.6,212.45,394.3,212.45,395.2z"/>
	<path style="fill:#2FD28E;" d="M222.85,399.2c-0.9-0.9-1.4-2.1-1.4-3.6s0.5-2.7,1.4-3.6s2-1.3,3.3-1.3s2.3,0.5,3.1,1.6V387h2v13.4
		h-2V399c-0.7,1.1-1.8,1.6-3.3,1.6C224.75,400.5,223.75,400.1,222.85,399.2z M223.45,395.6c0,0.9,0.3,1.7,0.9,2.2s1.3,0.9,2.1,0.9
		s1.5-0.3,2-0.9c0.6-0.6,0.8-1.3,0.8-2.2s-0.3-1.7-0.8-2.3c-0.6-0.6-1.2-0.9-2-0.9s-1.5,0.3-2.1,0.9
		C223.75,394,223.45,394.7,223.45,395.6z"/>
	<path style="fill:#2FD28E;" d="M239.25,392.7c-1,0-1.7,0.3-2.3,1c-0.5,0.6-0.8,1.5-0.8,2.6v4.1h-2v-9.6h2v1.9
		c0.3-0.6,0.8-1.1,1.3-1.5c0.6-0.4,1.1-0.6,1.8-0.6v2C239.25,392.7,239.25,392.7,239.25,392.7z"/>
	<path style="fill:#2FD28E;" d="M249.15,399.1c-1,1-2.2,1.4-3.6,1.4c-1.4,0-2.6-0.5-3.6-1.4c-1-1-1.4-2.1-1.4-3.5s0.5-2.5,1.4-3.5
		c1-1,2.2-1.4,3.6-1.4c1.4,0,2.6,0.5,3.6,1.4c1,1,1.4,2.1,1.4,3.5S250.15,398.2,249.15,399.1z M243.35,397.9
		c0.6,0.6,1.3,0.9,2.2,0.9s1.6-0.3,2.2-0.9c0.6-0.6,0.9-1.3,0.9-2.3s-0.3-1.7-0.9-2.3c-0.6-0.6-1.3-0.9-2.2-0.9s-1.6,0.3-2.2,0.9
		c-0.6,0.6-0.9,1.3-0.9,2.3S242.85,397.3,243.35,397.9z"/>
	<path style="fill:#2FD28E;" d="M253.05,388.9c-0.3-0.3-0.4-0.6-0.4-0.9s0.1-0.6,0.4-0.9s0.6-0.4,0.9-0.4c0.3,0,0.6,0.1,0.9,0.4
		s0.4,0.6,0.4,0.9s-0.1,0.6-0.4,0.9c-0.3,0.3-0.6,0.4-0.9,0.4C253.55,389.3,253.25,389.2,253.05,388.9z M254.95,400.4h-2v-9.6h2
		V400.4z"/>
	<path style="fill:#2FD28E;" d="M258.55,399.2c-0.9-0.9-1.4-2.1-1.4-3.6s0.5-2.7,1.4-3.6s2-1.3,3.3-1.3s2.3,0.5,3.1,1.6V387h2v13.4
		h-2V399c-0.7,1.1-1.8,1.6-3.3,1.6C260.55,400.5,259.45,400.1,258.55,399.2z M259.25,395.6c0,0.9,0.3,1.7,0.9,2.2s1.3,0.9,2.1,0.9
		s1.5-0.3,2-0.9c0.6-0.6,0.8-1.3,0.8-2.2s-0.3-1.7-0.8-2.3c-0.6-0.6-1.2-0.9-2-0.9s-1.5,0.3-2.1,0.9
		C259.55,394,259.25,394.7,259.25,395.6z"/>
	<path style="fill:#2FD28E;" d="M282.65,400.4h-1.8v-1.3c-0.8,0.9-1.9,1.4-3.2,1.4c-1,0-1.8-0.3-2.5-0.8c-0.7-0.6-1-1.3-1-2.3
		s0.3-1.6,1-2.1s1.6-0.7,2.8-0.7h2.6v-0.4c0-1.3-0.7-1.9-2.1-1.9c-0.9,0-1.8,0.3-2.8,1l-0.9-1.3c1.2-0.9,2.5-1.4,4-1.4
		c1.1,0,2.1,0.3,2.8,0.9s1.1,1.5,1.1,2.7V400.4z M280.65,396.8V396h-2.3c-1.5,0-2.2,0.5-2.2,1.4c0,0.5,0.2,0.8,0.5,1.1
		c0.4,0.2,0.9,0.4,1.5,0.4s1.2-0.2,1.7-0.5C280.35,397.9,280.65,397.4,280.65,396.8z"/>
	<path style="fill:#2FD28E;" d="M290.65,390.7c1.3,0,2.4,0.4,3.3,1.3s1.4,2.1,1.4,3.5c0,1.5-0.5,2.7-1.4,3.6s-2,1.4-3.2,1.4
		s-2.3-0.5-3.3-1.6v4.9h-2v-13.1h2v1.7C288.25,391.3,289.35,390.7,290.65,390.7z M287.45,395.6c0,0.9,0.3,1.7,0.8,2.2
		c0.6,0.6,1.2,0.9,2,0.9s1.5-0.3,2.1-0.9s0.9-1.3,0.9-2.2c0-0.9-0.3-1.7-0.9-2.3c-0.6-0.6-1.3-0.9-2.1-0.9c-0.8,0-1.5,0.3-2,0.9
		C287.75,393.9,287.45,394.7,287.45,395.6z"/>
	<path style="fill:#2FD28E;" d="M302.75,390.7c1.3,0,2.4,0.4,3.3,1.3s1.4,2.1,1.4,3.5c0,1.5-0.5,2.7-1.4,3.6s-2,1.4-3.2,1.4
		s-2.3-0.5-3.3-1.6v4.9h-2v-13.1h2v1.7C300.35,391.3,301.45,390.7,302.75,390.7z M299.55,395.6c0,0.9,0.3,1.7,0.8,2.2
		c0.6,0.6,1.2,0.9,2,0.9s1.5-0.3,2.1-0.9s0.9-1.3,0.9-2.2c0-0.9-0.3-1.7-0.9-2.3c-0.6-0.6-1.3-0.9-2.1-0.9c-0.8,0-1.5,0.3-2,0.9
		C299.85,393.9,299.55,394.7,299.55,395.6z"/>
</g>
<path id="box_copy_51" style="fill:none;stroke:#2FD28E;" d="M342.05,365.4h134v60h-134V365.4z"/>
<g id="iOS_app" style="enable-background:new    ;">
	<path style="fill:#2FD28E;" d="M375.15,388.9c-0.3-0.3-0.4-0.6-0.4-0.9s0.1-0.6,0.4-0.9s0.6-0.4,0.9-0.4s0.6,0.1,0.9,0.4
		s0.4,0.6,0.4,0.9s-0.1,0.6-0.4,0.9s-0.6,0.4-0.9,0.4S375.45,389.2,375.15,388.9z M377.05,400.4h-2v-9.6h2V400.4z"/>
	<path style="fill:#2FD28E;" d="M390.75,398.7c-1.3,1.2-2.8,1.9-4.7,1.9s-3.4-0.6-4.7-1.9c-1.3-1.2-1.9-2.8-1.9-4.6
		c0-1.9,0.6-3.4,1.9-4.6s2.8-1.9,4.7-1.9s3.4,0.6,4.7,1.9c1.3,1.2,1.9,2.8,1.9,4.6S391.95,397.4,390.75,398.7z M389.15,390.8
		c-0.9-0.9-1.9-1.3-3.2-1.3s-2.3,0.4-3.2,1.3c-0.9,0.9-1.3,2-1.3,3.2s0.4,2.3,1.3,3.2s1.9,1.3,3.2,1.3s2.3-0.4,3.2-1.3
		c0.9-0.9,1.3-2,1.3-3.2S390.05,391.7,389.15,390.8z"/>
	<path style="fill:#2FD28E;" d="M399.15,389.5c-0.6,0-1.1,0.1-1.5,0.4s-0.6,0.6-0.6,1.1s0.2,0.9,0.6,1.2c0.4,0.3,1.2,0.6,2.5,0.9
		s2.3,0.8,2.9,1.3c0.7,0.6,1,1.4,1,2.5s-0.4,2-1.2,2.7s-1.9,1-3.3,1c-2,0-3.7-0.7-5.2-2l1.3-1.6c1.3,1.1,2.6,1.7,4,1.7
		c0.7,0,1.2-0.1,1.6-0.4s0.6-0.7,0.6-1.2s-0.2-0.9-0.6-1.1c-0.4-0.3-1-0.5-2-0.7c-0.9-0.2-1.6-0.4-2.1-0.6s-0.9-0.4-1.3-0.7
		c-0.7-0.6-1.1-1.4-1.1-2.6s0.4-2.1,1.3-2.7s1.9-0.9,3.1-0.9c0.8,0,1.6,0.1,2.4,0.4s1.5,0.6,2.1,1.1l-1.1,1.6
		c-0.4-0.3-0.9-0.6-1.5-0.8C400.35,389.6,399.75,389.5,399.15,389.5z"/>
	<path style="fill:#2FD28E;" d="M419.05,400.4h-1.8v-1.3c-0.8,0.9-1.9,1.4-3.2,1.4c-1,0-1.8-0.3-2.5-0.8c-0.7-0.6-1-1.3-1-2.3
		s0.3-1.6,1-2.1s1.6-0.7,2.8-0.7h2.6v-0.4c0-1.3-0.7-1.9-2.1-1.9c-0.9,0-1.8,0.3-2.8,1l-0.9-1.3c1.2-0.9,2.5-1.4,4-1.4
		c1.1,0,2.1,0.3,2.8,0.9s1.1,1.5,1.1,2.7V400.4z M417.05,396.8V396h-2.3c-1.5,0-2.2,0.5-2.2,1.4c0,0.5,0.2,0.8,0.5,1.1
		s0.9,0.4,1.5,0.4s1.2-0.2,1.7-0.5C416.85,397.9,417.05,397.4,417.05,396.8z"/>
	<path style="fill:#2FD28E;" d="M427.05,390.7c1.3,0,2.4,0.4,3.3,1.3s1.4,2.1,1.4,3.5c0,1.5-0.5,2.7-1.4,3.6s-2,1.4-3.2,1.4
		s-2.3-0.5-3.3-1.6v4.9h-2v-13.1h2v1.7C424.75,391.3,425.75,390.7,427.05,390.7z M423.85,395.6c0,0.9,0.3,1.7,0.8,2.2
		c0.6,0.6,1.2,0.9,2,0.9s1.5-0.3,2.1-0.9s0.9-1.3,0.9-2.2c0-0.9-0.3-1.7-0.9-2.3c-0.6-0.6-1.3-0.9-2.1-0.9s-1.5,0.3-2,0.9
		C424.15,393.9,423.85,394.7,423.85,395.6z"/>
	<path style="fill:#2FD28E;" d="M439.15,390.7c1.3,0,2.4,0.4,3.3,1.3s1.4,2.1,1.4,3.5c0,1.5-0.5,2.7-1.4,3.6s-2,1.4-3.2,1.4
		s-2.3-0.5-3.3-1.6v4.9h-2v-13.1h2v1.7C436.85,391.3,437.85,390.7,439.15,390.7z M435.95,395.6c0,0.9,0.3,1.7,0.8,2.2
		c0.6,0.6,1.2,0.9,2,0.9s1.5-0.3,2.1-0.9s0.9-1.3,0.9-2.2c0-0.9-0.3-1.7-0.9-2.3c-0.6-0.6-1.3-0.9-2.1-0.9s-1.5,0.3-2,0.9
		C436.25,393.9,435.95,394.7,435.95,395.6z"/>
</g>
<path id="box_copy_52" style="fill:none;stroke:#2FD28E;" d="M503.05,365.4h194v60h-194V365.4z"/>
<g id="FLEX" style="enable-background:new    ;">
	<path style="fill:#2FD28E;" d="M528.45,404.8v3.5h5.6v2h-5.6v5.2h-2.1v-12.6h8.4v2h-6.3L528.45,404.8L528.45,404.8z"/>
	<path style="fill:#2FD28E;" d="M537.25,415.4v-12.6h2.1v10.6h5.7v2H537.25z"/>
	<path style="fill:#2FD28E;" d="M556.25,402.8v2h-6.7v3.3h6v1.9h-6v3.4h6.9v2h-9.1v-12.6L556.25,402.8L556.25,402.8z"/>
	<path style="fill:#2FD28E;" d="M566.65,415.4l-3.1-4.7h-0.1l-3.1,4.7h-2.6l4.3-6.5l-4-6.1h2.6l2.8,4.2h0.1l2.8-4.2h2.6l-4,6.1
		l4.3,6.5H566.65z"/>
</g>
<g id="Advanced_Editor" style="enable-background:new    ;">
	<path style="fill:#2FD28E;" d="M528.15,388.5l-1.3,2.9h-2.3l5.6-12.6h2.3l5.6,12.6h-2.3l-1.3-2.9H528.15z M533.55,386.6l-2.3-5.2
		l-2.3,5.2H533.55z"/>
	<path style="fill:#2FD28E;" d="M540.15,390.2c-0.9-0.9-1.4-2.1-1.4-3.6s0.5-2.7,1.4-3.6s2-1.3,3.3-1.3s2.3,0.5,3.1,1.6V378h2v13.4
		h-2v-1.5c-0.7,1.1-1.8,1.6-3.3,1.6C542.15,391.5,541.05,391.1,540.15,390.2z M540.85,386.6c0,0.9,0.3,1.7,0.9,2.2
		c0.6,0.6,1.3,0.9,2.1,0.9s1.5-0.3,2-0.9c0.6-0.6,0.8-1.3,0.8-2.2s-0.3-1.7-0.8-2.3c-0.6-0.6-1.2-0.9-2-0.9s-1.5,0.3-2.1,0.9
		C541.15,384.9,540.85,385.7,540.85,386.6z"/>
	<path style="fill:#2FD28E;" d="M554.05,391.4l-3.9-9.6h2.1l2.9,7.2l2.9-7.2h2.1l-3.9,9.6H554.05z"/>
	<path style="fill:#2FD28E;" d="M569.45,391.4h-1.8v-1.3c-0.8,0.9-1.9,1.4-3.2,1.4c-1,0-1.8-0.3-2.5-0.8c-0.7-0.6-1-1.3-1-2.3
		s0.3-1.6,1-2.1s1.6-0.7,2.8-0.7h2.6v-0.4c0-1.3-0.7-1.9-2.1-1.9c-0.9,0-1.8,0.3-2.8,1l-0.9-1.3c1.2-0.9,2.5-1.4,4-1.4
		c1.1,0,2.1,0.3,2.8,0.9s1.1,1.5,1.1,2.7L569.45,391.4L569.45,391.4z M567.45,387.8V387h-2.3c-1.5,0-2.2,0.5-2.2,1.4
		c0,0.5,0.2,0.8,0.5,1.1s0.9,0.4,1.5,0.4s1.2-0.2,1.7-0.5C567.25,388.9,567.45,388.4,567.45,387.8z"/>
	<path style="fill:#2FD28E;" d="M574.35,386.2v5.2h-2v-9.6h2v1.7c0.3-0.6,0.8-1.1,1.3-1.4c0.6-0.3,1.2-0.5,1.8-0.5
		c1.1,0,2,0.3,2.6,1c0.7,0.7,1,1.6,1,2.9v5.9h-2v-5.3c0-1.8-0.7-2.6-2.2-2.6c-0.7,0-1.3,0.2-1.8,0.7
		C574.55,384.6,574.35,385.3,574.35,386.2z"/>
	<path style="fill:#2FD28E;" d="M588.15,391.5c-1.3,0-2.5-0.5-3.4-1.4c-1-0.9-1.4-2.1-1.4-3.6s0.5-2.7,1.5-3.6s2.2-1.4,3.7-1.4
		c1.4,0,2.7,0.5,3.7,1.5l-1.2,1.5c-0.8-0.7-1.7-1.1-2.5-1.1s-1.6,0.3-2.2,0.8c-0.6,0.6-0.9,1.3-0.9,2.2s0.3,1.6,0.9,2.2
		c0.6,0.6,1.4,0.9,2.3,0.9c0.9,0,1.7-0.4,2.5-1.2l1.2,1.3C591.05,390.9,589.75,391.5,588.15,391.5z"/>
	<path style="fill:#2FD28E;" d="M603.25,387.5h-7.5c0,0.7,0.4,1.3,1,1.7c0.6,0.4,1.3,0.6,2,0.6c1.2,0,2.1-0.4,2.7-1.1l1.2,1.3
		c-1,1.1-2.4,1.6-4,1.6c-1.3,0-2.5-0.4-3.4-1.3s-1.4-2.1-1.4-3.6s0.5-2.7,1.4-3.6c1-0.9,2.1-1.3,3.4-1.3c1.3,0,2.4,0.4,3.3,1.2
		c0.9,0.8,1.4,1.9,1.4,3.3v1.2L603.25,387.5L603.25,387.5z M595.75,385.9h5.5c0-0.8-0.3-1.4-0.8-1.9s-1.1-0.6-1.9-0.6
		s-1.4,0.2-2,0.7C596.05,384.5,595.75,385.1,595.75,385.9z"/>
	<path style="fill:#2FD28E;" d="M606.15,390.2c-0.9-0.9-1.4-2.1-1.4-3.6s0.5-2.7,1.4-3.6s2-1.3,3.3-1.3s2.3,0.5,3.1,1.6V378h2v13.4
		h-2v-1.5c-0.7,1.1-1.8,1.6-3.3,1.6C608.15,391.5,607.05,391.1,606.15,390.2z M606.85,386.6c0,0.9,0.3,1.7,0.9,2.2
		c0.6,0.6,1.3,0.9,2.1,0.9s1.5-0.3,2-0.9c0.6-0.6,0.8-1.3,0.8-2.2s-0.3-1.7-0.8-2.3c-0.6-0.6-1.2-0.9-2-0.9s-1.5,0.3-2.1,0.9
		C607.15,384.9,606.85,385.7,606.85,386.6z"/>
	<path style="fill:#2FD28E;" d="M631.65,378.8v2h-6.7v3.3h6v1.9h-6v3.4h6.9v2h-9.1v-12.6L631.65,378.8L631.65,378.8z"/>
	<path style="fill:#2FD28E;" d="M635.05,390.2c-0.9-0.9-1.4-2.1-1.4-3.6s0.5-2.7,1.4-3.6s2-1.3,3.3-1.3s2.3,0.5,3.1,1.6V378h2v13.4
		h-2v-1.5c-0.7,1.1-1.8,1.6-3.3,1.6C636.95,391.5,635.95,391.1,635.05,390.2z M635.65,386.6c0,0.9,0.3,1.7,0.9,2.2
		c0.6,0.6,1.3,0.9,2.1,0.9s1.5-0.3,2-0.9c0.6-0.6,0.8-1.3,0.8-2.2s-0.3-1.7-0.8-2.3c-0.6-0.6-1.2-0.9-2-0.9s-1.5,0.3-2.1,0.9
		C635.95,384.9,635.65,385.7,635.65,386.6z"/>
	<path style="fill:#2FD28E;" d="M646.55,379.9c-0.3-0.3-0.4-0.6-0.4-0.9s0.1-0.6,0.4-0.9s0.6-0.4,0.9-0.4c0.3,0,0.6,0.1,0.9,0.4
		c0.3,0.3,0.4,0.6,0.4,0.9s-0.1,0.6-0.4,0.9c-0.3,0.3-0.6,0.4-0.9,0.4C647.05,380.3,646.75,380.1,646.55,379.9z M648.45,391.4h-2
		v-9.6h2V391.4z"/>
	<path style="fill:#2FD28E;" d="M653.85,383.4v4.9c0,0.5,0.1,0.8,0.4,1.1c0.2,0.3,0.6,0.4,1,0.4s0.8-0.2,1.2-0.6l0.8,1.4
		c-0.7,0.6-1.5,1-2.4,1s-1.6-0.3-2.2-0.9c-0.6-0.6-0.9-1.4-0.9-2.4v-4.8h-1.2v-1.6h1.2v-3h2v3h2.5v1.6h-2.4V383.4z"/>
	<path style="fill:#2FD28E;" d="M666.85,390.1c-1,1-2.2,1.4-3.6,1.4c-1.4,0-2.6-0.5-3.6-1.4c-1-1-1.4-2.1-1.4-3.5s0.5-2.5,1.4-3.5
		c1-1,2.2-1.4,3.6-1.4c1.4,0,2.6,0.5,3.6,1.4c1,1,1.4,2.1,1.4,3.5S667.75,389.1,666.85,390.1z M661.05,388.8
		c0.6,0.6,1.3,0.9,2.2,0.9s1.6-0.3,2.2-0.9c0.6-0.6,0.9-1.3,0.9-2.3s-0.3-1.7-0.9-2.3c-0.6-0.6-1.3-0.9-2.2-0.9s-1.6,0.3-2.2,0.9
		c-0.6,0.6-0.9,1.3-0.9,2.3S660.45,388.3,661.05,388.8z"/>
	<path style="fill:#2FD28E;" d="M675.55,383.7c-1,0-1.7,0.3-2.3,1c-0.5,0.6-0.8,1.5-0.8,2.6v4.1h-2v-9.6h2v1.9
		c0.3-0.6,0.8-1.1,1.3-1.5c0.6-0.4,1.2-0.6,1.8-0.6v2C675.65,383.7,675.65,383.7,675.55,383.7z"/>
</g>
<g id="Advanced_Editor-2" style="enable-background:new    ;">
	<path style="fill:#2FD28E;" d="M749.15,388.5l-1.3,2.9h-2.3l5.6-12.6h2.3l5.6,12.6h-2.3l-1.3-2.9H749.15z M754.55,386.6l-2.3-5.2
		l-2.3,5.2H754.55z"/>
	<path style="fill:#2FD28E;" d="M761.15,390.2c-0.9-0.9-1.4-2.1-1.4-3.6s0.5-2.7,1.4-3.6s2-1.3,3.3-1.3s2.3,0.5,3.1,1.6V378h2v13.4
		h-2v-1.5c-0.7,1.1-1.8,1.6-3.3,1.6C763.15,391.5,762.05,391.1,761.15,390.2z M761.85,386.6c0,0.9,0.3,1.7,0.9,2.2
		c0.6,0.6,1.3,0.9,2.1,0.9s1.5-0.3,2-0.9c0.6-0.6,0.8-1.3,0.8-2.2s-0.3-1.7-0.8-2.3c-0.6-0.6-1.2-0.9-2-0.9s-1.5,0.3-2.1,0.9
		C762.15,384.9,761.85,385.7,761.85,386.6z"/>
	<path style="fill:#2FD28E;" d="M775.05,391.4l-3.9-9.6h2.1l2.9,7.2l2.9-7.2h2.1l-3.9,9.6H775.05z"/>
	<path style="fill:#2FD28E;" d="M790.45,391.4h-1.8v-1.3c-0.8,0.9-1.9,1.4-3.2,1.4c-1,0-1.8-0.3-2.5-0.8c-0.7-0.6-1-1.3-1-2.3
		s0.3-1.6,1-2.1s1.6-0.7,2.8-0.7h2.6v-0.4c0-1.3-0.7-1.9-2.1-1.9c-0.9,0-1.8,0.3-2.8,1l-0.9-1.3c1.2-0.9,2.5-1.4,4-1.4
		c1.1,0,2.1,0.3,2.8,0.9s1.1,1.5,1.1,2.7L790.45,391.4L790.45,391.4z M788.45,387.8V387h-2.3c-1.5,0-2.2,0.5-2.2,1.4
		c0,0.5,0.2,0.8,0.5,1.1s0.9,0.4,1.5,0.4s1.2-0.2,1.7-0.5C788.25,388.9,788.45,388.4,788.45,387.8z"/>
	<path style="fill:#2FD28E;" d="M795.35,386.2v5.2h-2v-9.6h2v1.7c0.3-0.6,0.8-1.1,1.3-1.4c0.6-0.3,1.2-0.5,1.8-0.5
		c1.1,0,2,0.3,2.6,1c0.7,0.7,1,1.6,1,2.9v5.9h-2v-5.3c0-1.8-0.7-2.6-2.2-2.6c-0.7,0-1.3,0.2-1.8,0.7
		C795.55,384.6,795.35,385.3,795.35,386.2z"/>
	<path style="fill:#2FD28E;" d="M809.15,391.5c-1.3,0-2.5-0.5-3.4-1.4c-1-0.9-1.4-2.1-1.4-3.6s0.5-2.7,1.5-3.6s2.2-1.4,3.7-1.4
		c1.4,0,2.7,0.5,3.7,1.5l-1.2,1.5c-0.8-0.7-1.7-1.1-2.5-1.1s-1.6,0.3-2.2,0.8c-0.6,0.6-0.9,1.3-0.9,2.2s0.3,1.6,0.9,2.2
		c0.6,0.6,1.4,0.9,2.3,0.9c0.9,0,1.7-0.4,2.5-1.2l1.2,1.3C812.05,390.9,810.75,391.5,809.15,391.5z"/>
	<path style="fill:#2FD28E;" d="M824.25,387.5h-7.5c0,0.7,0.4,1.3,1,1.7c0.6,0.4,1.3,0.6,2,0.6c1.2,0,2.1-0.4,2.7-1.1l1.2,1.3
		c-1,1.1-2.4,1.6-4,1.6c-1.3,0-2.5-0.4-3.4-1.3s-1.4-2.1-1.4-3.6s0.5-2.7,1.4-3.6c1-0.9,2.1-1.3,3.4-1.3c1.3,0,2.4,0.4,3.3,1.2
		c0.9,0.8,1.4,1.9,1.4,3.3v1.2L824.25,387.5L824.25,387.5z M816.75,385.9h5.5c0-0.8-0.3-1.4-0.8-1.9s-1.1-0.6-1.9-0.6
		s-1.4,0.2-2,0.7C817.05,384.5,816.75,385.1,816.75,385.9z"/>
	<path style="fill:#2FD28E;" d="M827.15,390.2c-0.9-0.9-1.4-2.1-1.4-3.6s0.5-2.7,1.4-3.6s2-1.3,3.3-1.3s2.3,0.5,3.1,1.6V378h2v13.4
		h-2v-1.5c-0.7,1.1-1.8,1.6-3.3,1.6C829.15,391.5,828.05,391.1,827.15,390.2z M827.85,386.6c0,0.9,0.3,1.7,0.9,2.2
		c0.6,0.6,1.3,0.9,2.1,0.9s1.5-0.3,2-0.9c0.6-0.6,0.8-1.3,0.8-2.2s-0.3-1.7-0.8-2.3c-0.6-0.6-1.2-0.9-2-0.9s-1.5,0.3-2.1,0.9
		C828.15,384.9,827.85,385.7,827.85,386.6z"/>
	<path style="fill:#2FD28E;" d="M852.65,378.8v2h-6.7v3.3h6v1.9h-6v3.4h6.9v2h-9.1v-12.6L852.65,378.8L852.65,378.8z"/>
	<path style="fill:#2FD28E;" d="M856.05,390.2c-0.9-0.9-1.4-2.1-1.4-3.6s0.5-2.7,1.4-3.6s2-1.3,3.3-1.3s2.3,0.5,3.1,1.6V378h2v13.4
		h-2v-1.5c-0.7,1.1-1.8,1.6-3.3,1.6C857.95,391.5,856.95,391.1,856.05,390.2z M856.65,386.6c0,0.9,0.3,1.7,0.9,2.2
		c0.6,0.6,1.3,0.9,2.1,0.9s1.5-0.3,2-0.9c0.6-0.6,0.8-1.3,0.8-2.2s-0.3-1.7-0.8-2.3c-0.6-0.6-1.2-0.9-2-0.9s-1.5,0.3-2.1,0.9
		C856.95,384.9,856.65,385.7,856.65,386.6z"/>
	<path style="fill:#2FD28E;" d="M867.55,379.9c-0.3-0.3-0.4-0.6-0.4-0.9s0.1-0.6,0.4-0.9s0.6-0.4,0.9-0.4c0.3,0,0.6,0.1,0.9,0.4
		c0.3,0.3,0.4,0.6,0.4,0.9s-0.1,0.6-0.4,0.9c-0.3,0.3-0.6,0.4-0.9,0.4C868.05,380.3,867.75,380.1,867.55,379.9z M869.45,391.4h-2
		v-9.6h2V391.4z"/>
	<path style="fill:#2FD28E;" d="M874.85,383.4v4.9c0,0.5,0.1,0.8,0.4,1.1c0.2,0.3,0.6,0.4,1,0.4s0.8-0.2,1.2-0.6l0.8,1.4
		c-0.7,0.6-1.5,1-2.4,1s-1.6-0.3-2.2-0.9c-0.6-0.6-0.9-1.4-0.9-2.4v-4.8h-1.2v-1.6h1.2v-3h2v3h2.5v1.6h-2.4V383.4z"/>
	<path style="fill:#2FD28E;" d="M887.85,390.1c-1,1-2.2,1.4-3.6,1.4c-1.4,0-2.6-0.5-3.6-1.4c-1-1-1.4-2.1-1.4-3.5s0.5-2.5,1.4-3.5
		c1-1,2.2-1.4,3.6-1.4c1.4,0,2.6,0.5,3.6,1.4c1,1,1.4,2.1,1.4,3.5S888.75,389.1,887.85,390.1z M882.05,388.8
		c0.6,0.6,1.3,0.9,2.2,0.9s1.6-0.3,2.2-0.9c0.6-0.6,0.9-1.3,0.9-2.3s-0.3-1.7-0.9-2.3c-0.6-0.6-1.3-0.9-2.2-0.9s-1.6,0.3-2.2,0.9
		c-0.6,0.6-0.9,1.3-0.9,2.3S881.45,388.3,882.05,388.8z"/>
	<path style="fill:#2FD28E;" d="M896.55,383.7c-1,0-1.7,0.3-2.3,1c-0.5,0.6-0.8,1.5-0.8,2.6v4.1h-2v-9.6h2v1.9
		c0.3-0.6,0.8-1.1,1.3-1.5c0.6-0.4,1.2-0.6,1.8-0.6v2C896.65,383.7,896.65,383.7,896.55,383.7z"/>
</g>
<g id="JS_HTML5" style="enable-background:new    ;">
	<path style="fill:#2FD28E;" d="M747.75,404.7v-1.9h6.1v8.3c0,1.5-0.4,2.6-1.1,3.3s-1.7,1.1-2.9,1.1c-1.5,0-2.7-0.5-3.7-1.5l1.2-1.7
		c0.8,0.8,1.6,1.2,2.4,1.2c0.6,0,1-0.2,1.4-0.6s0.6-0.9,0.6-1.7v-6.5L747.75,404.7L747.75,404.7z"/>
	<path style="fill:#2FD28E;" d="M761.05,404.5c-0.6,0-1.1,0.1-1.5,0.4s-0.6,0.6-0.6,1.1s0.2,0.9,0.6,1.2c0.4,0.3,1.2,0.6,2.5,0.9
		s2.3,0.8,2.9,1.3c0.7,0.6,1,1.4,1,2.5s-0.4,2-1.2,2.7s-1.9,1-3.3,1c-2,0-3.7-0.7-5.2-2l1.3-1.6c1.3,1.1,2.6,1.7,4,1.7
		c0.7,0,1.2-0.1,1.6-0.4s0.6-0.7,0.6-1.2s-0.2-0.9-0.6-1.1c-0.4-0.3-1-0.5-2-0.7c-0.9-0.2-1.6-0.4-2.1-0.6s-0.9-0.4-1.3-0.7
		c-0.7-0.6-1.1-1.4-1.1-2.6s0.4-2.1,1.3-2.7s1.9-0.9,3.1-0.9c0.8,0,1.6,0.1,2.4,0.4c0.8,0.3,1.5,0.6,2.1,1.1l-1.1,1.6
		c-0.4-0.3-0.9-0.6-1.5-0.8C762.35,404.6,761.65,404.5,761.05,404.5z"/>
	<path style="fill:#2FD28E;" d="M776.95,415.5c-1.2,0-2.2-0.3-3-1s-1.2-1.6-1.2-2.7c0-1.4,1-2.6,3-3.6c-0.5-0.6-0.8-1-1-1.4
		s-0.3-0.8-0.3-1.4c0-1,0.4-1.7,1.1-2.2s1.5-0.8,2.5-0.8s1.8,0.2,2.5,0.7s1,1.2,1,2.1c0,1.2-1,2.3-2.9,3.4c1,1.2,1.7,2.1,2.3,2.7
		c0.4-0.6,0.7-1.2,0.9-1.9l1.5,1c-0.3,0.8-0.7,1.6-1.1,2.2c0.5,0.5,1.1,1.1,1.8,1.8l-1.4,1.3l-1.7-1.6
		C779.85,415.1,778.55,415.5,776.95,415.5z M775.35,413.3c0.5,0.3,1.1,0.5,1.8,0.5s1.6-0.3,2.4-1c-1.2-1.3-2.2-2.3-2.9-3.2
		c-1.4,0.7-2,1.5-2,2.4C774.65,412.5,774.95,412.9,775.35,413.3z M777.85,404.1c-0.4,0-0.8,0.1-1.1,0.4s-0.5,0.5-0.5,0.9
		c0,0.3,0.1,0.6,0.2,0.9c0.2,0.3,0.4,0.6,0.8,1.1c1.4-0.7,2-1.3,2-1.9c0-0.5-0.2-0.8-0.5-1.1
		C778.65,404.2,778.25,404.1,777.85,404.1z"/>
	<path style="fill:#2FD28E;" d="M791.05,415.4v-12.6h2.1v5.5h6.3v-5.5h2.1v12.6h-2.1v-5.1h-6.3v5.1H791.05z"/>
	<path style="fill:#2FD28E;" d="M809.75,404.8v10.6h-2.1v-10.6h-3.8v-1.9h9.8v1.9H809.75z"/>
	<path style="fill:#2FD28E;" d="M818.05,415.4h-2.1v-12.6h3.3l3.8,7.9l3.8-7.9h3.3v12.6h-2.1v-9.8l-4.4,8.7h-1.2l-4.4-8.7
		L818.05,415.4L818.05,415.4z"/>
	<path style="fill:#2FD28E;" d="M833.65,415.4v-12.6h2.1v10.6h5.7v2H833.65z"/>
	<path style="fill:#2FD28E;" d="M850.85,402.8v1.9h-5.3v3.1c0.5-0.3,1.1-0.4,1.8-0.4c1.2,0,2.2,0.4,3,1.1c0.9,0.7,1.3,1.7,1.3,2.9
		c0,1.2-0.4,2.2-1.3,3c-0.9,0.8-2,1.2-3.3,1.2c-1.7,0-3-0.6-4.1-1.7l1.1-1.5c0.1,0.1,0.2,0.2,0.4,0.3s0.5,0.3,1,0.5s1.1,0.3,1.7,0.3
		s1.1-0.2,1.6-0.5c0.5-0.4,0.7-0.9,0.7-1.6s-0.3-1.2-0.8-1.6s-1.2-0.6-2-0.6s-1.6,0.2-2.3,0.6l-0.9-1v-6L850.85,402.8L850.85,402.8z
		"/>
</g>
<path id="box_copy_53" style="fill:none;stroke:#2FD28E;" d="M724.05,365.4h206v60h-206V365.4z"/>
<path id="box_copy_54" style="fill:none;stroke:#2FD28E;" d="M957.05,365.4h134v60h-134V365.4z"/>
<g id="Canvas_app" style="enable-background:new    ;">
	<path style="fill:#2FD28E;" d="M979.05,388.5c0.7,0,1.4-0.1,1.9-0.4c0.5-0.2,1.1-0.6,1.7-1.2l1.4,1.4c-1.3,1.5-3,2.2-4.9,2.2
		s-3.5-0.6-4.7-1.8c-1.3-1.2-1.9-2.8-1.9-4.6s0.6-3.4,1.9-4.7c1.3-1.2,2.9-1.9,4.8-1.9c2,0,3.6,0.7,4.9,2.2l-1.4,1.5
		c-0.6-0.6-1.2-1-1.7-1.2s-1.2-0.3-1.9-0.3c-1.3,0-2.3,0.4-3.2,1.2c-0.9,0.8-1.3,1.9-1.3,3.2s0.4,2.3,1.3,3.2
		S977.95,388.5,979.05,388.5z"/>
	<path style="fill:#2FD28E;" d="M994.05,390.4h-1.8v-1.3c-0.8,0.9-1.9,1.4-3.2,1.4c-1,0-1.8-0.3-2.5-0.8c-0.7-0.6-1-1.3-1-2.3
		s0.3-1.6,1-2.1s1.6-0.7,2.8-0.7h2.6v-0.4c0-1.3-0.7-1.9-2.1-1.9c-0.9,0-1.8,0.3-2.8,1l-0.9-1.3c1.2-0.9,2.5-1.4,4-1.4
		c1.1,0,2.1,0.3,2.8,0.9s1.1,1.5,1.1,2.7L994.05,390.4L994.05,390.4z M992.05,386.8V386h-2.3c-1.5,0-2.2,0.5-2.2,1.4
		c0,0.5,0.2,0.8,0.5,1.1s0.9,0.4,1.5,0.4s1.2-0.2,1.7-0.5C991.85,387.9,992.05,387.4,992.05,386.8z"/>
	<path style="fill:#2FD28E;" d="M998.95,385.2v5.2h-2v-9.6h2v1.7c0.3-0.6,0.8-1.1,1.3-1.4c0.6-0.3,1.2-0.5,1.8-0.5
		c1.1,0,2,0.3,2.6,1c0.7,0.7,1,1.6,1,2.9v5.9h-2v-5.3c0-1.8-0.7-2.6-2.2-2.6c-0.7,0-1.3,0.2-1.8,0.7
		C999.15,383.6,998.95,384.3,998.95,385.2z"/>
	<path style="fill:#2FD28E;" d="M1010.95,390.4l-3.9-9.6h2.1l2.9,7.2l2.9-7.2h2.1l-3.9,9.6H1010.95z"/>
	<path style="fill:#2FD28E;" d="M1026.35,390.4h-1.8v-1.3c-0.8,0.9-1.9,1.4-3.2,1.4c-1,0-1.8-0.3-2.5-0.8c-0.7-0.6-1-1.3-1-2.3
		s0.3-1.6,1-2.1s1.6-0.7,2.8-0.7h2.6v-0.4c0-1.3-0.7-1.9-2.1-1.9c-0.9,0-1.8,0.3-2.8,1l-0.9-1.3c1.2-0.9,2.5-1.4,4-1.4
		c1.1,0,2.1,0.3,2.8,0.9c0.7,0.6,1.1,1.5,1.1,2.7L1026.35,390.4L1026.35,390.4z M1024.35,386.8V386h-2.3c-1.5,0-2.2,0.5-2.2,1.4
		c0,0.5,0.2,0.8,0.5,1.1s0.9,0.4,1.5,0.4s1.2-0.2,1.7-0.5C1024.15,387.9,1024.35,387.4,1024.35,386.8z"/>
	<path style="fill:#2FD28E;" d="M1036.05,387.5c0,0.9-0.3,1.6-1,2.2c-0.7,0.5-1.5,0.8-2.5,0.8c-0.7,0-1.4-0.1-2.2-0.4
		c-0.8-0.3-1.4-0.6-2-1.1l1-1.6c1.1,0.8,2.2,1.3,3.2,1.3c0.5,0,0.8-0.1,1.1-0.3c0.3-0.2,0.4-0.5,0.4-0.8c0-0.5-0.6-0.9-1.9-1.3
		c-0.1,0-0.2-0.1-0.2-0.1c-2-0.5-3-1.4-3-2.7c0-0.9,0.3-1.6,1-2.1s1.6-0.8,2.7-0.8s2.2,0.3,3.1,1l-0.8,1.5c-0.8-0.5-1.6-0.8-2.5-0.8
		c-0.5,0-0.9,0.1-1.2,0.3c-0.3,0.2-0.5,0.4-0.5,0.8c0,0.3,0.2,0.5,0.5,0.7c0.2,0.1,0.5,0.2,0.9,0.3c0.4,0.1,0.7,0.2,1,0.3
		c0.3,0.1,0.6,0.2,0.9,0.3c0.3,0.1,0.6,0.3,0.9,0.5C1035.65,385.9,1036.05,386.6,1036.05,387.5z"/>
	<path style="fill:#2FD28E;" d="M1051.05,390.4h-1.8v-1.3c-0.8,0.9-1.9,1.4-3.2,1.4c-1,0-1.8-0.3-2.5-0.8c-0.7-0.6-1-1.3-1-2.3
		s0.3-1.6,1-2.1s1.6-0.7,2.8-0.7h2.6v-0.4c0-1.3-0.7-1.9-2.1-1.9c-0.9,0-1.8,0.3-2.8,1l-0.9-1.3c1.2-0.9,2.5-1.4,4-1.4
		c1.1,0,2.1,0.3,2.8,0.9s1.1,1.5,1.1,2.7V390.4z M1048.95,386.8V386h-2.3c-1.5,0-2.2,0.5-2.2,1.4c0,0.5,0.2,0.8,0.5,1.1
		s0.9,0.4,1.5,0.4s1.2-0.2,1.7-0.5C1048.75,387.9,1048.95,387.4,1048.95,386.8z"/>
	<path style="fill:#2FD28E;" d="M1058.95,380.7c1.3,0,2.4,0.4,3.3,1.3s1.4,2.1,1.4,3.5c0,1.5-0.5,2.7-1.4,3.6s-2,1.4-3.2,1.4
		s-2.3-0.5-3.3-1.6v4.9h-2v-13.1h2v1.7C1056.65,381.3,1057.65,380.7,1058.95,380.7z M1055.85,385.6c0,0.9,0.3,1.7,0.8,2.2
		c0.6,0.6,1.2,0.9,2,0.9s1.5-0.3,2.1-0.9s0.9-1.3,0.9-2.2c0-0.9-0.3-1.7-0.9-2.3c-0.6-0.6-1.3-0.9-2.1-0.9s-1.5,0.3-2,0.9
		C1056.05,384,1055.85,384.7,1055.85,385.6z"/>
	<path style="fill:#2FD28E;" d="M1071.05,380.7c1.3,0,2.4,0.4,3.3,1.3s1.4,2.1,1.4,3.5c0,1.5-0.5,2.7-1.4,3.6s-2,1.4-3.2,1.4
		s-2.3-0.5-3.3-1.6v4.9h-2v-13.1h2v1.7C1068.75,381.3,1069.75,380.7,1071.05,380.7z M1067.95,385.6c0,0.9,0.3,1.7,0.8,2.2
		c0.6,0.6,1.2,0.9,2,0.9s1.5-0.3,2.1-0.9s0.9-1.3,0.9-2.2c0-0.9-0.3-1.7-0.9-2.3c-0.6-0.6-1.3-0.9-2.1-0.9s-1.5,0.3-2,0.9
		C1068.15,384,1067.95,384.7,1067.95,385.6z"/>
</g>
<g id="JS_HTML5-2" style="enable-background:new    ;">
	<path style="fill:#2FD28E;" d="M973.75,403.7v-1.9h6.1v8.3c0,1.5-0.4,2.6-1.1,3.3s-1.7,1.1-2.9,1.1c-1.5,0-2.7-0.5-3.7-1.5l1.2-1.7
		c0.8,0.8,1.6,1.2,2.4,1.2c0.6,0,1-0.2,1.4-0.6s0.6-0.9,0.6-1.7v-6.5L973.75,403.7L973.75,403.7z"/>
	<path style="fill:#2FD28E;" d="M987.05,403.5c-0.6,0-1.1,0.1-1.5,0.4s-0.6,0.6-0.6,1.1s0.2,0.9,0.6,1.2c0.4,0.3,1.2,0.6,2.5,0.9
		s2.3,0.8,2.9,1.3c0.7,0.6,1,1.4,1,2.5s-0.4,2-1.2,2.7s-1.9,1-3.3,1c-2,0-3.7-0.7-5.2-2l1.3-1.6c1.3,1.1,2.6,1.7,4,1.7
		c0.7,0,1.2-0.1,1.6-0.4c0.4-0.3,0.6-0.7,0.6-1.2s-0.2-0.9-0.6-1.1c-0.4-0.3-1-0.5-2-0.7c-0.9-0.2-1.6-0.4-2.1-0.6s-0.9-0.4-1.3-0.7
		c-0.7-0.6-1.1-1.4-1.1-2.6s0.4-2.1,1.3-2.7s1.9-0.9,3.1-0.9c0.8,0,1.6,0.1,2.4,0.4c0.8,0.3,1.5,0.6,2.1,1.1l-1.1,1.6
		c-0.4-0.3-0.9-0.6-1.5-0.8C988.35,403.6,987.65,403.5,987.05,403.5z"/>
	<path style="fill:#2FD28E;" d="M1002.95,414.5c-1.2,0-2.2-0.3-3-1s-1.2-1.6-1.2-2.7c0-1.4,1-2.6,3-3.6c-0.5-0.6-0.8-1-1-1.4
		s-0.3-0.8-0.3-1.4c0-1,0.4-1.7,1.1-2.2s1.5-0.8,2.5-0.8s1.8,0.2,2.5,0.7s1,1.2,1,2.1c0,1.2-1,2.3-2.9,3.4c1,1.2,1.7,2.1,2.3,2.7
		c0.4-0.6,0.7-1.2,0.9-1.9l1.5,1c-0.3,0.8-0.7,1.6-1.1,2.2c0.5,0.5,1.1,1.1,1.8,1.8l-1.4,1.3l-1.7-1.6
		C1005.85,414.1,1004.55,414.5,1002.95,414.5z M1001.35,412.3c0.5,0.3,1.1,0.5,1.8,0.5s1.6-0.3,2.4-1c-1.2-1.3-2.2-2.3-2.9-3.2
		c-1.4,0.7-2,1.5-2,2.4C1000.65,411.5,1000.95,411.9,1001.35,412.3z M1003.85,403.1c-0.4,0-0.8,0.1-1.1,0.4s-0.5,0.5-0.5,0.9
		c0,0.3,0.1,0.6,0.2,0.9c0.2,0.3,0.4,0.6,0.8,1.1c1.4-0.7,2-1.3,2-1.9c0-0.5-0.2-0.8-0.5-1.1
		C1004.65,403.2,1004.25,403.1,1003.85,403.1z"/>
	<path style="fill:#2FD28E;" d="M1017.05,414.4v-12.6h2.1v5.5h6.3v-5.5h2.1v12.6h-2.1v-5.1h-6.3v5.1H1017.05z"/>
	<path style="fill:#2FD28E;" d="M1035.75,403.8v10.6h-2.1v-10.6h-3.8v-1.9h9.8v1.9H1035.75z"/>
	<path style="fill:#2FD28E;" d="M1044.05,414.4h-2.1v-12.6h3.3l3.8,7.9l3.8-7.9h3.3v12.6h-2.1v-9.8l-4.4,8.7h-1.2l-4.4-8.7
		L1044.05,414.4L1044.05,414.4z"/>
	<path style="fill:#2FD28E;" d="M1059.65,414.4v-12.6h2.1v10.6h5.7v2H1059.65z"/>
	<path style="fill:#2FD28E;" d="M1076.85,401.8v1.9h-5.3v3.1c0.5-0.3,1.1-0.4,1.8-0.4c1.2,0,2.2,0.4,3,1.1c0.9,0.7,1.3,1.7,1.3,2.9
		s-0.4,2.2-1.3,3s-2,1.2-3.3,1.2c-1.7,0-3-0.6-4.1-1.7l1.1-1.5c0.1,0.1,0.2,0.2,0.4,0.3c0.2,0.1,0.5,0.3,1,0.5s1.1,0.3,1.7,0.3
		s1.1-0.2,1.6-0.5c0.5-0.4,0.7-0.9,0.7-1.6s-0.3-1.2-0.8-1.6s-1.2-0.6-2-0.6s-1.6,0.2-2.3,0.6l-0.9-1v-6L1076.85,401.8
		L1076.85,401.8z"/>
</g>
<path id="box_copy_55" style="fill:none;stroke:#2FD28E;" d="M1118.05,365.4h200v60h-200V365.4z"/>
<g id="Photo_copies_app" style="enable-background:new    ;">
	<path style="fill:#2FD28E;" d="M1148.85,378.9c0.9,0.7,1.3,1.9,1.3,3.4s-0.4,2.6-1.3,3.3c-0.9,0.7-2.3,1.1-4.1,1.1h-2.2v3.7h-2.1
		v-12.6h4.3C1146.55,377.8,1147.95,378.2,1148.85,378.9z M1147.35,384.1c0.4-0.5,0.6-1.1,0.6-2s-0.3-1.5-0.8-1.8
		c-0.5-0.4-1.4-0.5-2.5-0.5h-2.2v5h2.5C1146.15,384.8,1146.95,384.6,1147.35,384.1z"/>
	<path style="fill:#2FD28E;" d="M1154.35,385.2v5.2h-2v-13.3h2v5.5c0.3-0.6,0.7-1.1,1.3-1.4c0.6-0.3,1.2-0.5,1.9-0.5
		c1.1,0,2,0.3,2.6,1c0.7,0.7,1,1.6,1,2.9v5.9h-2v-5.3c0-1.8-0.7-2.6-2.2-2.6c-0.7,0-1.3,0.2-1.8,0.7
		C1154.65,383.6,1154.35,384.3,1154.35,385.2z"/>
	<path style="fill:#2FD28E;" d="M1172.05,389.1c-1,1-2.2,1.4-3.6,1.4s-2.6-0.5-3.6-1.4c-1-1-1.4-2.1-1.4-3.5s0.5-2.5,1.4-3.5
		c1-1,2.2-1.4,3.6-1.4s2.6,0.5,3.6,1.4c1,1,1.4,2.1,1.4,3.5S1172.95,388.2,1172.05,389.1z M1166.25,387.9c0.6,0.6,1.3,0.9,2.2,0.9
		s1.6-0.3,2.2-0.9s0.9-1.3,0.9-2.3s-0.3-1.7-0.9-2.3c-0.6-0.6-1.3-0.9-2.2-0.9s-1.6,0.3-2.2,0.9s-0.9,1.3-0.9,2.3
		S1165.65,387.3,1166.25,387.9z"/>
	<path style="fill:#2FD28E;" d="M1178.15,382.4v4.9c0,0.5,0.1,0.8,0.4,1.1c0.2,0.3,0.6,0.4,1,0.4s0.8-0.2,1.2-0.6l0.8,1.4
		c-0.7,0.6-1.5,1-2.4,1s-1.6-0.3-2.2-0.9s-0.9-1.4-0.9-2.4v-4.8h-1.2v-1.6h1.2v-3h2v3h2.5v1.6h-2.4V382.4z"/>
	<path style="fill:#2FD28E;" d="M1191.15,389.1c-1,1-2.2,1.4-3.6,1.4s-2.6-0.5-3.6-1.4c-1-1-1.4-2.1-1.4-3.5s0.5-2.5,1.4-3.5
		c1-1,2.2-1.4,3.6-1.4s2.6,0.5,3.6,1.4c1,1,1.4,2.1,1.4,3.5S1192.05,388.2,1191.15,389.1z M1185.35,387.9c0.6,0.6,1.3,0.9,2.2,0.9
		s1.6-0.3,2.2-0.9s0.9-1.3,0.9-2.3s-0.3-1.7-0.9-2.3c-0.6-0.6-1.3-0.9-2.2-0.9s-1.6,0.3-2.2,0.9s-0.9,1.3-0.9,2.3
		S1184.75,387.3,1185.35,387.9z"/>
	<path style="fill:#2FD28E;" d="M1204.05,390.5c-1.3,0-2.5-0.5-3.4-1.4c-1-0.9-1.4-2.1-1.4-3.6s0.5-2.7,1.5-3.6s2.2-1.4,3.7-1.4
		c1.4,0,2.7,0.5,3.7,1.5l-1.2,1.5c-0.8-0.7-1.7-1.1-2.5-1.1s-1.6,0.3-2.2,0.8c-0.6,0.6-0.9,1.3-0.9,2.2s0.3,1.6,0.9,2.2
		s1.4,0.9,2.3,0.9s1.7-0.4,2.5-1.2l1.2,1.3C1206.85,390,1205.55,390.5,1204.05,390.5z"/>
	<path style="fill:#2FD28E;" d="M1217.95,389.1c-1,1-2.2,1.4-3.6,1.4s-2.6-0.5-3.6-1.4c-1-1-1.4-2.1-1.4-3.5s0.5-2.5,1.4-3.5
		c1-1,2.2-1.4,3.6-1.4s2.6,0.5,3.6,1.4c1,1,1.4,2.1,1.4,3.5S1218.95,388.2,1217.95,389.1z M1212.15,387.9c0.6,0.6,1.3,0.9,2.2,0.9
		s1.6-0.3,2.2-0.9s0.9-1.3,0.9-2.3s-0.3-1.7-0.9-2.3c-0.6-0.6-1.3-0.9-2.2-0.9s-1.6,0.3-2.2,0.9s-0.9,1.3-0.9,2.3
		S1211.65,387.3,1212.15,387.9z"/>
	<path style="fill:#2FD28E;" d="M1226.85,380.7c1.3,0,2.4,0.4,3.3,1.3s1.4,2.1,1.4,3.5c0,1.5-0.5,2.7-1.4,3.6s-2,1.4-3.2,1.4
		s-2.3-0.5-3.3-1.6v4.9h-2v-13.1h2v1.7C1224.55,381.3,1225.55,380.7,1226.85,380.7z M1223.65,385.6c0,0.9,0.3,1.7,0.8,2.2
		c0.6,0.6,1.2,0.9,2,0.9s1.5-0.3,2.1-0.9s0.9-1.3,0.9-2.2c0-0.9-0.3-1.7-0.9-2.3c-0.6-0.6-1.3-0.9-2.1-0.9s-1.5,0.3-2,0.9
		C1223.95,384,1223.65,384.7,1223.65,385.6z"/>
	<path style="fill:#2FD28E;" d="M1233.95,378.9c-0.3-0.3-0.4-0.6-0.4-0.9s0.1-0.6,0.4-0.9s0.6-0.4,0.9-0.4s0.6,0.1,0.9,0.4
		s0.4,0.6,0.4,0.9s-0.1,0.6-0.4,0.9s-0.6,0.4-0.9,0.4C1234.45,379.3,1234.15,379.2,1233.95,378.9z M1235.85,390.4h-2v-9.6h2V390.4z"
		/>
	<path style="fill:#2FD28E;" d="M1247.65,386.5h-7.5c0,0.7,0.4,1.3,1,1.7c0.6,0.4,1.3,0.6,2,0.6c1.2,0,2.1-0.4,2.7-1.1l1.2,1.3
		c-1,1.1-2.4,1.6-4,1.6c-1.3,0-2.5-0.4-3.4-1.3s-1.4-2.1-1.4-3.6s0.5-2.7,1.4-3.6c1-0.9,2.1-1.3,3.4-1.3s2.4,0.4,3.3,1.2
		c0.9,0.8,1.4,1.9,1.4,3.3L1247.65,386.5L1247.65,386.5z M1240.15,384.9h5.5c0-0.8-0.3-1.4-0.8-1.9s-1.1-0.6-1.9-0.6s-1.4,0.2-2,0.7
		C1240.45,383.5,1240.15,384.1,1240.15,384.9z"/>
	<path style="fill:#2FD28E;" d="M1256.75,387.5c0,0.9-0.3,1.6-1,2.2c-0.7,0.5-1.5,0.8-2.5,0.8c-0.7,0-1.4-0.1-2.2-0.4
		c-0.8-0.3-1.4-0.6-2-1.1l1-1.6c1.1,0.8,2.2,1.3,3.2,1.3c0.5,0,0.8-0.1,1.1-0.3c0.3-0.2,0.4-0.5,0.4-0.8c0-0.5-0.6-0.9-1.9-1.3
		c-0.1,0-0.2-0.1-0.2-0.1c-2-0.5-3-1.4-3-2.7c0-0.9,0.3-1.6,1-2.1s1.6-0.8,2.7-0.8s2.2,0.3,3.1,1l-0.8,1.5c-0.8-0.5-1.6-0.8-2.5-0.8
		c-0.5,0-0.9,0.1-1.2,0.3c-0.3,0.2-0.5,0.4-0.5,0.8c0,0.3,0.2,0.5,0.5,0.7c0.2,0.1,0.5,0.2,0.9,0.3c0.4,0.1,0.7,0.2,1,0.3
		c0.3,0.1,0.6,0.2,0.9,0.3c0.3,0.1,0.6,0.3,0.9,0.5C1256.35,385.9,1256.75,386.6,1256.75,387.5z"/>
	<path style="fill:#2FD28E;" d="M1271.75,390.4h-1.8v-1.3c-0.8,0.9-1.9,1.4-3.2,1.4c-1,0-1.8-0.3-2.5-0.8c-0.7-0.6-1-1.3-1-2.3
		s0.3-1.6,1-2.1s1.6-0.7,2.8-0.7h2.6v-0.4c0-1.3-0.7-1.9-2.1-1.9c-0.9,0-1.8,0.3-2.8,1l-0.9-1.3c1.2-0.9,2.5-1.4,4-1.4
		c1.1,0,2.1,0.3,2.8,0.9s1.1,1.5,1.1,2.7V390.4z M1269.65,386.8V386h-2.3c-1.5,0-2.2,0.5-2.2,1.4c0,0.5,0.2,0.8,0.5,1.1
		s0.9,0.4,1.5,0.4s1.2-0.2,1.7-0.5C1269.45,387.9,1269.65,387.4,1269.65,386.8z"/>
	<path style="fill:#2FD28E;" d="M1279.65,380.7c1.3,0,2.4,0.4,3.3,1.3s1.4,2.1,1.4,3.5c0,1.5-0.5,2.7-1.4,3.6s-2,1.4-3.2,1.4
		s-2.3-0.5-3.3-1.6v4.9h-2v-13.1h2v1.7C1277.35,381.3,1278.35,380.7,1279.65,380.7z M1276.55,385.6c0,0.9,0.3,1.7,0.8,2.2
		c0.6,0.6,1.2,0.9,2,0.9s1.5-0.3,2.1-0.9s0.9-1.3,0.9-2.2c0-0.9-0.3-1.7-0.9-2.3c-0.6-0.6-1.3-0.9-2.1-0.9s-1.5,0.3-2,0.9
		C1276.75,384,1276.55,384.7,1276.55,385.6z"/>
	<path style="fill:#2FD28E;" d="M1291.75,380.7c1.3,0,2.4,0.4,3.3,1.3s1.4,2.1,1.4,3.5c0,1.5-0.5,2.7-1.4,3.6s-2,1.4-3.2,1.4
		s-2.3-0.5-3.3-1.6v4.9h-2v-13.1h2v1.7C1289.45,381.3,1290.45,380.7,1291.75,380.7z M1288.65,385.6c0,0.9,0.3,1.7,0.8,2.2
		c0.6,0.6,1.2,0.9,2,0.9s1.5-0.3,2.1-0.9s0.9-1.3,0.9-2.2c0-0.9-0.3-1.7-0.9-2.3c-0.6-0.6-1.3-0.9-2.1-0.9s-1.5,0.3-2,0.9
		C1288.85,384,1288.65,384.7,1288.65,385.6z"/>
</g>
<g id="JS_HTML5-3" style="enable-background:new    ;">
	<path style="fill:#2FD28E;" d="M1140.75,403.7v-1.9h6.1v8.3c0,1.5-0.4,2.6-1.1,3.3s-1.7,1.1-2.9,1.1c-1.5,0-2.7-0.5-3.7-1.5
		l1.2-1.7c0.8,0.8,1.6,1.2,2.4,1.2c0.6,0,1-0.2,1.4-0.6s0.6-0.9,0.6-1.7v-6.5L1140.75,403.7L1140.75,403.7z"/>
	<path style="fill:#2FD28E;" d="M1154.05,403.5c-0.6,0-1.1,0.1-1.5,0.4s-0.6,0.6-0.6,1.1s0.2,0.9,0.6,1.2c0.4,0.3,1.2,0.6,2.5,0.9
		s2.3,0.8,2.9,1.3c0.7,0.6,1,1.4,1,2.5s-0.4,2-1.2,2.7c-0.8,0.7-1.9,1-3.3,1c-2,0-3.7-0.7-5.2-2l1.3-1.6c1.3,1.1,2.6,1.7,4,1.7
		c0.7,0,1.2-0.1,1.6-0.4s0.6-0.7,0.6-1.2s-0.2-0.9-0.6-1.1c-0.4-0.3-1-0.5-2-0.7c-0.9-0.2-1.6-0.4-2.1-0.6s-0.9-0.4-1.3-0.7
		c-0.7-0.6-1.1-1.4-1.1-2.6s0.4-2.1,1.3-2.7s1.9-0.9,3.1-0.9c0.8,0,1.6,0.1,2.4,0.4s1.5,0.6,2.1,1.1l-1.1,1.6
		c-0.4-0.3-0.9-0.6-1.5-0.8C1155.35,403.6,1154.65,403.5,1154.05,403.5z"/>
	<path style="fill:#2FD28E;" d="M1169.95,414.5c-1.2,0-2.2-0.3-3-1s-1.2-1.6-1.2-2.7c0-1.4,1-2.6,3-3.6c-0.5-0.6-0.8-1-1-1.4
		s-0.3-0.8-0.3-1.4c0-1,0.4-1.7,1.1-2.2s1.5-0.8,2.5-0.8s1.8,0.2,2.5,0.7s1,1.2,1,2.1c0,1.2-1,2.3-2.9,3.4c1,1.2,1.7,2.1,2.3,2.7
		c0.4-0.6,0.7-1.2,0.9-1.9l1.5,1c-0.3,0.8-0.7,1.6-1.1,2.2c0.5,0.5,1.1,1.1,1.8,1.8l-1.4,1.3l-1.7-1.6
		C1172.85,414.1,1171.55,414.5,1169.95,414.5z M1168.35,412.3c0.5,0.3,1.1,0.5,1.8,0.5s1.6-0.3,2.4-1c-1.2-1.3-2.2-2.3-2.9-3.2
		c-1.4,0.7-2,1.5-2,2.4C1167.65,411.5,1167.95,411.9,1168.35,412.3z M1170.85,403.1c-0.4,0-0.8,0.1-1.1,0.4
		c-0.3,0.3-0.5,0.5-0.5,0.9c0,0.3,0.1,0.6,0.2,0.9c0.2,0.3,0.4,0.6,0.8,1.1c1.4-0.7,2-1.3,2-1.9c0-0.5-0.2-0.8-0.5-1.1
		C1171.65,403.2,1171.25,403.1,1170.85,403.1z"/>
	<path style="fill:#2FD28E;" d="M1184.05,414.4v-12.6h2.1v5.5h6.3v-5.5h2.1v12.6h-2.1v-5.1h-6.3v5.1H1184.05z"/>
	<path style="fill:#2FD28E;" d="M1202.75,403.8v10.6h-2.1v-10.6h-3.8v-1.9h9.8v1.9H1202.75z"/>
	<path style="fill:#2FD28E;" d="M1211.05,414.4h-2.1v-12.6h3.3l3.8,7.9l3.8-7.9h3.3v12.6h-2.1v-9.8l-4.4,8.7h-1.2l-4.4-8.7
		L1211.05,414.4L1211.05,414.4z"/>
	<path style="fill:#2FD28E;" d="M1226.65,414.4v-12.6h2.1v10.6h5.7v2H1226.65z"/>
	<path style="fill:#2FD28E;" d="M1243.85,401.8v1.9h-5.3v3.1c0.5-0.3,1.1-0.4,1.8-0.4c1.2,0,2.2,0.4,3,1.1c0.9,0.7,1.3,1.7,1.3,2.9
		s-0.4,2.2-1.3,3s-2,1.2-3.3,1.2c-1.7,0-3-0.6-4.1-1.7l1.1-1.5c0.1,0.1,0.2,0.2,0.4,0.3c0.2,0.1,0.5,0.3,1,0.5s1.1,0.3,1.7,0.3
		s1.1-0.2,1.6-0.5c0.5-0.4,0.7-0.9,0.7-1.6s-0.3-1.2-0.8-1.6s-1.2-0.6-2-0.6s-1.6,0.2-2.3,0.6l-0.9-1v-6L1243.85,401.8
		L1243.85,401.8z"/>
</g>
<path style="fill:none;stroke:#2FD28E;" d="M248.05,364.4v-28h969v28"/>
<path style="fill:none;stroke:#2FD28E;" d="M750.05,337.4v-64"/>
<path id="Rectangle_7_copy" style="fill:none;stroke:#2FD28E;" d="M827.05,365.4v-28"/>
<path id="Rectangle_7_copy_2" style="fill:none;stroke:#2FD28E;" d="M1024.05,365.4v-28"/>
<path id="Rectangle_7_copy_5" style="fill:none;stroke:#2FD28E;" d="M600.05,365.4v-28"/>
<path id="Rectangle_7_copy_6" style="fill:none;stroke:#2FD28E;" d="M409.05,365.4v-28"/>
<path id="Rectangle_6_copy" style="fill:none;stroke:#2FD28E;" d="M88.05,182.4v-28h1322v28"/>
<path id="Rectangle_7_copy_7" style="fill:none;stroke:#2FD28E;" d="M751.05,155.4v-49"/>
<path id="Rectangle_7_copy_7-2" style="fill:none;stroke:#2FD28E;" d="M751.05,183.4v-28"/>
<path id="Rectangle_7_copy_7-3" style="fill:none;stroke:#2FD28E;" d="M1082.05,183.4v-28"/>
<path id="Rectangle_7_copy_7-4" style="fill:none;stroke:#2FD28E;" d="M419.05,183.4v-28"/>
<rect id="box_copy_48" x="995.05" y="183.4" style="fill:none;stroke:#2FD28E;" width="174" height="90"/>
<g id="Backend" style="enable-background:new    ;">
	<path style="fill:#2FD28E;" d="M1049.85,235.4h-5.5v-12.6h4.9c0.9,0,1.6,0.1,2.2,0.3s1.1,0.5,1.4,0.8c0.6,0.6,0.9,1.4,0.9,2.2
		c0,1-0.3,1.7-0.9,2.2c-0.2,0.2-0.4,0.3-0.5,0.3s-0.2,0.1-0.5,0.2c0.8,0.2,1.4,0.5,1.9,1.1c0.5,0.5,0.7,1.2,0.7,2
		c0,0.9-0.3,1.7-0.9,2.3C1052.75,235,1051.55,235.4,1049.85,235.4z M1046.45,228h2.7c1.5,0,2.3-0.5,2.3-1.6c0-0.6-0.2-1-0.6-1.3
		s-0.9-0.4-1.7-0.4h-2.7L1046.45,228L1046.45,228z M1046.45,233.4h3.3c0.8,0,1.4-0.1,1.8-0.4c0.4-0.2,0.6-0.7,0.6-1.4
		c0-1.1-0.9-1.7-2.7-1.7h-3.1L1046.45,233.4L1046.45,233.4z"/>
	<path style="fill:#2FD28E;" d="M1064.55,235.4h-1.8v-1.3c-0.8,0.9-1.9,1.4-3.2,1.4c-1,0-1.8-0.3-2.5-0.8c-0.7-0.6-1-1.3-1-2.3
		s0.3-1.6,1-2.1s1.6-0.7,2.8-0.7h2.6v-0.4c0-1.3-0.7-1.9-2.1-1.9c-0.9,0-1.8,0.3-2.8,1l-0.9-1.3c1.2-0.9,2.5-1.4,4-1.4
		c1.1,0,2.1,0.3,2.8,0.9s1.1,1.5,1.1,2.7V235.4z M1062.55,231.8V231h-2.3c-1.5,0-2.2,0.5-2.2,1.4c0,0.5,0.2,0.8,0.5,1.1
		s0.9,0.4,1.5,0.4s1.2-0.2,1.7-0.5C1062.25,232.9,1062.55,232.4,1062.55,231.8z"/>
	<path style="fill:#2FD28E;" d="M1071.65,235.5c-1.3,0-2.5-0.5-3.4-1.4c-1-0.9-1.4-2.1-1.4-3.6s0.5-2.7,1.5-3.6
		c1-0.9,2.2-1.4,3.7-1.4c1.4,0,2.7,0.5,3.7,1.5l-1.2,1.5c-0.8-0.7-1.7-1.1-2.5-1.1s-1.6,0.3-2.2,0.8c-0.6,0.6-0.9,1.3-0.9,2.2
		s0.3,1.6,0.9,2.2c0.6,0.6,1.4,0.9,2.3,0.9s1.7-0.4,2.5-1.2l1.2,1.3C1074.45,234.9,1073.15,235.5,1071.65,235.5z"/>
	<path style="fill:#2FD28E;" d="M1079.75,235.4h-2V222h2v7.9l3.9-4.1h2.6l-3.6,3.8l3.9,5.8h-2.5l-2.8-4.2l-1.5,1.5V235.4z"/>
	<path style="fill:#2FD28E;" d="M1097.15,231.5h-7.5c0,0.7,0.4,1.3,1,1.7s1.3,0.6,2,0.6c1.2,0,2.1-0.4,2.7-1.1l1.2,1.3
		c-1,1.1-2.4,1.6-4,1.6c-1.3,0-2.5-0.4-3.4-1.3s-1.4-2.1-1.4-3.6s0.5-2.7,1.4-3.6c1-0.9,2.1-1.3,3.4-1.3s2.4,0.4,3.3,1.2
		s1.4,1.9,1.4,3.3L1097.15,231.5L1097.15,231.5z M1089.65,229.9h5.5c0-0.8-0.3-1.4-0.8-1.9s-1.1-0.6-1.9-0.6s-1.4,0.2-2,0.7
		C1089.85,228.5,1089.65,229.1,1089.65,229.9z"/>
	<path style="fill:#2FD28E;" d="M1101.35,230.2v5.2h-2v-9.6h2v1.7c0.3-0.6,0.8-1.1,1.3-1.4c0.6-0.3,1.2-0.5,1.8-0.5
		c1.1,0,2,0.3,2.6,1c0.7,0.7,1,1.6,1,2.9v5.9h-2v-5.3c0-1.8-0.7-2.6-2.2-2.6c-0.7,0-1.3,0.2-1.8,0.7
		C1101.65,228.6,1101.35,229.3,1101.35,230.2z"/>
	<path style="fill:#2FD28E;" d="M1111.75,234.2c-0.9-0.9-1.4-2.1-1.4-3.6s0.5-2.7,1.4-3.6c0.9-0.9,2-1.3,3.3-1.3s2.3,0.5,3.1,1.6
		V222h2v13.4h-2v-1.5c-0.7,1.1-1.8,1.6-3.3,1.6C1113.65,235.5,1112.65,235.1,1111.75,234.2z M1112.35,230.6c0,0.9,0.3,1.7,0.9,2.2
		c0.6,0.6,1.3,0.9,2.1,0.9s1.5-0.3,2-0.9c0.6-0.6,0.8-1.3,0.8-2.2s-0.3-1.7-0.8-2.3c-0.6-0.6-1.2-0.9-2-0.9s-1.5,0.3-2.1,0.9
		C1112.65,229,1112.35,229.7,1112.35,230.6z"/>
</g>
<rect id="box_copy_49" x="1326.05" y="183.4" style="fill:none;stroke:#2FD28E;" width="174" height="90"/>
<g id="module" style="enable-background:new    ;">
	<path style="fill:#2FD28E;" d="M41.05,243.2v5.2h-2v-9.6h2v1.7c0.3-0.6,0.7-1.1,1.3-1.4c0.6-0.3,1.2-0.5,1.9-0.5
		c1.5,0,2.5,0.6,3.1,1.9c0.9-1.2,2.1-1.9,3.6-1.9c1.1,0,2,0.3,2.6,1c0.7,0.7,1,1.6,1,2.9v5.9h-2v-5.3c0-1.8-0.7-2.6-2.2-2.6
		c-0.7,0-1.3,0.2-1.8,0.7c-0.5,0.4-0.8,1.1-0.8,1.9v5.3h-2v-5.3c0-0.9-0.2-1.6-0.5-2s-0.8-0.6-1.5-0.6s-1.3,0.2-1.8,0.7
		C41.35,241.6,41.05,242.3,41.05,243.2z"/>
	<path style="fill:#2FD28E;" d="M65.35,247.1c-1,1-2.2,1.4-3.6,1.4c-1.4,0-2.6-0.5-3.6-1.4c-1-1-1.4-2.1-1.4-3.5s0.5-2.5,1.4-3.5
		c1-1,2.2-1.4,3.6-1.4c1.4,0,2.6,0.5,3.6,1.4c1,1,1.4,2.1,1.4,3.5S66.35,246.1,65.35,247.1z M59.55,245.9c0.6,0.6,1.3,0.9,2.2,0.9
		s1.6-0.3,2.2-0.9c0.6-0.6,0.9-1.3,0.9-2.3s-0.3-1.7-0.9-2.3c-0.6-0.6-1.3-0.9-2.2-0.9s-1.6,0.3-2.2,0.9c-0.6,0.6-0.9,1.3-0.9,2.3
		S58.95,245.3,59.55,245.9z"/>
	<path style="fill:#2FD28E;" d="M69.85,247.2c-0.9-0.9-1.4-2.1-1.4-3.6s0.5-2.7,1.4-3.6c0.9-0.9,2-1.3,3.3-1.3s2.3,0.5,3.1,1.6V235
		h2v13.4h-2v-1.5c-0.7,1.1-1.8,1.6-3.3,1.6C71.75,248.5,70.75,248.1,69.85,247.2z M70.45,243.6c0,0.9,0.3,1.7,0.9,2.2
		s1.3,0.9,2.1,0.9s1.5-0.3,2-0.9c0.6-0.6,0.8-1.3,0.8-2.2s-0.3-1.7-0.8-2.3c-0.6-0.6-1.2-0.9-2-0.9s-1.5,0.3-2.1,0.9
		C70.75,242,70.45,242.7,70.45,243.6z"/>
	<path style="fill:#2FD28E;" d="M87.85,244v-5.2h2v9.6h-2v-1.7c-0.3,0.6-0.8,1.1-1.3,1.4c-0.6,0.3-1.2,0.5-1.8,0.5
		c-1.1,0-2-0.3-2.6-1c-0.7-0.7-1-1.6-1-2.9v-5.9h2v5.3c0,1.8,0.7,2.6,2.2,2.6c0.7,0,1.3-0.2,1.8-0.7
		C87.65,245.6,87.85,244.9,87.85,244z"/>
	<path style="fill:#2FD28E;" d="M94.85,248.4h-2V235h2V248.4z"/>
	<path style="fill:#2FD28E;" d="M106.65,244.5h-7.5c0,0.7,0.4,1.3,1,1.7s1.3,0.6,2,0.6c1.2,0,2.1-0.4,2.7-1.1l1.2,1.3
		c-1,1.1-2.4,1.6-4,1.6c-1.3,0-2.5-0.4-3.4-1.3s-1.4-2.1-1.4-3.6s0.5-2.7,1.4-3.6c1-0.9,2.1-1.3,3.4-1.3s2.4,0.4,3.3,1.2
		s1.4,1.9,1.4,3.3L106.65,244.5L106.65,244.5z M99.15,242.9h5.5c0-0.8-0.3-1.4-0.8-1.9c-0.5-0.4-1.1-0.6-1.9-0.6s-1.4,0.2-2,0.7
		S99.15,242.1,99.15,242.9z"/>
</g>
<g id="Production" style="enable-background:new    ;">
	<path style="fill:#2FD28E;" d="M47.85,213.9c0.9,0.7,1.3,1.9,1.3,3.4s-0.4,2.6-1.3,3.3c-0.9,0.7-2.3,1.1-4.1,1.1h-2.2v3.7h-2.1
		v-12.6h4.3C45.55,212.8,46.95,213.2,47.85,213.9z M46.35,219.1c0.4-0.5,0.6-1.1,0.6-2s-0.3-1.5-0.8-1.8c-0.5-0.4-1.4-0.5-2.5-0.5
		h-2.2v5h2.5C45.15,219.8,45.95,219.5,46.35,219.1z"/>
	<path style="fill:#2FD28E;" d="M56.45,217.7c-1,0-1.7,0.3-2.3,1c-0.5,0.6-0.8,1.5-0.8,2.6v4.1h-2v-9.6h2v1.9
		c0.3-0.6,0.8-1.1,1.3-1.5c0.6-0.4,1.1-0.6,1.8-0.6v2C56.45,217.7,56.45,217.7,56.45,217.7z"/>
	<path style="fill:#2FD28E;" d="M66.35,224.1c-1,1-2.2,1.4-3.6,1.4c-1.4,0-2.6-0.5-3.6-1.4c-1-1-1.4-2.1-1.4-3.5s0.5-2.5,1.4-3.5
		c1-1,2.2-1.4,3.6-1.4c1.4,0,2.6,0.5,3.6,1.4c1,1,1.4,2.1,1.4,3.5S67.35,223.2,66.35,224.1z M60.55,222.9c0.6,0.6,1.3,0.9,2.2,0.9
		s1.6-0.3,2.2-0.9c0.6-0.6,0.9-1.3,0.9-2.3s-0.3-1.7-0.9-2.3s-1.3-0.9-2.2-0.9s-1.6,0.3-2.2,0.9c-0.6,0.6-0.9,1.3-0.9,2.3
		S60.05,222.3,60.55,222.9z"/>
	<path style="fill:#2FD28E;" d="M70.85,224.2c-0.9-0.9-1.4-2.1-1.4-3.6s0.5-2.7,1.4-3.6c0.9-0.9,2-1.3,3.3-1.3s2.3,0.5,3.1,1.6V212
		h2v13.4h-2V224c-0.7,1.1-1.8,1.6-3.3,1.6C72.75,225.5,71.75,225.1,70.85,224.2z M71.55,220.6c0,0.9,0.3,1.7,0.9,2.2
		s1.3,0.9,2.1,0.9s1.5-0.3,2-0.9c0.6-0.6,0.8-1.3,0.8-2.2s-0.3-1.7-0.8-2.3c-0.6-0.6-1.2-0.9-2-0.9s-1.5,0.3-2.1,0.9
		C71.75,219,71.55,219.7,71.55,220.6z"/>
	<path style="fill:#2FD28E;" d="M88.95,221v-5.2h2v9.6h-2v-1.7c-0.3,0.6-0.8,1.1-1.3,1.4c-0.6,0.3-1.2,0.5-1.8,0.5
		c-1.1,0-2-0.3-2.6-1c-0.7-0.7-1-1.6-1-2.9v-5.9h2v5.3c0,1.8,0.7,2.6,2.2,2.6c0.7,0,1.3-0.2,1.8-0.7
		C88.65,222.6,88.95,221.9,88.95,221z"/>
	<path style="fill:#2FD28E;" d="M98.15,225.5c-1.3,0-2.5-0.5-3.4-1.4c-1-0.9-1.4-2.1-1.4-3.6s0.5-2.7,1.5-3.6c1-0.9,2.2-1.4,3.7-1.4
		s2.7,0.5,3.7,1.5l-1.2,1.5c-0.8-0.7-1.7-1.1-2.5-1.1s-1.6,0.3-2.2,0.8c-0.6,0.6-0.9,1.3-0.9,2.2s0.3,1.6,0.9,2.2s1.4,0.9,2.3,0.9
		s1.7-0.4,2.5-1.2l1.2,1.3C100.95,224.9,99.65,225.5,98.15,225.5z"/>
	<path style="fill:#2FD28E;" d="M106.75,217.4v4.9c0,0.5,0.1,0.8,0.4,1.1c0.2,0.3,0.6,0.4,1,0.4s0.8-0.2,1.2-0.6l0.8,1.4
		c-0.7,0.6-1.5,1-2.4,1s-1.6-0.3-2.2-0.9c-0.6-0.6-0.9-1.4-0.9-2.4v-4.8h-1.2v-1.6h1.2v-3h2v3h2.5v1.6L106.75,217.4L106.75,217.4z"
		/>
	<path style="fill:#2FD28E;" d="M111.85,213.9c-0.3-0.3-0.4-0.6-0.4-0.9s0.1-0.6,0.4-0.9s0.6-0.4,0.9-0.4s0.6,0.1,0.9,0.4
		s0.4,0.6,0.4,0.9s-0.1,0.6-0.4,0.9c-0.3,0.3-0.6,0.4-0.9,0.4S112.15,214.2,111.85,213.9z M113.75,225.4h-2v-9.6h2V225.4z"/>
	<path style="fill:#2FD28E;" d="M124.75,224.1c-1,1-2.2,1.4-3.6,1.4s-2.6-0.5-3.6-1.4c-1-1-1.4-2.1-1.4-3.5s0.5-2.5,1.4-3.5
		c1-1,2.2-1.4,3.6-1.4s2.6,0.5,3.6,1.4c1,1,1.4,2.1,1.4,3.5S125.65,223.2,124.75,224.1z M118.95,222.9c0.6,0.6,1.3,0.9,2.2,0.9
		c0.9,0,1.6-0.3,2.2-0.9c0.6-0.6,0.9-1.3,0.9-2.3s-0.3-1.7-0.9-2.3s-1.3-0.9-2.2-0.9c-0.9,0-1.6,0.3-2.2,0.9
		c-0.6,0.6-0.9,1.3-0.9,2.3S118.35,222.3,118.95,222.9z"/>
	<path style="fill:#2FD28E;" d="M130.45,220.2v5.2h-2v-9.6h2v1.7c0.3-0.6,0.8-1.1,1.3-1.4s1.2-0.5,1.8-0.5c1.1,0,2,0.3,2.6,1
		c0.7,0.7,1,1.6,1,2.9v5.9h-2v-5.3c0-1.8-0.7-2.6-2.2-2.6c-0.7,0-1.3,0.2-1.8,0.7C130.75,218.6,130.45,219.3,130.45,220.2z"/>
</g>
<path style="fill:none;stroke:#E64343;stroke-width:3;stroke-linecap:round;stroke-linejoin:round;" d="M1379.05,281.4v90
	c0,346-853,184-853,393"/>
<path id="Shape_9_copy" style="fill:none;stroke:#E64343;stroke-width:3;stroke-linecap:round;stroke-linejoin:round;" d="
	M248.05,429.4c0,197,278,126,278,335"/>
<path id="Shape_9_copy_2" style="fill:none;stroke:#E64343;stroke-width:3;stroke-linecap:round;stroke-linejoin:round;" d="
	M410.05,432.4c0,172,116,123,116,332"/>
<path id="Shape_9_copy_3" style="fill:none;stroke:#E64343;stroke-width:3;stroke-linecap:round;stroke-linejoin:round;" d="
	M601.05,429.4c0,196-75,126-75,335"/>
<path id="Shape_9_copy_4" style="fill:none;stroke:#E64343;stroke-width:3;stroke-linecap:round;stroke-linejoin:round;" d="
	M798.05,429.4c0,190-272,126-272,335"/>
<path id="Shape_9_copy_5" style="fill:none;stroke:#E64343;stroke-width:3;stroke-linecap:round;stroke-linejoin:round;" d="
	M995.05,429.4c0,201-469,126-469,335"/>
<path id="Shape_9_copy_6" style="fill:none;stroke:#E64343;stroke-width:3;stroke-linecap:round;stroke-linejoin:round;" d="
	M1187.05,429.4c0,238-661,126-661,335"/>
<circle style="fill:#E64343;stroke:#E64343;stroke-width:3;stroke-linecap:round;stroke-linejoin:round;" cx="525.05" cy="764.4" r="6"/>
<circle id="Ellipse_3_copy" style="fill:#E64343;stroke:#E64343;stroke-width:3;stroke-linecap:round;stroke-linejoin:round;" cx="972.05" cy="764.4" r="6"/>
<path style="fill:none;stroke:#E64343;stroke-width:3;stroke-linecap:round;stroke-linejoin:round;" d="M392.05,444.4l17-17l16,17"
	/>
<path id="Shape_10_copy" style="fill:none;stroke:#E64343;stroke-width:3;stroke-linecap:round;stroke-linejoin:round;" d="
	M583.05,444.4l17-17l17,17"/>
<path id="Shape_10_copy_2" style="fill:none;stroke:#E64343;stroke-width:3;stroke-linecap:round;stroke-linejoin:round;" d="
	M780.05,444.4l17-17l17,17"/>
<path id="Shape_10_copy_3" style="fill:none;stroke:#E64343;stroke-width:3;stroke-linecap:round;stroke-linejoin:round;" d="
	M977.05,444.4l17-17l17,17"/>
<path id="Shape_10_copy_4" style="fill:none;stroke:#E64343;stroke-width:3;stroke-linecap:round;stroke-linejoin:round;" d="
	M1169.05,444.4l17-17l17,17"/>
<path id="Shape_9_copy_7" style="fill:none;stroke:#E64343;stroke-width:3;stroke-linecap:round;stroke-linejoin:round;" d="
	M1247.05,429.4c0,272-274,124-274,335"/>
<path id="Shape_10_copy_7" style="fill:none;stroke:#E64343;stroke-width:3;stroke-linecap:round;stroke-linejoin:round;" d="
	M1229.05,444.4l17-17l17,17"/>
<path id="Shape_9_copy_10" style="fill:none;stroke:#E64343;stroke-width:3;stroke-linecap:round;stroke-linejoin:round;" d="
	M1440.05,277.4v100c0,314.7-467,218.1-467,387"/>
<path id="Shape_10_copy_10" style="fill:none;stroke:#E64343;stroke-width:3;stroke-linecap:round;stroke-linejoin:round;" d="
	M1422.05,292.4l17-17l17,17"/>
<path id="Shape_9_copy_8" style="fill:none;stroke:#E64343;stroke-width:3;stroke-linecap:round;stroke-linejoin:round;" d="
	M1057.05,429.4c0,238-84,126-84,335"/>
<path id="Shape_10_copy_8" style="fill:none;stroke:#E64343;stroke-width:3;stroke-linecap:round;stroke-linejoin:round;" d="
	M1039.05,444.4l17-17l17,17"/>
<path id="Shape_9_copy_9" style="fill:none;stroke:#E64343;stroke-width:3;stroke-linecap:round;stroke-linejoin:round;" d="
	M857.05,429.4c0,238,116,126,116,335"/>
<path id="Shape_10_copy_9" style="fill:none;stroke:#E64343;stroke-width:3;stroke-linecap:round;stroke-linejoin:round;" d="
	M839.05,444.4l17-17l17,17"/>
<path id="Shape_10_copy_5" style="fill:none;stroke:#E64343;stroke-width:3;" d="M230.05,444.4l17-17l17,17"/>
<path id="Shape_10_copy_6" style="fill:none;stroke:#E64343;stroke-width:3;stroke-linecap:round;stroke-linejoin:round;" d="
	M1361.05,293.4l17-17l17,17"/>
</svg>
