<?xml version="1.0" encoding="utf-8"?>
<!-- Generator: Adobe Illustrator 20.0.0, SVG Export Plug-In . SVG Version: 6.00 Build 0)  -->
<svg version="1.1" id="Scheme" xmlns="http://www.w3.org/2000/svg" xmlns:xlink="http://www.w3.org/1999/xlink" x="0px" y="0px"
	 width="1500px" height="729px" viewBox="0 0 1500 729" style="enable-background:new 0 0 1500 729;" xml:space="preserve">
<path id="Shape_9_copy_11" style="fill:none;stroke:#E64343;stroke-width:3;stroke-linecap:round;stroke-linejoin:round;" d="
	M89.5,262.5v43c0,259,440,121,440,330"/>
<path id="Shape_10_copy_11" style="fill:none;stroke:#E64343;stroke-width:3;stroke-linecap:round;stroke-linejoin:round;" d="
	M71.5,276.5l17-17l17,17"/>
<path id="Shape_9_copy_12" style="fill:none;stroke:#E64343;stroke-width:3;stroke-linecap:round;stroke-linejoin:round;" d="
	M351.5,262.5v43c0,204,178,121,178,330"/>
<path id="Shape_10_copy_12" style="fill:none;stroke:#E64343;stroke-width:3;stroke-linecap:round;stroke-linejoin:round;" d="
	M333.5,276.5l17-17l17,17"/>
<path id="Shape_9_copy_13" style="fill:none;stroke:#E64343;stroke-width:3;stroke-linecap:round;stroke-linejoin:round;" d="
	M589.5,262.5v43c0,204-60,121-60,330"/>
<path id="Shape_10_copy_13" style="fill:none;stroke:#E64343;stroke-width:3;stroke-linecap:round;stroke-linejoin:round;" d="
	M571.5,276.5l17-17l17,17"/>
<path id="Shape_10_copy_14" style="fill:none;stroke:#E64343;stroke-width:3;stroke-linecap:round;stroke-linejoin:round;" d="
	M836.5,276.5l17-17l17,17"/>
<path id="Shape_9_copy_15" style="fill:none;stroke:#E64343;stroke-width:3;stroke-linecap:round;stroke-linejoin:round;" d="
	M854.5,261.5v44c0,204-325,121-325,330"/>
<path id="Shape_10_copy_15" style="fill:none;stroke:#E64343;stroke-width:3;stroke-linecap:round;stroke-linejoin:round;" d="
	M836.5,276.5l17-17l17,17"/>
<path id="Shape_9_copy_16" style="fill:none;stroke:#E64343;stroke-width:3;stroke-linecap:round;stroke-linejoin:round;" d="
	M1100.5,262.5v22c0,247-571,143-571,352"/>
<path id="Shape_10_copy_16" style="fill:none;stroke:#E64343;stroke-width:3;stroke-linecap:round;stroke-linejoin:round;" d="
	M1082.5,276.5l17-17l17,17"/>
<path id="Shape_9_copy_17" style="fill:none;stroke:#E64343;stroke-width:3;stroke-linecap:round;stroke-linejoin:round;" d="
	M1381.5,262.5c0,276-852,185-852,374"/>
<path id="Shape_10_copy_17" style="fill:none;stroke:#E64343;stroke-width:3;stroke-linecap:round;stroke-linejoin:round;" d="
	M1362.5,276.5l17-17l17,17"/>
<rect id="box_copy_58" x="443.5" y="0.5" style="fill:none;stroke:#2FD28E;" width="613" height="90"/>
<path id="Shape_9_copy_18" style="fill:none;stroke:#E64343;stroke-width:3;stroke-linecap:round;stroke-linejoin:round;" d="
	M1440.5,262.5v43c0,259-465,122-465,331"/>
<path id="Shape_10_copy_18" style="fill:none;stroke:#E64343;stroke-width:3;stroke-linecap:round;stroke-linejoin:round;" d="
	M1422.5,276.5l17-17l17,17"/>
<path id="Shape_9_copy_19" style="fill:none;stroke:#E64343;stroke-width:3;stroke-linecap:round;stroke-linejoin:round;" d="
	M1169.5,262.5v44c0,259-194,121-194,330"/>
<path id="Shape_10_copy_19" style="fill:none;stroke:#E64343;stroke-width:3;stroke-linecap:round;stroke-linejoin:round;" d="
	M1151.5,276.5l17-17l17,17"/>
<path id="Shape_9_copy_20" style="fill:none;stroke:#E64343;stroke-width:3;stroke-linecap:round;stroke-linejoin:round;" d="
	M911.5,262.5v44c0,259,64,121,64,330"/>
<path id="Shape_10_copy_20" style="fill:none;stroke:#E64343;stroke-width:3;stroke-linecap:round;stroke-linejoin:round;" d="
	M893.5,276.5l17-17l17,17"/>
<path id="Shape_9_copy_21" style="fill:none;stroke:#E64343;stroke-width:3;stroke-linecap:round;stroke-linejoin:round;" d="
	M648.5,263.5v43c0,259,327,121,327,330"/>
<path id="Shape_10_copy_21" style="fill:none;stroke:#E64343;stroke-width:3;stroke-linecap:round;stroke-linejoin:round;" d="
	M630.5,276.5l17-17l17,17"/>
<g id="Printbox" style="enable-background:new    ;">
	<path style="fill:#2FD28E;" d="M720.3,41c0.9,0.7,1.3,1.9,1.3,3.4s-0.4,2.6-1.3,3.3c-0.9,0.7-2.3,1.1-4.1,1.1H714v3.7h-2.1V39.9
		h4.3C718,39.9,719.4,40.3,720.3,41z M718.8,46.2c0.4-0.5,0.6-1.1,0.6-2s-0.3-1.5-0.8-1.8c-0.5-0.4-1.4-0.5-2.5-0.5h-2.2v5h2.5
		C717.6,46.9,718.4,46.7,718.8,46.2z"/>
	<path style="fill:#2FD28E;" d="M728.9,44.8c-1,0-1.7,0.3-2.3,1c-0.5,0.6-0.8,1.5-0.8,2.6v4.1h-2v-9.6h2v1.9
		c0.3-0.6,0.8-1.1,1.3-1.5c0.6-0.4,1.2-0.6,1.8-0.6v2C728.9,44.8,728.9,44.8,728.9,44.8z"/>
	<path style="fill:#2FD28E;" d="M731.1,41c-0.3-0.3-0.4-0.6-0.4-0.9s0.1-0.6,0.4-0.9s0.6-0.4,0.9-0.4c0.3,0,0.6,0.1,0.9,0.4
		c0.3,0.3,0.4,0.6,0.4,0.9s-0.1,0.6-0.4,0.9c-0.3,0.3-0.6,0.4-0.9,0.4C731.7,41.4,731.4,41.3,731.1,41z M733,52.5h-2v-9.6h2V52.5z"
		/>
	<path style="fill:#2FD28E;" d="M737.9,47.3v5.2h-2v-9.6h2v1.7c0.3-0.6,0.8-1.1,1.3-1.4c0.6-0.3,1.2-0.5,1.8-0.5c1.1,0,2,0.3,2.6,1
		c0.7,0.7,1,1.6,1,2.9v5.9h-2v-5.3c0-1.8-0.7-2.6-2.2-2.6c-0.7,0-1.3,0.2-1.8,0.7C738.2,45.7,737.9,46.4,737.9,47.3z"/>
	<path style="fill:#2FD28E;" d="M749.9,44.5v4.9c0,0.5,0.1,0.8,0.4,1.1c0.2,0.3,0.6,0.4,1,0.4s0.8-0.2,1.2-0.6l0.8,1.4
		c-0.7,0.6-1.5,1-2.4,1s-1.6-0.3-2.2-0.9c-0.6-0.6-0.9-1.4-0.9-2.4v-4.8h-1.2V43h1.2v-3h2v3h2.5v1.6h-2.4V44.5z"/>
	<path style="fill:#2FD28E;" d="M760.1,42.8c1.3,0,2.4,0.4,3.3,1.3c0.9,0.9,1.4,2.1,1.4,3.5c0,1.5-0.5,2.7-1.4,3.6s-2,1.4-3.2,1.4
		s-2.3-0.5-3.3-1.6v1.4h-2V39.1h2v5.5C757.8,43.4,758.8,42.8,760.1,42.8z M756.9,47.7c0,0.9,0.3,1.7,0.8,2.2c0.6,0.6,1.2,0.9,2,0.9
		s1.5-0.3,2.1-0.9s0.9-1.3,0.9-2.2s-0.3-1.7-0.9-2.3c-0.6-0.6-1.3-0.9-2.1-0.9s-1.5,0.3-2,0.9C757.2,46.1,756.9,46.8,756.9,47.7z"/>
	<path style="fill:#2FD28E;" d="M775.1,51.2c-1,1-2.2,1.4-3.6,1.4c-1.4,0-2.6-0.5-3.6-1.4c-1-1-1.4-2.1-1.4-3.5s0.5-2.5,1.4-3.5
		c1-1,2.2-1.4,3.6-1.4c1.4,0,2.6,0.5,3.6,1.4c1,1,1.4,2.1,1.4,3.5S776.1,50.3,775.1,51.2z M769.3,50c0.6,0.6,1.3,0.9,2.2,0.9
		s1.6-0.3,2.2-0.9c0.6-0.6,0.9-1.3,0.9-2.3s-0.3-1.7-0.9-2.3c-0.6-0.6-1.3-0.9-2.2-0.9s-1.6,0.3-2.2,0.9c-0.6,0.6-0.9,1.3-0.9,2.3
		S768.8,49.4,769.3,50z"/>
	<path style="fill:#2FD28E;" d="M780,42.9l2.1,3.2l2.1-3.2h2.4l-3.4,4.7l3.5,4.9h-2.5l-2.3-3.2l-2.2,3.2h-2.4l3.4-4.9l-3.2-4.7H780z
		"/>
</g>
<rect id="box_copy_58-2" x="0.5" y="167.5" style="fill:none;stroke:#2FD28E;" width="174" height="90"/>
<g id="Mobile" style="enable-background:new    ;">
	<path style="fill:#2FD28E;" d="M59.9,219.5h-2.1v-12.6h3.3l3.8,7.9l3.8-7.9H72v12.6h-2.1v-9.8l-4.4,8.7h-1.2l-4.4-8.7V219.5z"/>
	<path style="fill:#2FD28E;" d="M83.2,218.2c-1,1-2.2,1.4-3.6,1.4s-2.6-0.5-3.6-1.4c-1-1-1.4-2.1-1.4-3.5s0.5-2.5,1.4-3.5
		c1-1,2.2-1.4,3.6-1.4s2.6,0.5,3.6,1.4c1,1,1.4,2.1,1.4,3.5S84.2,217.2,83.2,218.2z M77.5,217c0.6,0.6,1.3,0.9,2.2,0.9
		c0.9,0,1.6-0.3,2.2-0.9c0.6-0.6,0.9-1.3,0.9-2.3s-0.3-1.7-0.9-2.3s-1.3-0.9-2.2-0.9c-0.9,0-1.6,0.3-2.2,0.9
		c-0.6,0.6-0.9,1.3-0.9,2.3S76.9,216.4,77.5,217z"/>
	<path style="fill:#2FD28E;" d="M92.1,209.8c1.3,0,2.4,0.4,3.3,1.3c0.9,0.9,1.4,2.1,1.4,3.5c0,1.5-0.5,2.7-1.4,3.6s-2,1.4-3.2,1.4
		s-2.3-0.5-3.3-1.6v1.4h-2V206h2v5.5C89.8,210.4,90.8,209.8,92.1,209.8z M88.9,214.7c0,0.9,0.3,1.7,0.8,2.2c0.6,0.6,1.2,0.9,2,0.9
		s1.5-0.3,2.1-0.9s0.9-1.3,0.9-2.2s-0.3-1.7-0.9-2.3s-1.3-0.9-2.1-0.9c-0.8,0-1.5,0.3-2,0.9C89.2,213,88.9,213.8,88.9,214.7z"/>
	<path style="fill:#2FD28E;" d="M99.2,208c-0.3-0.3-0.4-0.6-0.4-0.9s0.1-0.6,0.4-0.9s0.6-0.4,0.9-0.4s0.6,0.1,0.9,0.4
		s0.4,0.6,0.4,0.9s-0.1,0.6-0.4,0.9c-0.3,0.3-0.6,0.4-0.9,0.4C99.8,208.4,99.5,208.3,99.2,208z M101.1,219.5h-2v-9.6h2V219.5z"/>
	<path style="fill:#2FD28E;" d="M106,219.5h-2v-13.4h2V219.5z"/>
	<path style="fill:#2FD28E;" d="M117.9,215.6h-7.5c0,0.7,0.4,1.3,1,1.7s1.3,0.6,2,0.6c1.2,0,2.1-0.4,2.7-1.1l1.2,1.3
		c-1,1.1-2.4,1.6-4,1.6c-1.3,0-2.5-0.4-3.4-1.3s-1.4-2.1-1.4-3.6s0.5-2.7,1.4-3.6c1-0.9,2.1-1.3,3.4-1.3s2.4,0.4,3.3,1.2
		s1.4,1.9,1.4,3.3L117.9,215.6L117.9,215.6z M110.4,214h5.5c0-0.8-0.3-1.4-0.8-1.9c-0.5-0.4-1.1-0.6-1.9-0.6s-1.4,0.2-2,0.7
		S110.4,213.2,110.4,214z"/>
</g>
<rect id="box_copy_58-3" x="265.5" y="167.5" style="fill:none;stroke:#2FD28E;" width="174" height="90"/>
<g id="Sales" style="enable-background:new    ;">
	<path style="fill:#2FD28E;" d="M334.6,208.6c-0.6,0-1.1,0.1-1.5,0.4s-0.6,0.6-0.6,1.1s0.2,0.9,0.6,1.2s1.2,0.6,2.5,0.9
		c1.3,0.3,2.3,0.8,2.9,1.3c0.7,0.6,1,1.4,1,2.5s-0.4,2-1.2,2.7s-1.9,1-3.3,1c-2,0-3.7-0.7-5.2-2l1.3-1.6c1.3,1.1,2.6,1.7,4,1.7
		c0.7,0,1.2-0.1,1.6-0.4c0.4-0.3,0.6-0.7,0.6-1.2s-0.2-0.9-0.6-1.1c-0.4-0.3-1-0.5-2-0.7c-0.9-0.2-1.6-0.4-2.1-0.6s-0.9-0.4-1.3-0.7
		c-0.7-0.6-1.1-1.4-1.1-2.6c0-1.2,0.4-2.1,1.3-2.7s1.9-0.9,3.1-0.9c0.8,0,1.6,0.1,2.4,0.4c0.8,0.3,1.5,0.6,2.1,1.1L338,210
		c-0.4-0.3-0.9-0.6-1.5-0.8C335.8,208.7,335.2,208.6,334.6,208.6z"/>
	<path style="fill:#2FD28E;" d="M349.6,219.5h-1.8v-1.3c-0.8,0.9-1.9,1.4-3.2,1.4c-1,0-1.8-0.3-2.5-0.8c-0.7-0.6-1-1.3-1-2.3
		s0.3-1.6,1-2.1s1.6-0.7,2.8-0.7h2.6v-0.4c0-1.3-0.7-1.9-2.1-1.9c-0.9,0-1.8,0.3-2.8,1l-0.9-1.3c1.2-0.9,2.5-1.4,4-1.4
		c1.1,0,2.1,0.3,2.8,0.9s1.1,1.5,1.1,2.7V219.5z M347.6,215.9v-0.8h-2.3c-1.5,0-2.2,0.5-2.2,1.4c0,0.5,0.2,0.8,0.5,1.1
		s0.9,0.4,1.5,0.4s1.2-0.2,1.7-0.5C347.4,217,347.6,216.5,347.6,215.9z"/>
	<path style="fill:#2FD28E;" d="M354.4,219.5h-2v-13.4h2V219.5z"/>
	<path style="fill:#2FD28E;" d="M366.3,215.6h-7.5c0,0.7,0.4,1.3,1,1.7s1.3,0.6,2,0.6c1.2,0,2.1-0.4,2.7-1.1l1.2,1.3
		c-1,1.1-2.4,1.6-4,1.6c-1.3,0-2.5-0.4-3.4-1.3s-1.4-2.1-1.4-3.6s0.5-2.7,1.4-3.6c1-0.9,2.1-1.3,3.4-1.3s2.4,0.4,3.3,1.2
		s1.4,1.9,1.4,3.3v1.2H366.3z M358.8,214h5.5c0-0.8-0.3-1.4-0.8-1.9s-1.1-0.6-1.9-0.6s-1.4,0.2-2,0.7
		C359.1,212.6,358.8,213.2,358.8,214z"/>
	<path style="fill:#2FD28E;" d="M375.3,216.6c0,0.9-0.3,1.6-1,2.2c-0.7,0.5-1.5,0.8-2.5,0.8c-0.7,0-1.4-0.1-2.2-0.4
		c-0.8-0.3-1.4-0.6-2-1.1l1-1.6c1.1,0.8,2.2,1.3,3.2,1.3c0.5,0,0.8-0.1,1.1-0.3c0.3-0.2,0.4-0.5,0.4-0.8c0-0.5-0.6-0.9-1.9-1.3
		c-0.1,0-0.2-0.1-0.2-0.1c-2-0.5-3-1.4-3-2.7c0-0.9,0.3-1.6,1-2.1s1.6-0.8,2.7-0.8s2.2,0.3,3.1,1l-0.8,1.5c-0.8-0.5-1.6-0.8-2.5-0.8
		c-0.5,0-0.9,0.1-1.2,0.3c-0.3,0.2-0.5,0.4-0.5,0.8c0,0.3,0.2,0.5,0.5,0.7c0.2,0.1,0.5,0.2,0.9,0.3s0.7,0.2,1,0.3s0.6,0.2,0.9,0.3
		s0.6,0.3,0.9,0.5C375,215,375.3,215.7,375.3,216.6z"/>
</g>
<rect id="box_copy_58-4" x="440.5" y="638.5" style="fill:none;stroke:#E64343;" width="174" height="90"/>
<g id="DESIGN_TEAM" style="enable-background:new    ;">
	<path style="fill:#E64343;" d="M477.3,679.5c1.2,1.1,1.8,2.6,1.8,4.6s-0.6,3.5-1.8,4.6c-1.2,1.1-3,1.7-5.4,1.7h-4.2v-12.6h4.3
		C474.4,677.9,476.1,678.4,477.3,679.5z M477,684.2c0-2.9-1.7-4.3-5-4.3h-2.1v8.6h2.4c1.5,0,2.7-0.4,3.5-1.1
		C476.6,686.7,477,685.6,477,684.2z"/>
	<path style="fill:#E64343;" d="M490.7,677.9v2H484v3.3h6v1.9h-6v3.4h6.9v2h-9.1v-12.6L490.7,677.9L490.7,677.9z"/>
	<path style="fill:#E64343;" d="M497.5,679.5c-0.6,0-1.1,0.1-1.5,0.4c-0.4,0.3-0.6,0.6-0.6,1.1s0.2,0.9,0.6,1.2s1.2,0.6,2.5,0.9
		c1.3,0.3,2.3,0.8,2.9,1.3c0.7,0.6,1,1.4,1,2.5s-0.4,2-1.2,2.7c-0.8,0.7-1.9,1-3.3,1c-2,0-3.7-0.7-5.2-2l1.3-1.6
		c1.3,1.1,2.6,1.7,4,1.7c0.7,0,1.2-0.1,1.6-0.4s0.6-0.7,0.6-1.2s-0.2-0.9-0.6-1.1c-0.4-0.3-1-0.5-2-0.7c-0.9-0.2-1.6-0.4-2.1-0.6
		c-0.5-0.2-0.9-0.4-1.3-0.7c-0.7-0.6-1.1-1.4-1.1-2.6s0.4-2.1,1.3-2.7c0.8-0.6,1.9-0.9,3.1-0.9c0.8,0,1.6,0.1,2.4,0.4
		c0.8,0.3,1.5,0.6,2.1,1.1l-1.1,1.6c-0.4-0.3-0.9-0.6-1.5-0.8S498.1,679.5,497.5,679.5z"/>
	<path style="fill:#E64343;" d="M505,677.9h2.1v12.6H505V677.9z"/>
	<path style="fill:#E64343;" d="M519.4,684.4h2.1v4.3c-1.2,1.3-2.9,2-5.1,2c-1.9,0-3.4-0.6-4.7-1.8s-1.9-2.8-1.9-4.6
		c0-1.9,0.6-3.4,1.9-4.7c1.3-1.2,2.8-1.9,4.6-1.9s3.3,0.5,4.5,1.6l-1.1,1.6c-0.5-0.4-1-0.7-1.5-0.9s-1.1-0.2-1.7-0.2
		c-1.3,0-2.3,0.4-3.2,1.2s-1.3,1.9-1.3,3.2s0.4,2.4,1.3,3.2c0.8,0.8,1.9,1.2,3.1,1.2c1.2,0,2.2-0.3,3-0.8L519.4,684.4L519.4,684.4z"
		/>
	<path style="fill:#E64343;" d="M533.7,677.9h2.1v12.6h-2.3l-7.1-9.2v9.2h-2.1v-12.6h2.1l7.3,9.4V677.9z"/>
	<path style="fill:#E64343;" d="M549,679.8v10.6h-2.1v-10.6h-3.8v-1.9h9.8v1.9H549z"/>
	<path style="fill:#E64343;" d="M564,677.9v2h-6.7v3.3h6v1.9h-6v3.4h6.9v2h-9.1v-12.6L564,677.9L564,677.9z"/>
	<path style="fill:#E64343;" d="M568.7,687.6l-1.3,2.9h-2.3l5.6-12.6h2.3l5.6,12.6h-2.3l-1.3-2.9H568.7z M574.2,685.7l-2.3-5.2
		l-2.3,5.2H574.2z"/>
	<path style="fill:#E64343;" d="M582.5,690.5h-2.1v-12.6h3.3l3.8,7.9l3.8-7.9h3.3v12.6h-2.1v-9.8l-4.4,8.7h-1.2l-4.4-8.7
		L582.5,690.5L582.5,690.5z"/>
</g>
<rect id="box_copy_58-5" x="888.5" y="638.5" style="fill:none;stroke:#E64343;" width="174" height="90"/>
<g id="FRONT_END" style="enable-background:new    ;">
	<path style="fill:#E64343;" d="M922.4,667.9v3.5h5.6v2h-5.6v5.2h-2.1V666h8.4v2h-6.3V667.9z"/>
	<path style="fill:#E64343;" d="M941.2,670c0,2.1-0.9,3.4-2.7,3.9l3.3,4.6h-2.7l-3-4.2h-2.8v4.2h-2.1v-12.6h4.7c1.9,0,3.3,0.3,4.1,1
		C940.8,667.5,941.2,668.6,941.2,670z M938.4,671.8c0.4-0.4,0.6-1,0.6-1.8s-0.2-1.4-0.7-1.7s-1.2-0.5-2.4-0.5h-2.7v4.5h2.6
		C937.2,672.3,938,672.1,938.4,671.8z"/>
	<path style="fill:#E64343;" d="M954.8,676.8c-1.3,1.2-2.8,1.9-4.7,1.9s-3.4-0.6-4.7-1.9s-1.9-2.8-1.9-4.6s0.6-3.4,1.9-4.6
		s2.8-1.9,4.7-1.9s3.4,0.6,4.7,1.9s1.9,2.8,1.9,4.6S956.1,675.5,954.8,676.8z M953.3,668.9c-0.9-0.9-1.9-1.3-3.2-1.3
		s-2.3,0.4-3.2,1.3c-0.9,0.9-1.3,2-1.3,3.2s0.4,2.3,1.3,3.2c0.9,0.9,1.9,1.3,3.2,1.3s2.3-0.4,3.2-1.3c0.9-0.9,1.3-2,1.3-3.2
		S954.1,669.8,953.3,668.9z"/>
	<path style="fill:#E64343;" d="M968.9,665.9h2.1v12.6h-2.3l-7.1-9.2v9.2h-2.1v-12.6h2.1l7.3,9.4V665.9z"/>
	<path style="fill:#E64343;" d="M979.3,667.9v10.6h-2.1v-10.6h-3.8V666h9.8v1.9H979.3z"/>
	<path style="fill:#E64343;" d="M999.2,665.9v2h-6.7v3.3h6v1.9h-6v3.4h6.9v2h-9.1v-12.6L999.2,665.9L999.2,665.9z"/>
	<path style="fill:#E64343;" d="M1011.6,665.9h2.1v12.6h-2.3l-7.1-9.2v9.2h-2.1v-12.6h2.1l7.3,9.4V665.9z"/>
	<path style="fill:#E64343;" d="M1026.7,667.6c1.2,1.1,1.8,2.6,1.8,4.6s-0.6,3.5-1.8,4.6c-1.2,1.1-3,1.7-5.4,1.7h-4.2v-12.6h4.3
		C1023.8,665.9,1025.5,666.5,1026.7,667.6z M1026.4,672.2c0-2.9-1.7-4.3-5-4.3h-2.1v8.6h2.4c1.5,0,2.7-0.4,3.5-1.1
		C1026,674.7,1026.4,673.6,1026.4,672.2z"/>
</g>
<g id="TEAM" style="enable-background:new    ;">
	<path style="fill:#E64343;" d="M953.7,692.9v10.6h-2.1v-10.6h-3.8V691h9.8v1.9H953.7z"/>
	<path style="fill:#E64343;" d="M968.6,690.9v2h-6.7v3.3h6v1.9h-6v3.4h6.9v2h-9.1v-12.6L968.6,690.9L968.6,690.9z"/>
	<path style="fill:#E64343;" d="M973.4,700.6l-1.3,2.9h-2.3l5.6-12.6h2.3l5.6,12.6H981l-1.3-2.9H973.4z M978.8,698.7l-2.3-5.2
		l-2.3,5.2H978.8z"/>
	<path style="fill:#E64343;" d="M987.1,703.5H985v-12.6h3.3l3.8,7.9l3.8-7.9h3.3v12.6H997v-9.8l-4.4,8.7h-1.2l-4.4-8.7v9.8H987.1z"
		/>
</g>
<rect id="box_copy_58-6" x="530.5" y="167.5" style="fill:none;stroke:#2FD28E;" width="174" height="90"/>
<g id="Marketing" style="enable-background:new    ;">
	<path style="fill:#2FD28E;" d="M574.9,219.5h-2.1v-12.6h3.3l3.8,7.9l3.8-7.9h3.3v12.6h-2.1v-9.8l-4.4,8.7h-1.2l-4.4-8.7
		L574.9,219.5L574.9,219.5z"/>
	<path style="fill:#2FD28E;" d="M598,219.5h-1.8v-1.3c-0.8,0.9-1.9,1.4-3.2,1.4c-1,0-1.8-0.3-2.5-0.8c-0.7-0.6-1-1.3-1-2.3
		s0.3-1.6,1-2.1s1.6-0.7,2.8-0.7h2.6v-0.4c0-1.3-0.7-1.9-2.1-1.9c-0.9,0-1.8,0.3-2.8,1l-0.9-1.3c1.2-0.9,2.5-1.4,4-1.4
		c1.1,0,2.1,0.3,2.8,0.9s1.1,1.5,1.1,2.7L598,219.5L598,219.5z M596,215.9v-0.8h-2.3c-1.5,0-2.2,0.5-2.2,1.4c0,0.5,0.2,0.8,0.5,1.1
		s0.9,0.4,1.5,0.4s1.2-0.2,1.7-0.5C595.7,217,596,216.5,596,215.9z"/>
	<path style="fill:#2FD28E;" d="M605.8,211.8c-1,0-1.7,0.3-2.3,1c-0.5,0.6-0.8,1.5-0.8,2.6v4.1h-2v-9.6h2v1.9
		c0.3-0.6,0.8-1.1,1.3-1.5c0.6-0.4,1.2-0.6,1.8-0.6v2C605.9,211.8,605.9,211.8,605.8,211.8z"/>
	<path style="fill:#2FD28E;" d="M610,219.5h-2v-13.4h2v7.9l3.9-4.1h2.6l-3.6,3.8l3.9,5.8h-2.5l-2.8-4.2l-1.5,1.5L610,219.5
		L610,219.5z"/>
	<path style="fill:#2FD28E;" d="M627.3,215.6h-7.5c0,0.7,0.4,1.3,1,1.7s1.3,0.6,2,0.6c1.2,0,2.1-0.4,2.7-1.1l1.2,1.3
		c-1,1.1-2.4,1.6-4,1.6c-1.3,0-2.5-0.4-3.4-1.3s-1.4-2.1-1.4-3.6s0.5-2.7,1.4-3.6c1-0.9,2.1-1.3,3.4-1.3c1.3,0,2.4,0.4,3.3,1.2
		c0.9,0.8,1.4,1.9,1.4,3.3v1.2H627.3z M619.8,214h5.5c0-0.8-0.3-1.4-0.8-1.9s-1.1-0.6-1.9-0.6s-1.4,0.2-2,0.7
		C620.1,212.6,619.8,213.2,619.8,214z"/>
	<path style="fill:#2FD28E;" d="M632,211.5v4.9c0,0.5,0.1,0.8,0.4,1.1c0.2,0.3,0.6,0.4,1,0.4s0.8-0.2,1.2-0.6l0.8,1.4
		c-0.7,0.6-1.5,1-2.4,1s-1.6-0.3-2.2-0.9c-0.6-0.6-0.9-1.4-0.9-2.4v-4.8h-1.2V210h1.2v-3h2v3h2.5v1.6L632,211.5L632,211.5z"/>
	<path style="fill:#2FD28E;" d="M637.1,208c-0.3-0.3-0.4-0.6-0.4-0.9s0.1-0.6,0.4-0.9s0.6-0.4,0.9-0.4c0.3,0,0.6,0.1,0.9,0.4
		c0.3,0.3,0.4,0.6,0.4,0.9s-0.1,0.6-0.4,0.9c-0.3,0.3-0.6,0.4-0.9,0.4C637.7,208.4,637.4,208.3,637.1,208z M639,219.5h-2v-9.6h2
		V219.5z"/>
	<path style="fill:#2FD28E;" d="M644,214.3v5.2h-2v-9.6h2v1.7c0.3-0.6,0.8-1.1,1.3-1.4c0.6-0.3,1.2-0.5,1.8-0.5c1.1,0,2,0.3,2.6,1
		c0.7,0.7,1,1.6,1,2.9v5.9h-2v-5.3c0-1.8-0.7-2.6-2.2-2.6c-0.7,0-1.3,0.2-1.8,0.7C644.2,212.7,644,213.4,644,214.3z"/>
	<path style="fill:#2FD28E;" d="M662.5,209.9v8.4c0,1.7-0.5,3-1.4,3.8s-2.1,1.3-3.5,1.3s-2.7-0.5-3.9-1.4l1-1.5
		c0.9,0.7,1.9,1.1,2.8,1.1c1,0,1.7-0.2,2.3-0.7s0.8-1.3,0.8-2.4v-1.2c-0.3,0.6-0.7,1-1.3,1.4c-0.6,0.3-1.2,0.5-1.9,0.5
		c-1.3,0-2.3-0.4-3.1-1.3c-0.8-0.9-1.2-2-1.2-3.3s0.4-2.4,1.2-3.3c0.8-0.9,1.9-1.3,3.1-1.3s2.3,0.5,3.1,1.6v-1.4h2V209.9z
		 M655,214.3c0,0.8,0.2,1.5,0.7,2c0.5,0.6,1.1,0.9,2,0.9s1.5-0.3,2-0.8c0.5-0.6,0.8-1.2,0.8-2.1c0-0.8-0.3-1.5-0.8-2.1
		s-1.2-0.9-2-0.9s-1.5,0.3-2,0.9C655.2,212.9,655,213.5,655,214.3z"/>
</g>
<path id="Rectangle_6_copy_2" style="fill:none;stroke:#2FD28E;" d="M87.5,166.5v-28h1322v28"/>
<path id="Rectangle_7_copy_8" style="fill:none;stroke:#2FD28E;" d="M750.5,139.5v-49"/>
<path id="Rectangle_7_copy_8-2" style="fill:none;stroke:#2FD28E;" d="M882.5,167.5v-28"/>
<path id="Rectangle_7_copy_9" style="fill:none;stroke:#2FD28E;" d="M617.5,167.5v-28"/>
<path id="Rectangle_7_copy_8-3" style="fill:none;stroke:#2FD28E;" d="M1138.5,167.5v-28"/>
<path id="Rectangle_7_copy_8-4" style="fill:none;stroke:#2FD28E;" d="M352.5,167.5v-28"/>
<rect id="box_copy_58-7" x="1052.5" y="167.5" style="fill:none;stroke:#2FD28E;" width="174" height="90"/>
<g id="JS" style="enable-background:new    ;">
	<path style="fill:#2FD28E;" d="M1131.2,207.8v-1.9h6.1v8.3c0,1.5-0.4,2.6-1.1,3.3s-1.7,1.1-2.9,1.1c-1.5,0-2.7-0.5-3.7-1.5l1.2-1.7
		c0.8,0.8,1.6,1.2,2.4,1.2c0.6,0,1-0.2,1.4-0.6c0.4-0.4,0.6-0.9,0.6-1.7v-6.5L1131.2,207.8L1131.2,207.8z"/>
	<path style="fill:#2FD28E;" d="M1144.5,207.6c-0.6,0-1.1,0.1-1.5,0.4s-0.6,0.6-0.6,1.1s0.2,0.9,0.6,1.2s1.2,0.6,2.5,0.9
		c1.3,0.3,2.3,0.8,2.9,1.3c0.7,0.6,1,1.4,1,2.5s-0.4,2-1.2,2.7s-1.9,1-3.3,1c-2,0-3.7-0.7-5.2-2l1.3-1.6c1.3,1.1,2.6,1.7,4,1.7
		c0.7,0,1.2-0.1,1.6-0.4c0.4-0.3,0.6-0.7,0.6-1.2s-0.2-0.9-0.6-1.1c-0.4-0.3-1-0.5-2-0.7c-0.9-0.2-1.6-0.4-2.1-0.6s-0.9-0.4-1.3-0.7
		c-0.7-0.6-1.1-1.4-1.1-2.6c0-1.2,0.4-2.1,1.3-2.7s1.9-0.9,3.1-0.9c0.8,0,1.6,0.1,2.4,0.4c0.8,0.3,1.5,0.6,2.1,1.1l-1.1,1.6
		c-0.4-0.3-0.9-0.6-1.5-0.8C1145.8,207.7,1145.1,207.6,1144.5,207.6z"/>
</g>
<rect id="box_copy_59" x="795.5" y="167.5" style="fill:none;stroke:#2FD28E;" width="174" height="90"/>
<g id="Customer" style="enable-background:new    ;">
	<path style="fill:#2FD28E;" d="M845.5,203.6c0.7,0,1.4-0.1,1.9-0.4c0.5-0.2,1.1-0.6,1.7-1.2l1.4,1.4c-1.3,1.5-3,2.2-4.9,2.2
		s-3.5-0.6-4.7-1.8c-1.3-1.2-1.9-2.8-1.9-4.6s0.6-3.4,1.9-4.7c1.3-1.2,2.9-1.9,4.8-1.9c2,0,3.6,0.7,4.9,2.2l-1.4,1.5
		c-0.6-0.6-1.2-1-1.7-1.2s-1.2-0.3-1.9-0.3c-1.3,0-2.3,0.4-3.2,1.2s-1.3,1.9-1.3,3.2s0.4,2.3,1.3,3.2S844.4,203.6,845.5,203.6z"/>
	<path style="fill:#2FD28E;" d="M859.3,201.1v-5.2h2v9.6h-2v-1.7c-0.3,0.6-0.8,1.1-1.3,1.4c-0.6,0.3-1.2,0.5-1.8,0.5
		c-1.1,0-2-0.3-2.6-1c-0.7-0.7-1-1.6-1-2.9v-5.9h2v5.3c0,1.8,0.7,2.6,2.2,2.6c0.7,0,1.3-0.2,1.8-0.7
		C859.1,202.7,859.3,202,859.3,201.1z"/>
	<path style="fill:#2FD28E;" d="M871.1,202.6c0,0.9-0.3,1.6-1,2.2c-0.7,0.5-1.5,0.8-2.5,0.8c-0.7,0-1.4-0.1-2.2-0.4
		c-0.8-0.3-1.4-0.6-2-1.1l1-1.6c1.1,0.8,2.2,1.3,3.2,1.3c0.5,0,0.8-0.1,1.1-0.3s0.4-0.5,0.4-0.8c0-0.5-0.6-0.9-1.9-1.3
		c-0.1,0-0.2-0.1-0.2-0.1c-2-0.5-3-1.4-3-2.7c0-0.9,0.3-1.6,1-2.1s1.6-0.8,2.7-0.8s2.2,0.3,3.1,1l-0.8,1.5c-0.8-0.5-1.6-0.8-2.5-0.8
		c-0.5,0-0.9,0.1-1.2,0.3s-0.5,0.4-0.5,0.8c0,0.3,0.2,0.5,0.5,0.7c0.2,0.1,0.5,0.2,0.9,0.3s0.7,0.2,1,0.3s0.6,0.2,0.9,0.3
		c0.3,0.1,0.6,0.3,0.9,0.5C870.8,201,871.1,201.7,871.1,202.6z"/>
	<path style="fill:#2FD28E;" d="M875.9,197.5v4.9c0,0.5,0.1,0.8,0.4,1.1c0.2,0.3,0.6,0.4,1,0.4s0.8-0.2,1.2-0.6l0.8,1.4
		c-0.7,0.6-1.5,1-2.4,1s-1.6-0.3-2.2-0.9c-0.6-0.6-0.9-1.4-0.9-2.4v-4.8h-1.2V196h1.2v-3h2v3h2.5v1.6L875.9,197.5L875.9,197.5z"/>
	<path style="fill:#2FD28E;" d="M888.9,204.2c-1,1-2.2,1.4-3.6,1.4c-1.4,0-2.6-0.5-3.6-1.4c-1-1-1.4-2.1-1.4-3.5s0.5-2.5,1.4-3.5
		c1-1,2.2-1.4,3.6-1.4c1.4,0,2.6,0.5,3.6,1.4c1,1,1.4,2.1,1.4,3.5S889.8,203.2,888.9,204.2z M883.1,203c0.6,0.6,1.3,0.9,2.2,0.9
		s1.6-0.3,2.2-0.9c0.6-0.6,0.9-1.3,0.9-2.3s-0.3-1.7-0.9-2.3c-0.6-0.6-1.3-0.9-2.2-0.9s-1.6,0.3-2.2,0.9c-0.6,0.6-0.9,1.3-0.9,2.3
		S882.5,202.4,883.1,203z"/>
	<path style="fill:#2FD28E;" d="M894.6,200.3v5.2h-2v-9.6h2v1.7c0.3-0.6,0.7-1.1,1.3-1.4c0.6-0.3,1.2-0.5,1.9-0.5
		c1.5,0,2.5,0.6,3.1,1.9c0.9-1.2,2.1-1.9,3.6-1.9c1.1,0,2,0.3,2.6,1c0.7,0.7,1,1.6,1,2.9v5.9h-2v-5.3c0-1.8-0.7-2.6-2.2-2.6
		c-0.7,0-1.3,0.2-1.8,0.7c-0.5,0.4-0.8,1.1-0.8,1.9v5.3h-2v-5.3c0-0.9-0.2-1.6-0.5-2s-0.8-0.6-1.5-0.6s-1.3,0.2-1.8,0.7
		C894.9,198.7,894.6,199.4,894.6,200.3z"/>
	<path style="fill:#2FD28E;" d="M919.8,201.6h-7.5c0,0.7,0.4,1.3,1,1.7s1.3,0.6,2,0.6c1.2,0,2.1-0.4,2.7-1.1l1.2,1.3
		c-1,1.1-2.4,1.6-4,1.6c-1.3,0-2.5-0.4-3.4-1.3s-1.4-2.1-1.4-3.6s0.5-2.7,1.4-3.6c1-0.9,2.1-1.3,3.4-1.3c1.3,0,2.4,0.4,3.3,1.2
		c0.9,0.8,1.4,1.9,1.4,3.3v1.2H919.8z M912.3,200h5.5c0-0.8-0.3-1.4-0.8-1.9s-1.1-0.6-1.9-0.6s-1.4,0.2-2,0.7
		C912.6,198.6,912.3,199.2,912.3,200z"/>
	<path style="fill:#2FD28E;" d="M927,197.8c-1,0-1.7,0.3-2.3,1c-0.5,0.6-0.8,1.5-0.8,2.6v4.1h-2v-9.6h2v1.9c0.3-0.6,0.8-1.1,1.3-1.5
		c0.6-0.4,1.2-0.6,1.8-0.6v2C927.1,197.8,927.1,197.8,927,197.8z"/>
</g>
<g id="Support" style="enable-background:new    ;">
	<path style="fill:#2FD28E;" d="M843.6,218.6c-0.6,0-1.1,0.1-1.5,0.4s-0.6,0.6-0.6,1.1s0.2,0.9,0.6,1.2c0.4,0.3,1.2,0.6,2.5,0.9
		c1.3,0.3,2.3,0.8,2.9,1.3c0.7,0.6,1,1.4,1,2.5s-0.4,2-1.2,2.7s-1.9,1-3.3,1c-2,0-3.7-0.7-5.2-2l1.3-1.6c1.3,1.1,2.6,1.7,4,1.7
		c0.7,0,1.2-0.1,1.6-0.4c0.4-0.3,0.6-0.7,0.6-1.2s-0.2-0.9-0.6-1.1c-0.4-0.3-1-0.5-2-0.7c-0.9-0.2-1.6-0.4-2.1-0.6s-0.9-0.4-1.3-0.7
		c-0.7-0.6-1.1-1.4-1.1-2.6c0-1.2,0.4-2.1,1.3-2.7s1.9-0.9,3.1-0.9c0.8,0,1.6,0.1,2.4,0.4c0.8,0.3,1.5,0.6,2.1,1.1L847,220
		c-0.4-0.3-0.9-0.6-1.5-0.8C844.8,218.7,844.2,218.6,843.6,218.6z"/>
	<path style="fill:#2FD28E;" d="M857.4,225.1v-5.2h2v9.6h-2v-1.7c-0.3,0.6-0.8,1.1-1.3,1.4c-0.6,0.3-1.2,0.5-1.8,0.5
		c-1.1,0-2-0.3-2.6-1c-0.7-0.7-1-1.6-1-2.9v-5.9h2v5.3c0,1.8,0.7,2.6,2.2,2.6c0.7,0,1.3-0.2,1.8-0.7
		C857.2,226.7,857.4,226,857.4,225.1z"/>
	<path style="fill:#2FD28E;" d="M867.5,219.8c1.3,0,2.4,0.4,3.3,1.3c0.9,0.9,1.4,2.1,1.4,3.5c0,1.5-0.5,2.7-1.4,3.6s-2,1.4-3.2,1.4
		s-2.3-0.5-3.3-1.6v4.9h-2v-13.1h2v1.7C865.2,220.4,866.2,219.8,867.5,219.8z M864.4,224.7c0,0.9,0.3,1.7,0.8,2.2
		c0.6,0.6,1.2,0.9,2,0.9s1.5-0.3,2.1-0.9s0.9-1.3,0.9-2.2s-0.3-1.7-0.9-2.3c-0.6-0.6-1.3-0.9-2.1-0.9s-1.5,0.3-2,0.9
		C864.6,223,864.4,223.8,864.4,224.7z"/>
	<path style="fill:#2FD28E;" d="M879.6,219.8c1.3,0,2.4,0.4,3.3,1.3c0.9,0.9,1.4,2.1,1.4,3.5c0,1.5-0.5,2.7-1.4,3.6s-2,1.4-3.2,1.4
		s-2.3-0.5-3.3-1.6v4.9h-2v-13.1h2v1.7C877.3,220.4,878.3,219.8,879.6,219.8z M876.5,224.7c0,0.9,0.3,1.7,0.8,2.2
		c0.6,0.6,1.2,0.9,2,0.9s1.5-0.3,2.1-0.9s0.9-1.3,0.9-2.2s-0.3-1.7-0.9-2.3c-0.6-0.6-1.3-0.9-2.1-0.9s-1.5,0.3-2,0.9
		C876.8,223,876.5,223.8,876.5,224.7z"/>
	<path style="fill:#2FD28E;" d="M894.6,228.2c-1,1-2.2,1.4-3.6,1.4c-1.4,0-2.6-0.5-3.6-1.4c-1-1-1.4-2.1-1.4-3.5s0.5-2.5,1.4-3.5
		c1-1,2.2-1.4,3.6-1.4c1.4,0,2.6,0.5,3.6,1.4c1,1,1.4,2.1,1.4,3.5S895.6,227.2,894.6,228.2z M888.8,227c0.6,0.6,1.3,0.9,2.2,0.9
		s1.6-0.3,2.2-0.9c0.6-0.6,0.9-1.3,0.9-2.3s-0.3-1.7-0.9-2.3c-0.6-0.6-1.3-0.9-2.2-0.9s-1.6,0.3-2.2,0.9c-0.6,0.6-0.9,1.3-0.9,2.3
		S888.3,226.4,888.8,227z"/>
	<path style="fill:#2FD28E;" d="M903.4,221.8c-1,0-1.7,0.3-2.3,1c-0.5,0.6-0.8,1.5-0.8,2.6v4.1h-2v-9.6h2v1.9
		c0.3-0.6,0.8-1.1,1.3-1.5c0.6-0.4,1.2-0.6,1.8-0.6v2C903.5,221.8,903.4,221.8,903.4,221.8z"/>
	<path style="fill:#2FD28E;" d="M908,221.5v4.9c0,0.5,0.1,0.8,0.4,1.1c0.2,0.3,0.6,0.4,1,0.4s0.8-0.2,1.2-0.6l0.8,1.4
		c-0.7,0.6-1.5,1-2.4,1s-1.6-0.3-2.2-0.9c-0.6-0.6-0.9-1.4-0.9-2.4v-4.8h-1.2V220h1.2v-3h2v3h2.5v1.6L908,221.5L908,221.5z"/>
</g>
<rect id="box_copy_58-8" x="1325.5" y="167.5" style="fill:none;stroke:#2FD28E;" width="174" height="90"/>
<g id="FLEX" style="enable-background:new    ;">
	<path style="fill:#2FD28E;" d="M1392.9,207.9v3.5h5.6v2h-5.6v5.2h-2.1V206h8.4v2L1392.9,207.9L1392.9,207.9z"/>
	<path style="fill:#2FD28E;" d="M1401.7,218.5v-12.6h2.1v10.6h5.7v2H1401.7z"/>
	<path style="fill:#2FD28E;" d="M1420.7,205.9v2h-6.7v3.3h6v1.9h-6v3.4h6.9v2h-9.1v-12.6L1420.7,205.9L1420.7,205.9z"/>
	<path style="fill:#2FD28E;" d="M1431.1,218.5l-3.1-4.7h-0.1l-3.1,4.7h-2.6l4.3-6.5l-4-6.1h2.6l2.8,4.2h0.1l2.8-4.2h2.6l-4,6.1
		l4.3,6.5H1431.1z"/>
</g>
<circle id="Ellipse_3_copy_2" style="fill:#E64343;stroke:#E64343;stroke-width:3;stroke-linecap:round;stroke-linejoin:round;" cx="528.5" cy="638.5" r="6"/>
<circle id="Ellipse_3_copy_2-2" style="fill:#E64343;stroke:#E64343;stroke-width:3;stroke-linecap:round;stroke-linejoin:round;" cx="974.5" cy="638.5" r="6"/>
</svg>
