<?xml version="1.0" encoding="utf-8"?>
<!-- Generator: Adobe Illustrator 20.0.0, SVG Export Plug-In . SVG Version: 6.00 Build 0)  -->
<svg version="1.1" id="Layer_1" xmlns="http://www.w3.org/2000/svg" xmlns:xlink="http://www.w3.org/1999/xlink" x="0px" y="0px"
	 width="544px" height="544px" viewBox="0 0 544 544" style="enable-background:new 0 0 544 544;" xml:space="preserve">
<g style="opacity:0.52;">
	<line style="fill:none;stroke:#9D9D9C;stroke-miterlimit:10;" x1="119.67" y1="88" x2="417.33" y2="88"/>
	<line style="fill:none;stroke:#9D9D9C;stroke-miterlimit:10;" x1="417.33" y1="88" x2="480" y2="350"/>
	<line style="fill:none;stroke:#9D9D9C;stroke-miterlimit:10;" x1="480" y1="350" x2="268.5" y2="437"/>
	<line style="fill:none;stroke:#9D9D9C;stroke-miterlimit:10;" x1="268.5" y1="437" x2="58" y2="350"/>
	<line style="fill:none;stroke:#9D9D9C;stroke-miterlimit:10;" x1="58" y1="350" x2="119.67" y2="88"/>
	<line style="fill:none;stroke:#9D9D9C;stroke-miterlimit:10;" x1="268.5" y1="74" x2="480" y2="192.67"/>
	<line style="fill:none;stroke:#9D9D9C;stroke-miterlimit:10;" x1="480" y1="192.67" x2="417.33" y2="418.67"/>
	<line style="fill:none;stroke:#9D9D9C;stroke-miterlimit:10;" x1="417.33" y1="418.67" x2="119.67" y2="418.67"/>
	<line style="fill:none;stroke:#9D9D9C;stroke-miterlimit:10;" x1="119.67" y1="418.67" x2="58" y2="192.67"/>
	<line style="fill:none;stroke:#9D9D9C;stroke-miterlimit:10;" x1="58" y1="192.67" x2="268.5" y2="74"/>
	<line style="fill:none;stroke:#9D9D9C;stroke-miterlimit:10;" x1="268.5" y1="74" x2="268.5" y2="437"/>
	<line style="fill:none;stroke:#9D9D9C;stroke-miterlimit:10;" x1="58" y1="350" x2="480" y2="350"/>
	<line style="fill:none;stroke:#9D9D9C;stroke-miterlimit:10;" x1="58" y1="192.67" x2="480" y2="192.67"/>
	<line style="fill:none;stroke:#9D9D9C;stroke-miterlimit:10;" x1="119.67" y1="88" x2="480" y2="350"/>
	<line style="fill:none;stroke:#9D9D9C;stroke-miterlimit:10;" x1="58" y1="350" x2="417.33" y2="88"/>
	<line style="fill:none;stroke:#9D9D9C;stroke-miterlimit:10;" x1="119.67" y1="88" x2="417.33" y2="418.67"/>
	<line style="fill:none;stroke:#9D9D9C;stroke-miterlimit:10;" x1="119.67" y1="418.67" x2="417.33" y2="88"/>
	<line style="fill:none;stroke:#9D9D9C;stroke-miterlimit:10;" x1="268.5" y1="74" x2="480" y2="350"/>
	<line style="fill:none;stroke:#9D9D9C;stroke-miterlimit:10;" x1="480" y1="192.67" x2="268.5" y2="437"/>
	<line style="fill:none;stroke:#9D9D9C;stroke-miterlimit:10;" x1="58" y1="192.67" x2="417.33" y2="418.67"/>
	<line style="fill:none;stroke:#9D9D9C;stroke-miterlimit:10;" x1="58" y1="350" x2="417.33" y2="418.67"/>
	<line style="fill:none;stroke:#9D9D9C;stroke-miterlimit:10;" x1="119.67" y1="88" x2="480" y2="192.67"/>
	<line style="fill:none;stroke:#9D9D9C;stroke-miterlimit:10;" x1="480" y1="192.67" x2="58" y2="350"/>
	<line style="fill:none;stroke:#9D9D9C;stroke-miterlimit:10;" x1="119.67" y1="88" x2="268.5" y2="437"/>
	<line style="fill:none;stroke:#9D9D9C;stroke-miterlimit:10;" x1="268.5" y1="74" x2="417.33" y2="418.67"/>
	<line style="fill:none;stroke:#9D9D9C;stroke-miterlimit:10;" x1="58" y1="192.67" x2="417.33" y2="88"/>
	<line style="fill:none;stroke:#9D9D9C;stroke-miterlimit:10;" x1="268.5" y1="74" x2="119.67" y2="418.67"/>
	<line style="fill:none;stroke:#9D9D9C;stroke-miterlimit:10;" x1="58" y1="350" x2="268.5" y2="74"/>
	<line style="fill:none;stroke:#9D9D9C;stroke-miterlimit:10;" x1="480" y1="192.67" x2="119.67" y2="418.67"/>
	<line style="fill:none;stroke:#9D9D9C;stroke-miterlimit:10;" x1="119.67" y1="418.67" x2="480" y2="350"/>
	<line style="fill:none;stroke:#9D9D9C;stroke-miterlimit:10;" x1="480" y1="350" x2="58" y2="192.67"/>
	<line style="fill:none;stroke:#9D9D9C;stroke-miterlimit:10;" x1="58" y1="192.67" x2="268.5" y2="437"/>
	<line style="fill:none;stroke:#9D9D9C;stroke-miterlimit:10;" x1="268.5" y1="437" x2="417.33" y2="88"/>
</g>
<line style="fill:none;stroke:#9D9D9C;stroke-width:2;stroke-linecap:round;stroke-linejoin:round;stroke-miterlimit:10;" x1="268" y1="272.49" x2="124.5" y2="201.5"/>
<line style="fill:none;stroke:#9D9D9C;stroke-width:2;stroke-linecap:round;stroke-linejoin:round;stroke-miterlimit:10;" x1="124.5" y1="201.5" x2="124.5" y2="365"/>
<line style="fill:none;stroke:#9D9D9C;stroke-width:2;stroke-linecap:round;stroke-linejoin:round;stroke-miterlimit:10;" x1="124.5" y1="365" x2="268.67" y2="434.5"/>
<line style="fill:none;stroke:#9D9D9C;stroke-width:2;stroke-linecap:round;stroke-linejoin:round;stroke-miterlimit:10;" x1="268.67" y1="434.5" x2="268.67" y2="272.49"/>
<line style="fill:none;stroke:#9D9D9C;stroke-width:2;stroke-linecap:round;stroke-linejoin:round;stroke-miterlimit:10;" x1="124.5" y1="201.5" x2="268.67" y2="131"/>
<line style="fill:none;stroke:#9D9D9C;stroke-width:2;stroke-linecap:round;stroke-linejoin:round;stroke-miterlimit:10;" x1="269.17" y1="272.49" x2="412.67" y2="201.5"/>
<line style="fill:none;stroke:#9D9D9C;stroke-width:2;stroke-linecap:round;stroke-linejoin:round;stroke-miterlimit:10;" x1="412.67" y1="201.5" x2="412.67" y2="365"/>
<line style="fill:none;stroke:#9D9D9C;stroke-width:2;stroke-linecap:round;stroke-linejoin:round;stroke-miterlimit:10;" x1="412.67" y1="365" x2="268.5" y2="434.5"/>
<line style="fill:none;stroke:#9D9D9C;stroke-width:2;stroke-linecap:round;stroke-linejoin:round;stroke-miterlimit:10;" x1="412.67" y1="201.5" x2="268.5" y2="131"/>
<circle style="fill:#9D9D9C;stroke:#9D9D9C;stroke-width:2;stroke-miterlimit:10;" cx="268.5" cy="434.5" r="2.5"/>
<circle style="fill:#9D9D9C;stroke:#9D9D9C;stroke-width:2;stroke-miterlimit:10;" cx="124.5" cy="365" r="2.5"/>
<line style="fill:none;stroke:#9D9D9C;stroke-width:2;stroke-miterlimit:10;" x1="124.83" y1="201.5" x2="83.5" y2="242.5"/>
<line style="fill:none;stroke:#9D9D9C;stroke-width:2;stroke-miterlimit:10;" x1="268.44" y1="271.38" x2="227.67" y2="311.49"/>
<line style="fill:none;stroke:#9D9D9C;stroke-width:2;stroke-miterlimit:10;" x1="83.5" y1="242.5" x2="227.67" y2="311.49"/>
<circle style="fill:#9D9D9C;stroke:#9D9D9C;stroke-width:2;stroke-miterlimit:10;" cx="227.67" cy="311.49" r="2.5"/>
<circle style="fill:#9D9D9C;stroke:#9D9D9C;stroke-width:2;stroke-miterlimit:10;" cx="83.5" cy="242.5" r="2.5"/>
<line style="fill:none;stroke:#9D9D9C;stroke-width:2;stroke-miterlimit:10;" x1="412.5" y1="201.5" x2="453.83" y2="242.5"/>
<line style="fill:none;stroke:#9D9D9C;stroke-width:2;stroke-miterlimit:10;" x1="268.44" y1="271.38" x2="308.81" y2="311.13"/>
<line style="fill:none;stroke:#9D9D9C;stroke-width:2;stroke-miterlimit:10;" x1="453.83" y1="242.5" x2="309.67" y2="311.49"/>
<circle style="fill:#9D9D9C;stroke:#9D9D9C;stroke-width:2;stroke-miterlimit:10;" cx="309.67" cy="311.49" r="2.5"/>
<circle style="fill:#9D9D9C;stroke:#9D9D9C;stroke-width:2;stroke-miterlimit:10;" cx="453.83" cy="242.5" r="2.5"/>
<circle style="fill:#9D9D9C;stroke:#9D9D9C;stroke-width:2;stroke-miterlimit:10;" cx="268.5" cy="272.49" r="2.5"/>
<line style="fill:none;stroke:#9D9D9C;stroke-width:2;stroke-miterlimit:10;" x1="124.5" y1="201.5" x2="93.33" y2="161"/>
<line style="fill:none;stroke:#9D9D9C;stroke-width:2;stroke-miterlimit:10;" x1="268" y1="131" x2="236.83" y2="90.5"/>
<line style="fill:none;stroke:#9D9D9C;stroke-width:2;stroke-miterlimit:10;" x1="236.83" y1="90.5" x2="93.33" y2="161"/>
<circle style="fill:#9D9D9C;stroke:#9D9D9C;stroke-width:2;stroke-miterlimit:10;" cx="236.83" cy="90.5" r="2.5"/>
<circle style="fill:#9D9D9C;stroke:#9D9D9C;stroke-width:2;stroke-miterlimit:10;" cx="93.58" cy="161" r="2.5"/>
<circle style="fill:#9D9D9C;stroke:#9D9D9C;stroke-width:2;stroke-miterlimit:10;" cx="124.83" cy="201.5" r="2.5"/>
<line style="fill:none;stroke:#9D9D9C;stroke-width:2;stroke-miterlimit:10;" x1="412.67" y1="201.5" x2="443.83" y2="161"/>
<line style="fill:none;stroke:#9D9D9C;stroke-width:2;stroke-miterlimit:10;" x1="269.17" y1="131" x2="300.33" y2="90.5"/>
<line style="fill:none;stroke:#9D9D9C;stroke-width:2;stroke-miterlimit:10;" x1="300.33" y1="90.5" x2="443.83" y2="161"/>
<circle style="fill:#9D9D9C;stroke:#9D9D9C;stroke-width:2;stroke-miterlimit:10;" cx="300.33" cy="90.5" r="2.5"/>
<circle style="fill:#9D9D9C;stroke:#9D9D9C;stroke-width:2;stroke-miterlimit:10;" cx="443.58" cy="161" r="2.5"/>
<circle style="fill:#9D9D9C;stroke:#9D9D9C;stroke-width:2;stroke-miterlimit:10;" cx="268.5" cy="131" r="2.5"/>
<circle style="fill:#9D9D9C;stroke:#9D9D9C;stroke-width:2;stroke-miterlimit:10;" cx="412.67" cy="201.5" r="2.5"/>
<circle style="fill:#9D9D9C;stroke:#9D9D9C;stroke-width:2;stroke-miterlimit:10;" cx="412.84" cy="365" r="2.5"/>
</svg>
