<?xml version="1.0" encoding="utf-8"?>
<!-- Generator: Adobe Illustrator 20.0.0, SVG Export Plug-In . SVG Version: 6.00 Build 0)  -->
<svg version="1.1" id="Layer_1" xmlns="http://www.w3.org/2000/svg" xmlns:xlink="http://www.w3.org/1999/xlink" x="0px" y="0px"
	 width="544px" height="544px" viewBox="0 0 544 544" style="enable-background:new 0 0 544 544;" xml:space="preserve">
<g style="opacity:0.52;">
	<line style="fill:none;stroke:#9D9D9C;stroke-miterlimit:10;" x1="119.67" y1="88" x2="417.33" y2="88"/>
	<line style="fill:none;stroke:#9D9D9C;stroke-miterlimit:10;" x1="417.33" y1="88" x2="480" y2="350"/>
	<line style="fill:none;stroke:#9D9D9C;stroke-miterlimit:10;" x1="480" y1="350" x2="268.5" y2="437"/>
	<line style="fill:none;stroke:#9D9D9C;stroke-miterlimit:10;" x1="268.5" y1="437" x2="58" y2="350"/>
	<line style="fill:none;stroke:#9D9D9C;stroke-miterlimit:10;" x1="58" y1="350" x2="119.67" y2="88"/>
	<line style="fill:none;stroke:#9D9D9C;stroke-miterlimit:10;" x1="268.5" y1="74" x2="480" y2="192.67"/>
	<line style="fill:none;stroke:#9D9D9C;stroke-miterlimit:10;" x1="480" y1="192.67" x2="417.33" y2="418.67"/>
	<line style="fill:none;stroke:#9D9D9C;stroke-miterlimit:10;" x1="417.33" y1="418.67" x2="119.67" y2="418.67"/>
	<line style="fill:none;stroke:#9D9D9C;stroke-miterlimit:10;" x1="119.67" y1="418.67" x2="58" y2="192.67"/>
	<line style="fill:none;stroke:#9D9D9C;stroke-miterlimit:10;" x1="58" y1="192.67" x2="268.5" y2="74"/>
	<line style="fill:none;stroke:#9D9D9C;stroke-miterlimit:10;" x1="268.5" y1="74" x2="268.5" y2="437"/>
	<line style="fill:none;stroke:#9D9D9C;stroke-miterlimit:10;" x1="58" y1="350" x2="480" y2="350"/>
	<line style="fill:none;stroke:#9D9D9C;stroke-miterlimit:10;" x1="58" y1="192.67" x2="480" y2="192.67"/>
	<line style="fill:none;stroke:#9D9D9C;stroke-miterlimit:10;" x1="119.67" y1="88" x2="480" y2="350"/>
	<line style="fill:none;stroke:#9D9D9C;stroke-miterlimit:10;" x1="58" y1="350" x2="417.33" y2="88"/>
	<line style="fill:none;stroke:#9D9D9C;stroke-miterlimit:10;" x1="119.67" y1="88" x2="417.33" y2="418.67"/>
	<line style="fill:none;stroke:#9D9D9C;stroke-miterlimit:10;" x1="119.67" y1="418.67" x2="417.33" y2="88"/>
	<line style="fill:none;stroke:#9D9D9C;stroke-miterlimit:10;" x1="268.5" y1="74" x2="480" y2="350"/>
	<line style="fill:none;stroke:#9D9D9C;stroke-miterlimit:10;" x1="480" y1="192.67" x2="268.5" y2="437"/>
	<line style="fill:none;stroke:#9D9D9C;stroke-miterlimit:10;" x1="58" y1="192.67" x2="417.33" y2="418.67"/>
	<line style="fill:none;stroke:#9D9D9C;stroke-miterlimit:10;" x1="58" y1="350" x2="417.33" y2="418.67"/>
	<line style="fill:none;stroke:#9D9D9C;stroke-miterlimit:10;" x1="119.67" y1="88" x2="480" y2="192.67"/>
	<line style="fill:none;stroke:#9D9D9C;stroke-miterlimit:10;" x1="480" y1="192.67" x2="58" y2="350"/>
	<line style="fill:none;stroke:#9D9D9C;stroke-miterlimit:10;" x1="119.67" y1="88" x2="268.5" y2="437"/>
	<line style="fill:none;stroke:#9D9D9C;stroke-miterlimit:10;" x1="268.5" y1="74" x2="417.33" y2="418.67"/>
	<line style="fill:none;stroke:#9D9D9C;stroke-miterlimit:10;" x1="58" y1="192.67" x2="417.33" y2="88"/>
	<line style="fill:none;stroke:#9D9D9C;stroke-miterlimit:10;" x1="268.5" y1="74" x2="119.67" y2="418.67"/>
	<line style="fill:none;stroke:#9D9D9C;stroke-miterlimit:10;" x1="58" y1="350" x2="268.5" y2="74"/>
	<line style="fill:none;stroke:#9D9D9C;stroke-miterlimit:10;" x1="480" y1="192.67" x2="119.67" y2="418.67"/>
	<line style="fill:none;stroke:#9D9D9C;stroke-miterlimit:10;" x1="119.67" y1="418.67" x2="480" y2="350"/>
	<line style="fill:none;stroke:#9D9D9C;stroke-miterlimit:10;" x1="480" y1="350" x2="58" y2="192.67"/>
	<line style="fill:none;stroke:#9D9D9C;stroke-miterlimit:10;" x1="58" y1="192.67" x2="268.5" y2="437"/>
	<line style="fill:none;stroke:#9D9D9C;stroke-miterlimit:10;" x1="268.5" y1="437" x2="417.33" y2="88"/>
</g>
<line style="fill:none;stroke:#9D9D9C;stroke-width:2;stroke-linecap:round;stroke-linejoin:round;stroke-miterlimit:10;" x1="268" y1="272.49" x2="124.5" y2="201.5"/>
<line style="fill:none;stroke:#9D9D9C;stroke-width:2;stroke-linecap:round;stroke-linejoin:round;stroke-miterlimit:10;" x1="124.5" y1="201.5" x2="124.5" y2="365"/>
<line style="fill:none;stroke:#9D9D9C;stroke-width:2;stroke-linecap:round;stroke-linejoin:round;stroke-miterlimit:10;" x1="124.5" y1="365" x2="268.67" y2="434.5"/>
<line style="fill:none;stroke:#9D9D9C;stroke-width:2;stroke-linecap:round;stroke-linejoin:round;stroke-miterlimit:10;" x1="268.67" y1="434.5" x2="268.67" y2="272.49"/>
<g>
	
		<polyline style="fill:none;stroke:#9D9D9C;stroke-width:2;stroke-linecap:round;stroke-linejoin:round;stroke-miterlimit:10;" points="
		203.67,310.66 203.67,277.66 179.5,265.71 179.5,298.71 	"/>
	
		<polyline style="fill:none;stroke:#9D9D9C;stroke-width:2;stroke-linecap:round;stroke-linejoin:round;stroke-miterlimit:10;" points="
		203.67,277.66 203.67,310.66 227.67,322.54 	"/>
	<path style="fill:none;stroke:#9D9D9C;stroke-width:2;stroke-linecap:round;stroke-linejoin:round;stroke-miterlimit:10;" d="
		M203.67,310.66"/>
	
		<polyline style="fill:none;stroke:#9D9D9C;stroke-width:2;stroke-linecap:round;stroke-linejoin:round;stroke-miterlimit:10;" points="
		203.67,343.16 227.67,354.73 227.67,322.54 203.67,310.66 	"/>
	
		<polyline style="fill:none;stroke:#9D9D9C;stroke-width:2;stroke-linecap:round;stroke-linejoin:round;stroke-miterlimit:10;" points="
		156.5,287.33 179.5,298.71 179.5,265.71 	"/>
	
		<polyline style="fill:none;stroke:#9D9D9C;stroke-width:2;stroke-linecap:round;stroke-linejoin:round;stroke-miterlimit:10;" points="
		227.67,354.73 203.67,343.16 203.67,373.66 	"/>
	
		<polyline style="fill:none;stroke:#9D9D9C;stroke-width:2;stroke-linecap:round;stroke-linejoin:round;stroke-miterlimit:10;" points="
		179.5,331.51 179.5,361.71 203.67,373.66 203.67,343.16 	"/>
	
		<polyline style="fill:none;stroke:#9D9D9C;stroke-width:2;stroke-linecap:round;stroke-linejoin:round;stroke-miterlimit:10;" points="
		179.5,361.71 179.5,331.51 156.5,320.43 	"/>
	
		<polyline style="fill:none;stroke:#9D9D9C;stroke-width:2;stroke-linecap:round;stroke-linejoin:round;stroke-miterlimit:10;" points="
		179.5,298.71 156.5,287.33 156.5,320.43 179.5,331.51 	"/>
</g>
<line style="fill:none;stroke:#9D9D9C;stroke-width:2;stroke-linecap:round;stroke-linejoin:round;stroke-miterlimit:10;" x1="124.5" y1="201.5" x2="268.67" y2="131"/>
<line style="fill:none;stroke:#9D9D9C;stroke-width:2;stroke-linecap:round;stroke-linejoin:round;stroke-miterlimit:10;" x1="269.17" y1="272.49" x2="412.67" y2="201.5"/>
<line style="fill:none;stroke:#9D9D9C;stroke-width:2;stroke-linecap:round;stroke-linejoin:round;stroke-miterlimit:10;" x1="412.67" y1="201.5" x2="412.67" y2="365"/>
<line style="fill:none;stroke:#9D9D9C;stroke-width:2;stroke-linecap:round;stroke-linejoin:round;stroke-miterlimit:10;" x1="412.67" y1="365" x2="268.5" y2="434.5"/>
<line style="fill:none;stroke:#9D9D9C;stroke-width:2;stroke-linecap:round;stroke-linejoin:round;stroke-miterlimit:10;" x1="412.67" y1="201.5" x2="268.5" y2="131"/>
<circle style="fill:#9D9D9C;stroke:#9D9D9C;stroke-width:2;stroke-miterlimit:10;" cx="268.5" cy="434.5" r="2.5"/>
<circle style="fill:#9D9D9C;stroke:#9D9D9C;stroke-width:2;stroke-miterlimit:10;" cx="124.5" cy="365" r="2.5"/>
<circle style="fill:#9D9D9C;stroke:#9D9D9C;stroke-width:2;stroke-miterlimit:10;" cx="268.5" cy="272.49" r="2.5"/>
<circle style="fill:#9D9D9C;stroke:#9D9D9C;stroke-width:2;stroke-miterlimit:10;" cx="124.83" cy="201.5" r="2.5"/>
<circle style="fill:#9D9D9C;stroke:#9D9D9C;stroke-width:2;stroke-miterlimit:10;" cx="268.5" cy="131" r="2.5"/>
<circle style="fill:#9D9D9C;stroke:#9D9D9C;stroke-width:2;stroke-miterlimit:10;" cx="412.67" cy="201.5" r="2.5"/>
<line style="fill:none;stroke:#9D9D9C;stroke-width:2;stroke-miterlimit:10;" x1="268.67" y1="131" x2="268" y2="272.49"/>
<line style="fill:none;stroke:#9D9D9C;stroke-width:2;stroke-miterlimit:10;" x1="122.33" y1="201.5" x2="410.17" y2="201.5"/>
<circle style="fill:#9D9D9C;stroke:#9D9D9C;stroke-width:2;stroke-miterlimit:10;" cx="179.88" cy="265.71" r="2.5"/>
<circle style="fill:#9D9D9C;stroke:#9D9D9C;stroke-width:2;stroke-miterlimit:10;" cx="203.67" cy="277.66" r="2.5"/>
<circle style="fill:#9D9D9C;stroke:#9D9D9C;stroke-width:2;stroke-miterlimit:10;" cx="227.67" cy="322.54" r="2.5"/>
<circle style="fill:#9D9D9C;stroke:#9D9D9C;stroke-width:2;stroke-miterlimit:10;" cx="156.5" cy="287.33" r="2.5"/>
<circle style="fill:#9D9D9C;stroke:#9D9D9C;stroke-width:2;stroke-miterlimit:10;" cx="156.5" cy="320.04" r="2.5"/>
<circle style="fill:#9D9D9C;stroke:#9D9D9C;stroke-width:2;stroke-miterlimit:10;" cx="203.67" cy="373.66" r="2.5"/>
<circle style="fill:#9D9D9C;stroke:#9D9D9C;stroke-width:2;stroke-miterlimit:10;" cx="227.67" cy="354.73" r="2.5"/>
<circle style="fill:#9D9D9C;stroke:#9D9D9C;stroke-width:2;stroke-miterlimit:10;" cx="179.5" cy="361.71" r="2.5"/>
<g>
	
		<polyline style="fill:none;stroke:#9D9D9C;stroke-width:2;stroke-linecap:round;stroke-linejoin:round;stroke-miterlimit:10;" points="
		333.5,310.66 333.5,277.66 357.67,265.71 357.67,298.71 	"/>
	
		<polyline style="fill:none;stroke:#9D9D9C;stroke-width:2;stroke-linecap:round;stroke-linejoin:round;stroke-miterlimit:10;" points="
		333.5,277.66 333.5,310.66 309.5,322.54 	"/>
	<path style="fill:none;stroke:#9D9D9C;stroke-width:2;stroke-linecap:round;stroke-linejoin:round;stroke-miterlimit:10;" d="
		M333.5,310.66"/>
	<path style="fill:none;stroke:#9D9D9C;stroke-width:2;stroke-linecap:round;stroke-linejoin:round;stroke-miterlimit:10;" d="
		M333.5,343.16"/>
	<path style="fill:none;stroke:#9D9D9C;stroke-width:2;stroke-linecap:round;stroke-linejoin:round;stroke-miterlimit:10;" d="
		M357.67,331.51"/>
	<path style="fill:none;stroke:#9D9D9C;stroke-width:2;stroke-linecap:round;stroke-linejoin:round;stroke-miterlimit:10;" d="
		M357.67,298.71"/>
	
		<polyline style="fill:none;stroke:#9D9D9C;stroke-width:2;stroke-linecap:round;stroke-linejoin:round;stroke-miterlimit:10;" points="
		333.5,343.16 309.5,354.73 309.5,322.54 333.5,310.66 	"/>
	
		<polyline style="fill:none;stroke:#9D9D9C;stroke-width:2;stroke-linecap:round;stroke-linejoin:round;stroke-miterlimit:10;" points="
		380.67,287.33 357.67,298.71 357.67,265.71 	"/>
	
		<polyline style="fill:none;stroke:#9D9D9C;stroke-width:2;stroke-linecap:round;stroke-linejoin:round;stroke-miterlimit:10;" points="
		309.5,354.73 333.5,343.16 333.5,373.66 	"/>
	
		<polyline style="fill:none;stroke:#9D9D9C;stroke-width:2;stroke-linecap:round;stroke-linejoin:round;stroke-miterlimit:10;" points="
		357.67,331.51 357.67,361.71 333.5,373.66 333.5,343.16 	"/>
	
		<polyline style="fill:none;stroke:#9D9D9C;stroke-width:2;stroke-linecap:round;stroke-linejoin:round;stroke-miterlimit:10;" points="
		357.67,361.71 357.67,331.51 380.67,320.43 	"/>
	
		<polyline style="fill:none;stroke:#9D9D9C;stroke-width:2;stroke-linecap:round;stroke-linejoin:round;stroke-miterlimit:10;" points="
		357.67,298.71 380.67,287.33 380.67,320.43 357.67,331.51 	"/>
</g>
<circle style="fill:#9D9D9C;stroke:#9D9D9C;stroke-width:2;stroke-miterlimit:10;" cx="357.29" cy="265.71" r="2.5"/>
<circle style="fill:#9D9D9C;stroke:#9D9D9C;stroke-width:2;stroke-miterlimit:10;" cx="333.5" cy="277.66" r="2.5"/>
<circle style="fill:#9D9D9C;stroke:#9D9D9C;stroke-width:2;stroke-miterlimit:10;" cx="309.5" cy="322.54" r="2.5"/>
<circle style="fill:#9D9D9C;stroke:#9D9D9C;stroke-width:2;stroke-miterlimit:10;" cx="380.67" cy="287.33" r="2.5"/>
<circle style="fill:#9D9D9C;stroke:#9D9D9C;stroke-width:2;stroke-miterlimit:10;" cx="380.67" cy="320.04" r="2.5"/>
<circle style="fill:#9D9D9C;stroke:#9D9D9C;stroke-width:2;stroke-miterlimit:10;" cx="333.5" cy="373.66" r="2.5"/>
<circle style="fill:#9D9D9C;stroke:#9D9D9C;stroke-width:2;stroke-miterlimit:10;" cx="309.5" cy="354.73" r="2.5"/>
<circle style="fill:#9D9D9C;stroke:#9D9D9C;stroke-width:2;stroke-miterlimit:10;" cx="357.67" cy="361.71" r="2.5"/>
<circle style="fill:#9D9D9C;stroke:#9D9D9C;stroke-width:2;stroke-miterlimit:10;" cx="333.5" cy="310.66" r="2.5"/>
<circle style="fill:#9D9D9C;stroke:#9D9D9C;stroke-width:2;stroke-miterlimit:10;" cx="357.75" cy="298.71" r="2.5"/>
<circle style="fill:#9D9D9C;stroke:#9D9D9C;stroke-width:2;stroke-miterlimit:10;" cx="357.75" cy="331.51" r="2.5"/>
<circle style="fill:#9D9D9C;stroke:#9D9D9C;stroke-width:2;stroke-miterlimit:10;" cx="333.5" cy="343.16" r="2.5"/>
<circle style="fill:#9D9D9C;stroke:#9D9D9C;stroke-width:2;stroke-miterlimit:10;" cx="203.67" cy="310.66" r="2.5"/>
<circle style="fill:#9D9D9C;stroke:#9D9D9C;stroke-width:2;stroke-miterlimit:10;" cx="179.5" cy="298.71" r="2.5"/>
<circle style="fill:#9D9D9C;stroke:#9D9D9C;stroke-width:2;stroke-miterlimit:10;" cx="179.5" cy="331.51" r="2.5"/>
<circle style="fill:#9D9D9C;stroke:#9D9D9C;stroke-width:2;stroke-miterlimit:10;" cx="203.67" cy="343.16" r="2.5"/>
<circle style="fill:#9D9D9C;stroke:#9D9D9C;stroke-width:2;stroke-miterlimit:10;" cx="412.67" cy="365" r="2.5"/>
</svg>
