<?xml version="1.0" encoding="utf-8"?>
<!-- Generator: Adobe Illustrator 18.1.1, SVG Export Plug-In . SVG Version: 6.00 Build 0)  -->
<!DOCTYPE svg PUBLIC "-//W3C//DTD SVG 1.1//EN" "http://www.w3.org/Graphics/SVG/1.1/DTD/svg11.dtd">
<svg version="1.1" id="Layer_1" xmlns="http://www.w3.org/2000/svg" xmlns:xlink="http://www.w3.org/1999/xlink" x="0px" y="0px"
	 viewBox="0 0 450.5 450.9" enable-background="new 0 0 450.5 450.9" xml:space="preserve">
<g>
	
		<circle fill="none" stroke="#808080" stroke-width="0.75" stroke-miterlimit="9" stroke-dasharray="1.003,8.0241" cx="226" cy="228.1" r="166.7"/>
</g>
<circle fill="none" stroke="#808080" stroke-width="0.75" stroke-miterlimit="9" cx="226" cy="228.1" r="207"/>
<circle fill="none" stroke="#808080" stroke-width="0.75" stroke-miterlimit="9" cx="226" cy="228.1" r="218.1"/>
<path fill="none" stroke="#808080" stroke-width="0.75" d="M225.9,108.5c-66.1,0-119.7,53.6-119.7,119.7
	c0,66.1,53.6,119.7,119.7,119.7c66.1,0,119.7-53.6,119.7-119.7C345.6,162.1,292,108.5,225.9,108.5L225.9,108.5z"/>
<g>
	<polygon fill="none" stroke="#808080" stroke-width="0.75" stroke-miterlimit="12" points="325.7,225.2 335.8,228.3 325.7,231.3 	
		"/>
	<polygon fill="none" stroke="#808080" stroke-width="0.75" stroke-miterlimit="12" points="126.1,231.3 116,228.3 126.1,225.2 	"/>
	<polygon fill="none" stroke="#808080" stroke-width="0.75" stroke-miterlimit="12" points="325,216.5 335.4,218.7 325.6,222.6 	"/>
	<polygon fill="none" stroke="#808080" stroke-width="0.75" stroke-miterlimit="12" points="126.8,240 116.4,237.8 126.2,233.9 	"/>
	<polygon fill="none" stroke="#808080" stroke-width="0.75" stroke-miterlimit="12" points="323.6,207.9 334.2,209.2 324.7,214 	"/>
	<polygon fill="none" stroke="#808080" stroke-width="0.75" stroke-miterlimit="12" points="128.2,248.6 117.7,247.4 127.1,242.6 	
		"/>
	<polygon fill="none" stroke="#808080" stroke-width="0.75" stroke-miterlimit="12" points="321.5,199.5 332.1,199.8 323.1,205.4 	
		"/>
	<polygon fill="none" stroke="#808080" stroke-width="0.75" stroke-miterlimit="12" points="130.3,257 119.7,256.7 128.7,251.1 	"/>
	<polygon fill="none" stroke="#808080" stroke-width="0.75" stroke-miterlimit="12" points="318.6,191.3 329.2,190.7 320.7,197 	"/>
	<polygon fill="none" stroke="#808080" stroke-width="0.75" stroke-miterlimit="12" points="133.2,265.3 122.6,265.9 131.1,259.5 	
		"/>
	<polygon fill="none" stroke="#808080" stroke-width="0.75" stroke-miterlimit="12" points="315,183.3 325.5,181.8 317.6,188.9 	"/>
	<polygon fill="none" stroke="#808080" stroke-width="0.75" stroke-miterlimit="12" points="136.8,273.2 126.3,274.7 134.2,267.7 	
		"/>
	<polygon fill="none" stroke="#808080" stroke-width="0.75" stroke-miterlimit="12" points="310.8,175.7 321.1,173.3 313.8,181 	"/>
	<polygon fill="none" stroke="#808080" stroke-width="0.75" stroke-miterlimit="12" points="141,280.8 130.7,283.2 138,275.5 	"/>
	<polygon fill="none" stroke="#808080" stroke-width="0.75" stroke-miterlimit="12" points="305.9,168.5 315.9,165.2 309.4,173.5 	
		"/>
	<polygon fill="none" stroke="#808080" stroke-width="0.75" stroke-miterlimit="12" points="145.9,288 135.9,291.3 142.4,283 	"/>
	<polygon fill="none" stroke="#808080" stroke-width="0.75" stroke-miterlimit="12" points="300.4,161.8 310.1,157.6 304.3,166.5 	
		"/>
	<polygon fill="none" stroke="#808080" stroke-width="0.75" stroke-miterlimit="12" points="151.4,294.7 141.7,298.9 147.5,290.1 	
		"/>
	<polygon fill="none" stroke="#808080" stroke-width="0.75" stroke-miterlimit="12" points="294.3,155.6 303.6,150.6 298.6,159.9 	
		"/>
	<polygon fill="none" stroke="#808080" stroke-width="0.75" stroke-miterlimit="12" points="157.5,301 148.2,306 153.2,296.7 	"/>
	<polygon fill="none" stroke="#808080" stroke-width="0.75" stroke-miterlimit="12" points="287.7,149.9 296.6,144.1 292.4,153.8 	
		"/>
	<polygon fill="none" stroke="#808080" stroke-width="0.75" stroke-miterlimit="12" points="164.1,306.7 155.3,312.5 159.4,302.7 	
		"/>
	<polygon fill="none" stroke="#808080" stroke-width="0.75" stroke-miterlimit="12" points="280.6,144.8 289,138.2 285.6,148.3 	"/>
	<polygon fill="none" stroke="#808080" stroke-width="0.75" stroke-miterlimit="12" points="171.2,311.8 162.9,318.3 166.2,308.3 	
		"/>
	<polygon fill="none" stroke="#808080" stroke-width="0.75" stroke-miterlimit="12" points="273.2,140.3 280.9,133.1 278.4,143.4 	
		"/>
	<polygon fill="none" stroke="#808080" stroke-width="0.75" stroke-miterlimit="12" points="178.7,316.2 171,323.5 173.4,313.2 	"/>
	<polygon fill="none" stroke="#808080" stroke-width="0.75" stroke-miterlimit="12" points="265.3,136.6 272.4,128.7 270.8,139.1 	
		"/>
	<polygon fill="none" stroke="#808080" stroke-width="0.75" stroke-miterlimit="12" points="186.5,320 179.5,327.9 181,317.4 	"/>
	<polygon fill="none" stroke="#808080" stroke-width="0.75" stroke-miterlimit="12" points="257.2,133.5 263.5,125 262.9,135.6 	"/>
	<polygon fill="none" stroke="#808080" stroke-width="0.75" stroke-miterlimit="12" points="194.7,323.1 188.3,331.6 188.9,321 	"/>
	<polygon fill="none" stroke="#808080" stroke-width="0.75" stroke-miterlimit="12" points="248.8,131.1 254.4,122.1 254.7,132.7 	
		"/>
	<polygon fill="none" stroke="#808080" stroke-width="0.75" stroke-miterlimit="12" points="203,325.4 197.5,334.4 197.1,323.9 	"/>
	<polygon fill="none" stroke="#808080" stroke-width="0.75" stroke-miterlimit="12" points="240.2,129.5 245,120 246.2,130.5 	"/>
	<polygon fill="none" stroke="#808080" stroke-width="0.75" stroke-miterlimit="12" points="211.6,327.1 206.8,336.5 205.6,326 	"/>
	<polygon fill="none" stroke="#808080" stroke-width="0.75" stroke-miterlimit="12" points="231.6,128.6 235.5,118.8 237.6,129.1 	
		"/>
	<polygon fill="none" stroke="#808080" stroke-width="0.75" stroke-miterlimit="12" points="220.3,327.9 216.3,337.8 214.2,327.4 	
		"/>
	<polygon fill="none" stroke="#808080" stroke-width="0.75" stroke-miterlimit="12" points="222.9,128.5 225.9,118.4 229,128.5 	"/>
	<polygon fill="none" stroke="#808080" stroke-width="0.75" stroke-miterlimit="12" points="229,328 225.9,338.2 222.9,328 	"/>
	<polygon fill="none" stroke="#808080" stroke-width="0.75" stroke-miterlimit="12" points="214.2,129.1 216.3,118.8 220.3,128.6 	
		"/>
	<polygon fill="none" stroke="#808080" stroke-width="0.75" stroke-miterlimit="12" points="237.6,327.4 235.5,337.8 231.6,327.9 	
		"/>
	<polygon fill="none" stroke="#808080" stroke-width="0.75" stroke-miterlimit="12" points="205.6,130.5 206.8,120 211.6,129.5 	"/>
	<polygon fill="none" stroke="#808080" stroke-width="0.75" stroke-miterlimit="12" points="246.2,326 245,336.5 240.2,327.1 	"/>
	<polygon fill="none" stroke="#808080" stroke-width="0.75" stroke-miterlimit="12" points="197.1,132.7 197.5,122.1 203,131.1 	"/>
	<polygon fill="none" stroke="#808080" stroke-width="0.75" stroke-miterlimit="12" points="254.7,323.9 254.4,334.4 248.8,325.4 	
		"/>
	<polygon fill="none" stroke="#808080" stroke-width="0.75" stroke-miterlimit="12" points="188.9,135.6 188.3,125 194.7,133.5 	"/>
	<polygon fill="none" stroke="#808080" stroke-width="0.75" stroke-miterlimit="12" points="262.9,321 263.5,331.6 257.2,323.1 	"/>
	<polygon fill="none" stroke="#808080" stroke-width="0.75" stroke-miterlimit="12" points="181,139.1 179.5,128.7 186.5,136.6 	"/>
	<polygon fill="none" stroke="#808080" stroke-width="0.75" stroke-miterlimit="12" points="270.8,317.4 272.4,327.9 265.3,320 	"/>
	<polygon fill="none" stroke="#808080" stroke-width="0.75" stroke-miterlimit="12" points="173.4,143.4 171,133.1 178.7,140.3 	"/>
	<polygon fill="none" stroke="#808080" stroke-width="0.75" stroke-miterlimit="12" points="278.4,313.2 280.9,323.5 273.2,316.2 	
		"/>
	<polygon fill="none" stroke="#808080" stroke-width="0.75" stroke-miterlimit="12" points="166.2,148.3 162.9,138.2 171.2,144.8 	
		"/>
	<polygon fill="none" stroke="#808080" stroke-width="0.75" stroke-miterlimit="12" points="285.6,308.2 289,318.3 280.6,311.8 	"/>
	<polygon fill="none" stroke="#808080" stroke-width="0.75" stroke-miterlimit="12" points="159.4,153.8 155.3,144.1 164.1,149.9 	
		"/>
	<polygon fill="none" stroke="#808080" stroke-width="0.75" stroke-miterlimit="12" points="292.4,302.7 296.6,312.5 287.7,306.7 	
		"/>
	<polygon fill="none" stroke="#808080" stroke-width="0.75" stroke-miterlimit="12" points="153.2,159.9 148.2,150.6 157.5,155.6 	
		"/>
	<polygon fill="none" stroke="#808080" stroke-width="0.75" stroke-miterlimit="12" points="298.6,296.7 303.6,306 294.3,301 	"/>
	<polygon fill="none" stroke="#808080" stroke-width="0.75" stroke-miterlimit="12" points="147.5,166.5 141.7,157.6 151.4,161.8 	
		"/>
	<polygon fill="none" stroke="#808080" stroke-width="0.75" stroke-miterlimit="12" points="304.3,290.1 310.1,298.9 300.4,294.7 	
		"/>
	<polygon fill="none" stroke="#808080" stroke-width="0.75" stroke-miterlimit="12" points="142.4,173.5 135.9,165.2 145.9,168.5 	
		"/>
	<polygon fill="none" stroke="#808080" stroke-width="0.75" stroke-miterlimit="12" points="309.4,283 315.9,291.3 305.9,288 	"/>
	<polygon fill="none" stroke="#808080" stroke-width="0.75" stroke-miterlimit="12" points="138,181 130.7,173.3 141,175.7 	"/>
	<polygon fill="none" stroke="#808080" stroke-width="0.75" stroke-miterlimit="12" points="313.8,275.5 321.1,283.2 310.8,280.8 	
		"/>
	<polygon fill="none" stroke="#808080" stroke-width="0.75" stroke-miterlimit="12" points="134.2,188.9 126.3,181.8 136.8,183.3 	
		"/>
	<polygon fill="none" stroke="#808080" stroke-width="0.75" stroke-miterlimit="12" points="317.6,267.7 325.5,274.7 315,273.2 	"/>
	<polygon fill="none" stroke="#808080" stroke-width="0.75" stroke-miterlimit="12" points="131.1,197 122.6,190.7 133.2,191.3 	"/>
	<polygon fill="none" stroke="#808080" stroke-width="0.75" stroke-miterlimit="12" points="320.7,259.5 329.2,265.9 318.6,265.3 	
		"/>
	<polygon fill="none" stroke="#808080" stroke-width="0.75" stroke-miterlimit="12" points="128.7,205.4 119.7,199.8 130.3,199.5 	
		"/>
	<polygon fill="none" stroke="#808080" stroke-width="0.75" stroke-miterlimit="12" points="323.1,251.1 332.1,256.7 321.5,257 	"/>
	<polygon fill="none" stroke="#808080" stroke-width="0.75" stroke-miterlimit="12" points="127.1,214 117.7,209.2 128.2,207.9 	"/>
	<polygon fill="none" stroke="#808080" stroke-width="0.75" stroke-miterlimit="12" points="324.7,242.6 334.2,247.4 323.6,248.6 	
		"/>
	<polygon fill="none" stroke="#808080" stroke-width="0.75" stroke-miterlimit="12" points="126.2,222.6 116.4,218.7 126.8,216.5 	
		"/>
	<polygon fill="none" stroke="#808080" stroke-width="0.75" stroke-miterlimit="12" points="325.6,233.9 335.4,237.9 325,240 	"/>
</g>
<g>
	<path fill="#808080" d="M225.9,129.2c54.6,0,99,44.4,99,99c0,54.6-44.4,99-99,99s-99-44.4-99-99
		C126.9,173.7,171.3,129.2,225.9,129.2 M225.9,128.5c-55.1,0-99.8,44.7-99.8,99.8s44.7,99.8,99.8,99.8s99.8-44.7,99.8-99.8
		S281,128.5,225.9,128.5L225.9,128.5z"/>
</g>
<g>
	<path fill="#808080" d="M119.9,122.3l106,81.2l106-81.2l-81.2,106l81.2,106l-106-81.2l-106,81.2l81.2-106L185.6,208L119.9,122.3
		 M115.9,118.3l3.4,4.5l65.7,85.7l15.2,19.8l-80.9,105.5l-3.4,4.5l4.5-3.4L225.9,254l105.5,80.9l4.5,3.4l-3.4-4.5l-80.9-105.5
		l80.9-105.5l3.4-4.5l-4.5,3.4l-105.5,80.9l-105.5-80.9L115.9,118.3L115.9,118.3z"/>
</g>
<g>
	<path fill="#808080" d="M225.9,41.3l21.8,165.1l165.1,21.8l-165.1,21.8l-21.8,165.1l-21.8-165.1L39,228.3l165.1-21.8L225.9,41.3
		 M225.9,35.6l-0.7,5.6l-21.8,164.5L38.9,227.5l-5.6,0.7l5.6,0.7l164.5,21.8l21.8,164.5l0.7,5.6l0.7-5.6l21.8-164.5L412.9,229
		l5.6-0.7l-5.6-0.7l-164.5-21.8L226.6,41.2L225.9,35.6L225.9,35.6z"/>
</g>
<circle fill="none" stroke="#808080" stroke-width="0.75" cx="225.9" cy="228.3" r="21.6"/>
<g>
	<path fill="#808081" stroke="#808080" stroke-width="0.75" stroke-miterlimit="9" d="M219.9,177.8v8.4c0,1.9,0,3.3,0.1,4
		c0.1,0.6,0.2,0.9,0.3,1.1c0.1,0.1,0.5,0.2,1.2,0.3l0.8,0.1v0.8c-0.9-0.1-1.7-0.1-2.4-0.1c-0.5,0-1.6,0-3.4,0.1v-0.8h0.9
		c0.5,0,0.9-0.1,1-0.2c0.2-0.1,0.3-0.4,0.3-0.9c0.1-0.9,0.1-2.1,0.1-3.7v-6.1c0-1.1,0-2.3,0-3.4c0-0.5-0.1-0.8-0.2-1
		c-0.1-0.2-0.3-0.3-0.5-0.5c-0.2-0.1-0.5-0.2-0.9-0.2h-0.8v-0.8c1,0.1,1.8,0.1,2.4,0.1c0.6,0,1.2,0,1.9-0.1c0.8,1,1.6,1.9,2.3,2.9
		c0.7,0.9,1.5,1.9,2.2,2.8l4.2,5.1c1.5,1.8,2.6,3.1,3.3,3.8v-7.8c0-3.3-0.1-5.1-0.2-5.4c-0.1-0.3-0.6-0.5-1.4-0.6l-0.9-0.1v-0.8
		c1.3,0.1,2.3,0.1,3.1,0.1c0.8,0,1.7,0,2.9-0.1v0.8h-0.9c-0.8,0-1.2,0.3-1.3,0.8c-0.1,0.3-0.1,2.1-0.1,5.4v5.5
		c0,1.5,0.1,3.3,0.2,5.3c-1.1-0.2-1.8-0.3-1.9-0.4c-0.2-0.1-0.4-0.2-0.5-0.4c-0.9-1-1.9-2.1-2.8-3.3L219.9,177.8z"/>
	<path fill="#808081" stroke="#808080" stroke-width="0.75" stroke-miterlimit="9" d="M220.1,281c0.2-0.8,0.4-2,0.4-3.4h0.8v1
		c0,0.6,0.1,1.1,0.3,1.3c0.2,0.2,0.6,0.5,1.3,0.7c0.7,0.3,1.5,0.4,2.3,0.4c1.3,0,2.3-0.3,3.1-1c0.7-0.7,1.1-1.5,1.1-2.5
		c0-0.7-0.2-1.2-0.5-1.7c-0.3-0.5-0.7-0.8-1.2-1c-0.5-0.2-1.6-0.4-3.3-0.5c-1.7-0.2-2.8-0.4-3.4-0.6c-0.6-0.3-1.1-0.7-1.4-1.3
		c-0.4-0.6-0.5-1.3-0.5-2.1c0-1.6,0.7-3,2.1-4.2c1.4-1.2,3.2-1.8,5.5-1.8c0.8,0,1.6,0.1,2.4,0.2c0.8,0.2,1.6,0.4,2.4,0.7
		c-0.1,1-0.2,2.2-0.2,3.8h-0.8v-0.6c0-0.8,0-1.3-0.1-1.5c-0.1-0.2-0.3-0.4-0.6-0.6c-0.4-0.3-1-0.6-1.6-0.7c-0.6-0.2-1.3-0.2-2-0.2
		c-1.5,0-2.7,0.4-3.6,1.1c-0.8,0.7-1.3,1.6-1.3,2.8c0,0.7,0.1,1.2,0.4,1.7c0.3,0.5,0.7,0.8,1.2,1c0.5,0.2,1.5,0.4,2.8,0.5
		c1.8,0.1,3.1,0.4,3.8,0.7c0.7,0.3,1.2,0.8,1.6,1.4c0.4,0.6,0.6,1.4,0.6,2.4c0,1.6-0.6,2.9-1.7,3.9c-1.1,1-2.7,1.5-4.8,1.5
		c-0.8,0-1.6-0.1-2.4-0.3C221.7,281.6,220.9,281.3,220.1,281z"/>
	<path fill="#808081" stroke="#808080" stroke-width="0.75" stroke-miterlimit="9" d="M186.3,233.1l-7-2.8c-1.2-0.5-3.5-1.4-6.8-2.6
		v-0.7c1.5-0.5,3.4-1.1,5.7-1.9l8.3-3l-7.7-2.2c-0.7-0.2-2.2-0.6-4.3-1.1c-0.2,0-0.3-0.1-0.5-0.1c-0.1,0-0.3,0.1-0.3,0.2
		c-0.1,0.1-0.1,0.4-0.2,0.9l-0.1,1.1h-0.8c0.1-1.1,0.1-2,0.1-2.7c0-0.7,0-1.6-0.1-2.6h0.8v0.6c0,0.3,0.1,0.5,0.2,0.6
		c0.3,0.3,2,0.9,5.1,1.9c4.2,1.3,8,2.4,11.5,3.2v1.2c-0.5,0.1-1,0.3-1.2,0.4c-1.1,0.4-3.4,1.2-6.9,2.5l-5.5,2l5.5,2.3
		c3.3,1.4,6,2.4,8.1,3v1.2l-3,0.6c-0.9,0.2-1.8,0.4-2.8,0.6l-9.1,2.1c-0.9,0.2-1.4,0.4-1.6,0.5c-0.2,0.2-0.2,0.5-0.2,1v0.5h-0.8
		c0.1-1.2,0.1-2.2,0.1-3c0-0.8,0-1.9-0.1-3.3h0.8v0.8c0,0.6,0,0.9,0.1,1.1c0.1,0.2,0.3,0.3,0.5,0.3c0.1,0,0.3,0,0.5-0.1l4.1-0.8
		L186.3,233.1z"/>
	<path fill="#808081" stroke="#808080" stroke-width="0.75" stroke-miterlimit="9" d="M270.1,226.1h-3l-1.7,0c-1.1,0-1.9,0-2.4,0
		c-0.1,1.2-0.1,2.5-0.1,3.8c0,0.9,0,1.7,0.1,2.3c0,0.4,0.2,0.8,0.3,1.3c0.7,0.2,1.6,0.4,2.7,0.6v0.8c-1.8-0.2-3-0.3-3.6-0.3l-0.6,0
		c-0.1-0.9-0.1-1.9-0.1-2.8l0-1.9c0.1-2.1,0.1-3.7,0.1-4.7c0-1,0-2.2-0.1-3.8h0.8v0.4c0,0.7,0.1,1.2,0.2,1.3c0.1,0.2,0.5,0.3,1,0.4
		c0.5,0.1,1.6,0.1,3.4,0.1h6.7c1.1,0,2,0,2.7-0.1c0.7-0.1,1.1-0.1,1.3-0.2c0.1-0.1,0.2-0.1,0.3-0.3c0.1-0.1,0.1-0.5,0.2-1.1l0.1-0.9
		h0.8v1.3l0,1.3c0,0.7,0,1.3,0,1.6l0.1,4.7l0,2.2c0,0.8,0,1.5-0.1,2.3c-1-0.3-2.2-0.5-3.8-0.5v-0.8c0.9,0,1.6,0,2.2-0.1
		c0.4-1,0.5-2.1,0.5-3.5c0-1.1,0-2.3-0.1-3.5c-0.8,0-1.5,0-2.3,0l-1.9,0h-2.5c-0.1,0.8-0.1,1.5-0.1,2.1c0,1.9,0.1,3,0.2,3.3
		c0.1,0.3,0.6,0.4,1.3,0.4h0.8v0.8c-1.2-0.1-2.2-0.1-2.9-0.1c-0.8,0-1.7,0-2.7,0.1V232h0.7c0.8,0,1.3-0.2,1.4-0.5
		c0.2-0.3,0.3-1.4,0.3-3.2C270.2,227.6,270.1,226.9,270.1,226.1z"/>
	<g>
		<path fill="#808081" stroke="#808080" stroke-width="0.75" stroke-miterlimit="9" d="M260.6,184.7l-2.7,2.7
			c-0.6,0.6-1,1.1-1.3,1.3c-0.2,0.2-0.2,0.3-0.2,0.4c0,0.1,0.1,0.2,0.3,0.5l0.2,0.3l-0.2,0.2c-0.3-0.3-0.5-0.6-0.7-0.8
			c-0.2-0.2-0.5-0.5-1.1-1.1l0.2-0.2l0.3,0.3c0.2,0.2,0.3,0.3,0.4,0.3c0.1,0,0.2-0.1,0.4-0.2c0.3-0.3,0.7-0.6,1.2-1.1l2-2
			c0.4-0.4,0.7-0.7,1.1-1.1c0.1-0.2,0.2-0.3,0.3-0.4c0-0.1,0-0.2,0-0.3c0-0.1-0.1-0.2-0.2-0.4l-0.2-0.2l0.2-0.2
			c0.3,0.4,0.6,0.6,0.7,0.8c0.2,0.2,0.4,0.4,0.6,0.6c-0.1,0.6-0.1,1.1-0.2,1.7c-0.1,0.5-0.1,1.1-0.2,1.6l-0.3,3
			c-0.1,1.1-0.2,1.8-0.2,2.3l2.5-2.5c1.1-1.1,1.6-1.7,1.7-1.8c0.1-0.1,0-0.3-0.3-0.6l-0.3-0.3l0.2-0.2c0.4,0.4,0.7,0.8,1,1
			c0.2,0.2,0.6,0.5,1,0.9l-0.2,0.2l-0.3-0.3c-0.2-0.2-0.5-0.3-0.7-0.2c-0.1,0.1-0.7,0.6-1.8,1.7l-1.8,1.8c-0.5,0.5-1,1.1-1.6,1.8
			c-0.3-0.4-0.5-0.7-0.5-0.7c0-0.1,0-0.2,0-0.3c0-0.6,0.1-1.3,0.2-2L260.6,184.7z"/>
		<path fill="#808081" stroke="#808080" stroke-width="0.75" stroke-miterlimit="9" d="M265.7,193.9l-1,1l-0.5,0.6
			c-0.3,0.3-0.6,0.6-0.7,0.8c0.4,0.4,0.7,0.8,1.2,1.3c0.3,0.3,0.6,0.5,0.8,0.7c0.1,0.1,0.3,0.2,0.5,0.3c0.3-0.2,0.7-0.4,1.1-0.7
			l0.3,0.3c-0.6,0.5-1.1,0.9-1.3,1l-0.2,0.2c-0.3-0.3-0.6-0.6-0.9-0.8l-0.6-0.6c-0.7-0.7-1.2-1.2-1.5-1.5c-0.3-0.3-0.7-0.7-1.2-1.2
			l0.2-0.2l0.1,0.1c0.2,0.2,0.4,0.3,0.5,0.4c0.1,0,0.2-0.1,0.4-0.2c0.2-0.1,0.6-0.5,1.1-1.1l2.2-2.2c0.4-0.4,0.6-0.7,0.8-0.9
			c0.2-0.2,0.3-0.4,0.3-0.5c0-0.1,0-0.1,0-0.2c0-0.1-0.1-0.2-0.3-0.4l-0.3-0.3l0.2-0.2l0.4,0.4l0.4,0.4c0.2,0.2,0.4,0.4,0.5,0.5
			l1.5,1.5l0.7,0.7c0.2,0.2,0.5,0.5,0.7,0.8c-0.4,0.2-0.9,0.6-1.4,1l-0.3-0.3c0.3-0.3,0.5-0.5,0.7-0.8c-0.2-0.4-0.5-0.9-1-1.3
			c-0.4-0.4-0.7-0.7-1.2-1.1c-0.2,0.2-0.5,0.5-0.7,0.7l-0.6,0.6l-0.8,0.8c0.2,0.3,0.5,0.5,0.7,0.7c0.6,0.6,1,1,1.1,1
			c0.1,0,0.3-0.1,0.5-0.3l0.3-0.3l0.3,0.3c-0.4,0.4-0.7,0.7-1,0.9c-0.2,0.2-0.5,0.6-0.9,0.9l-0.3-0.3l0.2-0.2
			c0.3-0.3,0.4-0.5,0.3-0.6c0-0.2-0.4-0.5-1-1.1C266.2,194.3,265.9,194.1,265.7,193.9z"/>
	</g>
	<g>
		<path fill="#808081" stroke="#808080" stroke-width="0.75" stroke-miterlimit="9" d="M181.1,194.9l2.7,2.7c0.6,0.6,1.1,1,1.3,1.3
			c0.2,0.2,0.3,0.2,0.4,0.2c0.1,0,0.2-0.1,0.5-0.3l0.3-0.2l0.2,0.2c-0.3,0.3-0.6,0.5-0.8,0.7c-0.2,0.2-0.5,0.5-1.1,1.1l-0.2-0.2
			l0.3-0.3c0.2-0.2,0.3-0.3,0.3-0.4c0-0.1-0.1-0.2-0.2-0.4c-0.3-0.3-0.6-0.7-1.1-1.2l-2-2c-0.4-0.4-0.7-0.7-1.1-1.1
			c-0.2-0.1-0.3-0.2-0.4-0.3c-0.1,0-0.2,0-0.3,0c-0.1,0-0.2,0.1-0.4,0.2l-0.2,0.2l-0.2-0.2c0.4-0.3,0.6-0.6,0.8-0.7
			c0.2-0.2,0.4-0.4,0.6-0.6c0.6,0.1,1.1,0.1,1.7,0.2c0.5,0.1,1.1,0.1,1.6,0.2l3,0.3c1.1,0.1,1.8,0.2,2.3,0.2l-2.5-2.5
			c-1.1-1.1-1.6-1.6-1.8-1.7c-0.1-0.1-0.4,0-0.6,0.3l-0.3,0.3l-0.2-0.2c0.4-0.4,0.8-0.7,1-1c0.2-0.2,0.5-0.6,0.9-1l0.2,0.2l-0.3,0.3
			c-0.2,0.2-0.3,0.5-0.2,0.7c0.1,0.1,0.6,0.7,1.7,1.8l1.8,1.8c0.5,0.5,1.1,1,1.8,1.6c-0.4,0.3-0.7,0.5-0.7,0.5c-0.1,0-0.2,0-0.3,0
			c-0.6,0-1.3-0.1-2-0.2L181.1,194.9z"/>
		<path fill="#808081" stroke="#808080" stroke-width="0.75" stroke-miterlimit="9" d="M192.3,190.7l-1.3-3.2
			c-0.2-0.5-0.7-1.6-1.4-3l0.2-0.2c0.6,0.3,1.5,0.7,2.5,1.2l3.6,1.7l-1.8-3.2c-0.2-0.3-0.5-0.9-1-1.7c0-0.1-0.1-0.1-0.1-0.2
			c0,0-0.1-0.1-0.2,0c-0.1,0-0.2,0.1-0.4,0.2l-0.4,0.3l-0.2-0.2c0.4-0.3,0.7-0.6,0.9-0.8c0.2-0.2,0.5-0.5,0.8-0.9l0.2,0.2l-0.2,0.2
			c-0.1,0.1-0.1,0.2-0.1,0.3c0,0.2,0.4,0.9,1.1,2.2c0.9,1.8,1.8,3.3,2.7,4.7l-0.4,0.4c-0.2-0.1-0.4-0.2-0.5-0.3
			c-0.5-0.2-1.5-0.7-3-1.4l-2.4-1.1l1,2.5c0.6,1.5,1.2,2.7,1.6,3.6l-0.4,0.4l-1.2-0.8c-0.3-0.2-0.7-0.5-1.1-0.7l-3.6-2.3
			c-0.4-0.2-0.6-0.3-0.7-0.3c-0.1,0-0.2,0.1-0.4,0.2l-0.2,0.2l-0.2-0.2c0.4-0.4,0.7-0.7,1-0.9c0.3-0.3,0.6-0.6,1-1.1l0.2,0.2
			l-0.2,0.2c-0.2,0.2-0.3,0.3-0.3,0.4c0,0.1,0,0.2,0.1,0.2c0,0,0.1,0.1,0.2,0.1l1.6,1L192.3,190.7z"/>
	</g>
	<g>
		<path fill="#808081" stroke="#808080" stroke-width="0.75" stroke-miterlimit="9" d="M266.6,267c-0.2-0.3-0.5-0.7-1-1.2l0.3-0.3
			l0.3,0.3c0.2,0.2,0.4,0.3,0.5,0.3c0.1,0,0.3,0,0.7-0.2c0.3-0.1,0.6-0.4,0.9-0.6c0.4-0.4,0.6-0.9,0.7-1.3c0-0.5-0.1-0.8-0.5-1.2
			c-0.2-0.2-0.4-0.3-0.7-0.4c-0.2-0.1-0.5,0-0.7,0.1c-0.2,0.1-0.6,0.4-1.2,0.9c-0.6,0.5-1,0.8-1.3,0.9c-0.3,0.1-0.6,0.1-0.9,0
			c-0.3-0.1-0.6-0.2-0.9-0.5c-0.5-0.5-0.8-1.2-0.7-2c0.1-0.8,0.5-1.6,1.2-2.3c0.3-0.3,0.5-0.5,0.8-0.7c0.3-0.2,0.6-0.4,1-0.5
			c0.3,0.4,0.6,0.8,1.1,1.3l-0.3,0.3l-0.2-0.2c-0.3-0.3-0.4-0.4-0.5-0.4c-0.1,0-0.2,0-0.4,0c-0.2,0-0.5,0.1-0.7,0.3
			c-0.3,0.1-0.5,0.3-0.7,0.6c-0.5,0.5-0.8,1-0.8,1.5c0,0.5,0.1,0.9,0.5,1.3c0.2,0.2,0.4,0.3,0.7,0.4c0.2,0.1,0.5,0,0.7-0.1
			c0.2-0.1,0.6-0.3,1.1-0.8c0.6-0.5,1.1-0.9,1.4-1c0.3-0.1,0.6-0.1,0.9-0.1c0.3,0.1,0.6,0.3,0.9,0.6c0.5,0.5,0.7,1.1,0.7,1.8
			c0,0.7-0.4,1.4-1,2c-0.3,0.3-0.6,0.5-0.9,0.7S267,266.8,266.6,267z"/>
		<path fill="#808081" stroke="#808080" stroke-width="0.75" stroke-miterlimit="9" d="M261.7,266.5l-1-1l-0.6-0.6
			c-0.3-0.3-0.6-0.6-0.8-0.7c-0.4,0.4-0.8,0.7-1.3,1.2c-0.3,0.3-0.5,0.6-0.7,0.8c-0.1,0.1-0.2,0.3-0.3,0.5c0.2,0.3,0.4,0.7,0.7,1.1
			l-0.3,0.3c-0.5-0.6-0.9-1.1-1-1.3l-0.2-0.2c0.3-0.3,0.6-0.6,0.8-0.9l0.6-0.6c0.7-0.7,1.2-1.2,1.5-1.5c0.3-0.3,0.7-0.7,1.2-1.2
			l0.2,0.2l-0.1,0.1c-0.2,0.2-0.3,0.4-0.4,0.5c0,0.1,0.1,0.2,0.2,0.4c0.1,0.2,0.5,0.6,1.1,1.1l2.2,2.2c0.4,0.4,0.7,0.6,0.9,0.8
			c0.2,0.2,0.4,0.3,0.5,0.3c0.1,0,0.1,0,0.2,0c0.1,0,0.2-0.1,0.4-0.3l0.3-0.3l0.2,0.2l-0.4,0.4l-0.4,0.4c-0.2,0.2-0.4,0.4-0.5,0.5
			l-1.5,1.5l-0.7,0.7c-0.2,0.2-0.5,0.5-0.8,0.7c-0.2-0.4-0.6-0.9-1-1.4l0.3-0.3c0.3,0.3,0.5,0.5,0.8,0.7c0.4-0.2,0.9-0.5,1.3-1
			c0.4-0.4,0.7-0.7,1.1-1.2c-0.2-0.2-0.5-0.5-0.7-0.7l-0.6-0.6l-0.8-0.8c-0.3,0.2-0.5,0.5-0.7,0.7c-0.6,0.6-1,1-1,1.1
			c0,0.1,0.1,0.3,0.3,0.5l0.3,0.3l-0.3,0.3c-0.4-0.4-0.7-0.7-0.9-1c-0.2-0.2-0.5-0.5-0.9-0.9l0.3-0.3l0.2,0.2
			c0.2,0.3,0.5,0.4,0.6,0.3c0.2,0,0.5-0.4,1.1-1C261.3,267,261.5,266.8,261.7,266.5z"/>
	</g>
	<g>
		<path fill="#808081" stroke="#808080" stroke-width="0.75" stroke-miterlimit="9" d="M187.7,269.6c0.3-0.2,0.7-0.5,1.2-1l0.3,0.3
			l-0.3,0.3c-0.2,0.2-0.3,0.4-0.3,0.5c0,0.1,0,0.3,0.2,0.7c0.1,0.3,0.4,0.6,0.6,0.9c0.4,0.4,0.9,0.6,1.3,0.7c0.5,0,0.8-0.1,1.2-0.5
			c0.2-0.2,0.3-0.4,0.4-0.7c0.1-0.2,0-0.5-0.1-0.7c-0.1-0.2-0.4-0.6-0.9-1.2c-0.5-0.6-0.8-1-0.9-1.3c-0.1-0.3-0.1-0.6,0-0.9
			c0.1-0.3,0.2-0.6,0.5-0.9c0.5-0.5,1.2-0.8,2-0.7c0.8,0.1,1.6,0.5,2.3,1.2c0.3,0.3,0.5,0.5,0.7,0.8c0.2,0.3,0.4,0.6,0.5,1
			c-0.4,0.3-0.8,0.6-1.3,1.1l-0.3-0.3l0.2-0.2c0.3-0.3,0.4-0.4,0.4-0.5c0-0.1,0-0.2,0-0.4c0-0.2-0.1-0.5-0.3-0.7
			c-0.1-0.3-0.3-0.5-0.6-0.7c-0.5-0.5-1-0.8-1.5-0.8c-0.5,0-0.9,0.1-1.3,0.5c-0.2,0.2-0.3,0.4-0.4,0.7c-0.1,0.2,0,0.5,0.1,0.7
			c0.1,0.2,0.3,0.6,0.8,1.1c0.5,0.6,0.9,1.1,1,1.4c0.1,0.3,0.1,0.6,0.1,0.9c-0.1,0.3-0.3,0.6-0.6,0.9c-0.5,0.5-1.1,0.7-1.8,0.7
			c-0.7,0-1.4-0.4-2-1c-0.3-0.3-0.5-0.6-0.7-0.9C188,270.3,187.8,269.9,187.7,269.6z"/>
		<path fill="#808081" stroke="#808080" stroke-width="0.75" stroke-miterlimit="9" d="M189,262.7l-3.2,1.3c-0.5,0.2-1.6,0.7-3,1.4
			l-0.2-0.2c0.3-0.6,0.7-1.5,1.2-2.5l1.7-3.6l-3.2,1.8c-0.3,0.2-0.9,0.5-1.7,1c-0.1,0-0.1,0.1-0.2,0.1c0,0-0.1,0.1,0,0.2
			c0,0.1,0.1,0.2,0.2,0.3l0.3,0.4l-0.2,0.2c-0.4-0.4-0.6-0.7-0.8-0.9c-0.2-0.2-0.5-0.5-0.9-0.8l0.2-0.2l0.2,0.2
			c0.1,0.1,0.2,0.1,0.3,0.1c0.2,0,0.9-0.4,2.2-1.1c1.8-0.9,3.3-1.8,4.7-2.7l0.4,0.4c-0.1,0.2-0.2,0.4-0.3,0.5
			c-0.2,0.5-0.7,1.5-1.4,3l-1.1,2.4l2.5-1c1.5-0.6,2.7-1.2,3.6-1.6l0.4,0.4L190,263c-0.2,0.3-0.5,0.7-0.7,1.1l-2.3,3.6
			c-0.2,0.4-0.3,0.6-0.3,0.7c0,0.1,0.1,0.2,0.2,0.4l0.2,0.2l-0.2,0.2c-0.4-0.4-0.7-0.7-0.9-1c-0.3-0.3-0.6-0.6-1.1-1l0.2-0.2
			l0.2,0.2c0.2,0.2,0.3,0.3,0.4,0.3c0.1,0,0.2,0,0.2-0.1c0,0,0.1-0.1,0.1-0.2l1-1.6L189,262.7z"/>
	</g>
</g>
<path fill="none" stroke="#E0E0E0" stroke-width="0.75" d="M245.9,228.3l-12-3.3l6.2-10.8l-10.8,6.2l-3.3-12.1l-3.3,12.1l-10.8-6.2
	L218,225l-12,3.3l12,3.3l-6.2,10.8l10.8-6.2l3.3,12l3.3-12l10.8,6.2l-6.2-10.8L245.9,228.3z M225.5,234.1c-3,0-5.4-2.4-5.4-5.4
	c0-3,2.4-5.4,5.4-5.4c3,0,5.4,2.4,5.4,5.4C231,231.6,228.5,234.1,225.5,234.1z"/>
<polygon fill="#D8D9D9" stroke="#D8D9D9" stroke-width="0.75" stroke-miterlimit="10" points="208.2,221.2 289.8,54.4 243.6,234.2 
	162,401 "/>
<polygon fill="#30AAE1" stroke="#D8D9D9" stroke-width="0.75" stroke-miterlimit="10" points="208.2,221.2 223.4,234.4 243.6,234.2 
	289.8,54.4 "/>
</svg>
