<?xml version="1.0" encoding="utf-8"?>
<!-- Generator: Adobe Illustrator 18.1.1, SVG Export Plug-In . SVG Version: 6.00 Build 0)  -->
<!DOCTYPE svg PUBLIC "-//W3C//DTD SVG 1.1//EN" "http://www.w3.org/Graphics/SVG/1.1/DTD/svg11.dtd">
<svg version="1.1" id="Layer_1" xmlns="http://www.w3.org/2000/svg" xmlns:xlink="http://www.w3.org/1999/xlink" x="0px" y="0px"
	 viewBox="0 0 450.5 450.9" enable-background="new 0 0 450.5 450.9" xml:space="preserve">
<circle fill="none" stroke="#808080" stroke-miterlimit="10" cx="221.6" cy="223.7" r="220"/>
<g>
	<circle fill="none" stroke="#808080" stroke-miterlimit="10" stroke-dasharray="5.0013,5.0013" cx="221.6" cy="223.7" r="127.4"/>
</g>
<rect x="1.6" y="3.7" fill="none" stroke="#808080" stroke-miterlimit="10" width="440" height="440"/>
<path fill="none" stroke="#DEDEDE" stroke-miterlimit="10" d="M1.6,3.7"/>
<g>
	<g>
		<path fill="none" stroke="#808080" stroke-miterlimit="10" d="M1.6,3.7c0.1,0.7,0.2,1.6,0.2,2.5"/>
		<path fill="none" stroke="#808080" stroke-miterlimit="10" stroke-dasharray="4.97,4.97" d="M2.2,11.1
			c3.9,65.3,14.7,403.7,434.5,432.2"/>
		<path fill="none" stroke="#808080" stroke-miterlimit="10" d="M439.1,443.5c0.8,0.1,1.7,0.1,2.5,0.2"/>
	</g>
</g>
<g>
	<g>
		<path fill="none" stroke="#808080" stroke-miterlimit="10" d="M1.6,443.7c0-0.6-0.1-1.5-0.1-2.5"/>
		<path fill="none" stroke="#808080" stroke-miterlimit="10" stroke-dasharray="5.0249,5.0249" d="M1.6,436.2
			C2.1,376.3,26.6,32.5,436.6,4"/>
		<path fill="none" stroke="#808080" stroke-miterlimit="10" d="M439.1,3.8c0.8-0.1,1.7-0.1,2.5-0.2"/>
	</g>
</g>
<g>
	<g>
		<path fill="none" stroke="#808080" stroke-miterlimit="10" d="M441.6,3.7c0,0.7,0,1.5,0,2.5"/>
		<path fill="none" stroke="#808080" stroke-miterlimit="10" stroke-dasharray="5.0234,5.0234" d="M441.6,11.2
			c-0.8,61.9-23.8,401.2-435,432.1"/>
		<path fill="none" stroke="#808080" stroke-miterlimit="10" d="M4.1,443.5c-0.8,0.1-1.7,0.1-2.5,0.2"/>
	</g>
</g>
<g>
	<g>
		<path fill="none" stroke="#808080" stroke-miterlimit="10" d="M441.6,443.7c0-0.7,0-1.5,0-2.5"/>
		<path fill="none" stroke="#808080" stroke-miterlimit="10" stroke-dasharray="5.0215,5.0215" d="M441.6,436.2
			C440.3,375.1,417.2,34.3,6.7,4"/>
		<path fill="none" stroke="#808080" stroke-miterlimit="10" d="M4.1,3.8C3.3,3.8,2.5,3.7,1.6,3.7"/>
	</g>
</g>
<rect x="21.5" y="132" fill="none" stroke="#808080" stroke-miterlimit="10" width="400.3" height="183.1"/>
<circle fill="#808080" cx="21.5" cy="132" r="4.6"/>
<circle fill="none" stroke="#808080" stroke-miterlimit="10" cx="212.3" cy="96.3" r="2.6"/>
<circle fill="none" stroke="#808080" stroke-miterlimit="10" cx="191.3" cy="99.3" r="2.6"/>
<circle fill="none" stroke="#808080" stroke-miterlimit="10" cx="173.4" cy="105.3" r="2.6"/>
<circle fill="none" stroke="#808080" stroke-miterlimit="10" cx="159" cy="112.4" r="2.6"/>
<circle fill="none" stroke="#808080" stroke-miterlimit="10" cx="147.2" cy="120.1" r="2.6"/>
<circle fill="none" stroke="#969696" stroke-miterlimit="10" cx="233.5" cy="97.3" r="2.6"/>
<circle fill="none" stroke="#808080" stroke-miterlimit="10" cx="251.8" cy="99.9" r="2.6"/>
<circle fill="none" stroke="#808080" stroke-miterlimit="10" cx="268.5" cy="105.3" r="2.6"/>
<circle fill="none" stroke="#808080" stroke-miterlimit="10" cx="283.3" cy="112.4" r="2.6"/>
<circle fill="none" stroke="#808080" stroke-miterlimit="10" cx="296.7" cy="121.3" r="2.6"/>
<line fill="none" stroke="#808080" stroke-miterlimit="10" x1="1.6" y1="3.7" x2="441.6" y2="443.7"/>
<line fill="none" stroke="#808080" stroke-miterlimit="10" x1="1.6" y1="443.7" x2="441.6" y2="3.7"/>
<line fill="none" stroke="#808080" stroke-miterlimit="10" x1="222.3" y1="443.1" x2="222.3" y2="4"/>
<line fill="none" stroke="#969696" stroke-miterlimit="10" x1="1.6" y1="223.2" x2="442.6" y2="223.2"/>
<rect x="132.3" y="132" fill="none" stroke="#808080" stroke-width="1.5" stroke-miterlimit="10" width="180.7" height="183.1"/>
<line fill="none" stroke="#2EAAE1" stroke-miterlimit="10" x1="222.6" y1="223.5" x2="421.8" y2="313.9"/>
<text transform="matrix(1 0 0 1 -15.6668 7)" fill="#808080" font-family="'TimesNewRomanPSMT'" font-size="14">D</text>
<text transform="matrix(1 0 0 1 446.9998 7)" fill="#808080" font-family="'TimesNewRomanPSMT'" font-size="14">C</text>
<text transform="matrix(1 0 0 1 152.9968 96.6714)" fill="#808080" font-family="'TimesNewRomanPSMT'" font-size="14">Y</text>
<text transform="matrix(1 0 0 1 56.4967 407.5421)" fill="#808080" font-family="'TimesNewRomanPSMT'" font-size="10.2118">Aubrey</text>
<text transform="matrix(1 0 0 1 299.2914 168.6667)" fill="#969696" font-family="'TimesNewRomanPSMT'" font-size="14">Z</text>
<text transform="matrix(1 0 0 1 213.6671 328)" fill="#969696" font-family="'TimesNewRomanPSMT'" font-size="14">f</text>
<text transform="matrix(1 0 0 1 109.3337 129.3333)" fill="#808080" font-family="'TimesNewRomanPSMT'" font-size="14">m</text>
<text transform="matrix(1 0 0 1 227.0004 129.3333)" fill="#969696" font-family="'TimesNewRomanPSMT'" font-size="14">s</text>
<text transform="matrix(1 0 0 1 323.6671 267.9998)" fill="#808080" font-family="'TimesNewRomanPSMT'" font-size="14">1</text>
<text transform="matrix(1 0 0 1 208.167 202.2498)" fill="#808080" font-family="'TimesNewRomanPSMT'" font-size="9">45</text>
<text transform="matrix(0.583 0 0 0.583 217.167 199.2527)" fill="#808080" font-family="'TimesNewRomanPSMT'" font-size="9">o</text>
<text transform="matrix(1 0 0 1 345.5005 345.3858)" fill="#969696" font-family="'TimesNewRomanPSMT'" font-size="10.0324">√2</text>
<text transform="matrix(1 0 0 1 179.6668 178.719)" fill="#808080" font-family="'TimesNewRomanPSMT'" font-size="10.0324">2-√2</text>
<text transform="matrix(1 0 0 1 446.9998 451)" fill="#969696" font-family="'TimesNewRomanPSMT'" font-size="14">B</text>
<text transform="matrix(1 0 0 1 -15.667 451)" fill="#969696" font-family="'TimesNewRomanPSMT'" font-size="14">A</text>
<text transform="matrix(1 0 0 1 225.6259 206.5)" fill="#808080" font-family="'TimesNewRomanPS-BoldMT'" font-size="14">K</text>
<g>
	<g>
		<path fill="none" stroke="#808080" stroke-miterlimit="10" d="M196.1,196.6c2.7-2.7,12.4-11.3,26.2-8.6"/>
		<g>
			<polygon fill="#808080" points="201.4,197.3 201.4,196.3 196.4,196.4 196.7,191.5 195.7,191.4 195.4,197.4 			"/>
		</g>
	</g>
</g>
<circle fill="#2EAAE1" cx="222.6" cy="223.7" r="3"/>
<circle fill="#2EAAE1" cx="421.8" cy="315.1" r="4.6"/>
<circle fill="none" stroke="#2EAAE1" stroke-miterlimit="10" cx="222.6" cy="223.7" r="90.4"/>
<circle fill="#808080" cx="132.3" cy="132" r="4.6"/>
</svg>
