<?xml version="1.0" encoding="utf-8"?>
<!-- Generator: Adobe Illustrator 20.0.0, SVG Export Plug-In . SVG Version: 6.00 Build 0)  -->
<svg version="1.1" id="Layer_1" xmlns="http://www.w3.org/2000/svg" xmlns:xlink="http://www.w3.org/1999/xlink" x="0px" y="0px"
	 width="544px" height="544px" viewBox="0 0 544 544" style="enable-background:new 0 0 544 544;" xml:space="preserve">
<g style="opacity:0.52;">
	<line style="fill:none;stroke:#9D9D9D;stroke-miterlimit:10;" x1="119.67" y1="124" x2="417.33" y2="124"/>
	<line style="fill:none;stroke:#9D9D9D;stroke-miterlimit:10;" x1="417.33" y1="124" x2="479.33" y2="350"/>
	<line style="fill:none;stroke:#9D9D9D;stroke-miterlimit:10;" x1="479.33" y1="350" x2="268.5" y2="466.5"/>
	<line style="fill:none;stroke:#9D9D9D;stroke-miterlimit:10;" x1="268.5" y1="466.5" x2="58" y2="350"/>
	<line style="fill:none;stroke:#9D9D9D;stroke-miterlimit:10;" x1="58" y1="350" x2="119.67" y2="124"/>
	<line style="fill:none;stroke:#9D9D9D;stroke-miterlimit:10;" x1="268.5" y1="84.5" x2="479.33" y2="192.67"/>
	<line style="fill:none;stroke:#9D9D9D;stroke-miterlimit:10;" x1="479.33" y1="192.67" x2="417.33" y2="418.67"/>
	<line style="fill:none;stroke:#9D9D9D;stroke-miterlimit:10;" x1="417.33" y1="418.67" x2="119.67" y2="418.67"/>
	<line style="fill:none;stroke:#9D9D9D;stroke-miterlimit:10;" x1="119.67" y1="418.67" x2="58" y2="192.67"/>
	<line style="fill:none;stroke:#9D9D9D;stroke-miterlimit:10;" x1="58" y1="192.67" x2="268.5" y2="84.5"/>
	<line style="fill:none;stroke:#9D9D9D;stroke-miterlimit:10;" x1="268.5" y1="84.5" x2="268.5" y2="466.5"/>
	<line style="fill:none;stroke:#9D9D9D;stroke-miterlimit:10;" x1="58" y1="350" x2="479.33" y2="350"/>
	<line style="fill:none;stroke:#9D9D9D;stroke-miterlimit:10;" x1="58" y1="192.67" x2="479.33" y2="192.67"/>
	<line style="fill:none;stroke:#9D9D9D;stroke-miterlimit:10;" x1="119.67" y1="124" x2="479.33" y2="350"/>
	<line style="fill:none;stroke:#9D9D9D;stroke-miterlimit:10;" x1="58" y1="350" x2="417.33" y2="124"/>
	<line style="fill:none;stroke:#9D9D9D;stroke-miterlimit:10;" x1="119.67" y1="124" x2="417.33" y2="418.67"/>
	<line style="fill:none;stroke:#9D9D9D;stroke-miterlimit:10;" x1="119.67" y1="418.67" x2="417.33" y2="124"/>
	<line style="fill:none;stroke:#9D9D9D;stroke-miterlimit:10;" x1="268.5" y1="84.5" x2="479.33" y2="350"/>
	<line style="fill:none;stroke:#9D9D9D;stroke-miterlimit:10;" x1="479.33" y1="192.67" x2="268.5" y2="466.5"/>
	<line style="fill:none;stroke:#9D9D9D;stroke-miterlimit:10;" x1="58" y1="192.67" x2="417.33" y2="418.67"/>
	<line style="fill:none;stroke:#9D9D9D;stroke-miterlimit:10;" x1="58" y1="350" x2="417.33" y2="418.67"/>
	<line style="fill:none;stroke:#9D9D9D;stroke-miterlimit:10;" x1="119.67" y1="124" x2="479.33" y2="192.67"/>
	<line style="fill:none;stroke:#9D9D9D;stroke-miterlimit:10;" x1="479.33" y1="192.67" x2="58" y2="350"/>
	<line style="fill:none;stroke:#9D9D9D;stroke-miterlimit:10;" x1="119.67" y1="124" x2="268.5" y2="466.5"/>
	<line style="fill:none;stroke:#9D9D9D;stroke-miterlimit:10;" x1="268.5" y1="84.5" x2="417.33" y2="418.67"/>
	<line style="fill:none;stroke:#9D9D9D;stroke-miterlimit:10;" x1="58" y1="192.67" x2="417.33" y2="124"/>
	<line style="fill:none;stroke:#9D9D9D;stroke-miterlimit:10;" x1="268.5" y1="84.5" x2="119.67" y2="418.67"/>
	<line style="fill:none;stroke:#9D9D9D;stroke-miterlimit:10;" x1="58" y1="350" x2="268.5" y2="84.5"/>
	<line style="fill:none;stroke:#9D9D9D;stroke-miterlimit:10;" x1="479.33" y1="192.67" x2="119.67" y2="418.67"/>
	<line style="fill:none;stroke:#9D9D9D;stroke-miterlimit:10;" x1="119.67" y1="418.67" x2="479.33" y2="350"/>
	<line style="fill:none;stroke:#9D9D9D;stroke-miterlimit:10;" x1="479.33" y1="350" x2="58" y2="192.67"/>
	<line style="fill:none;stroke:#9D9D9D;stroke-miterlimit:10;" x1="58" y1="192.67" x2="268.5" y2="466.5"/>
	<line style="fill:none;stroke:#9D9D9D;stroke-miterlimit:10;" x1="268.5" y1="466.5" x2="417.33" y2="124"/>
</g>
<line style="fill:none;stroke:#9D9D9D;stroke-width:2;stroke-linecap:round;stroke-linejoin:round;stroke-miterlimit:10;" x1="268" y1="272.49" x2="124.5" y2="201.5"/>
<line style="fill:none;stroke:#9D9D9D;stroke-width:2;stroke-linecap:round;stroke-linejoin:round;stroke-miterlimit:10;" x1="124.5" y1="201.5" x2="124.5" y2="365"/>
<line style="fill:none;stroke:#9D9D9D;stroke-width:2;stroke-linecap:round;stroke-linejoin:round;stroke-miterlimit:10;" x1="124.5" y1="365" x2="268.67" y2="434.5"/>
<line style="fill:none;stroke:#9D9D9D;stroke-width:2;stroke-linecap:round;stroke-linejoin:round;stroke-miterlimit:10;" x1="268.67" y1="434.5" x2="268.67" y2="272.49"/>
<line style="fill:none;stroke:#9D9D9D;stroke-width:2;stroke-linecap:round;stroke-linejoin:round;stroke-miterlimit:10;" x1="268" y1="326.33" x2="124.5" y2="255.67"/>
<line style="fill:none;stroke:#9D9D9D;stroke-width:2;stroke-linecap:round;stroke-linejoin:round;stroke-miterlimit:10;" x1="124.5" y1="309.67" x2="268.67" y2="381"/>
<line style="fill:none;stroke:#9D9D9D;stroke-width:2;stroke-linecap:round;stroke-linejoin:round;stroke-miterlimit:10;" x1="172.53" y1="225.26" x2="172.53" y2="388.31"/>
<line style="fill:none;stroke:#9D9D9D;stroke-width:2;stroke-linecap:round;stroke-linejoin:round;stroke-miterlimit:10;" x1="221.04" y1="249.26" x2="221.04" y2="412.32"/>
<line style="fill:none;stroke:#9D9D9D;stroke-width:2;stroke-linecap:round;stroke-linejoin:round;stroke-miterlimit:10;" x1="124.5" y1="201.5" x2="268.67" y2="131"/>
<line style="fill:none;stroke:#9D9D9D;stroke-width:2;stroke-linecap:round;stroke-linejoin:round;stroke-miterlimit:10;" x1="172.53" y1="178.01" x2="314.5" y2="249.26"/>
<line style="fill:none;stroke:#9D9D9D;stroke-width:2;stroke-linecap:round;stroke-linejoin:round;stroke-miterlimit:10;" x1="221.04" y1="154.29" x2="363.67" y2="225.26"/>
<line style="fill:none;stroke:#9D9D9D;stroke-width:2;stroke-linecap:round;stroke-linejoin:round;stroke-miterlimit:10;" x1="269.17" y1="272.49" x2="412.67" y2="201.5"/>
<line style="fill:none;stroke:#9D9D9D;stroke-width:2;stroke-linecap:round;stroke-linejoin:round;stroke-miterlimit:10;" x1="412.67" y1="201.5" x2="412.67" y2="365"/>
<line style="fill:none;stroke:#9D9D9D;stroke-width:2;stroke-linecap:round;stroke-linejoin:round;stroke-miterlimit:10;" x1="412.67" y1="365" x2="268.5" y2="434.5"/>
<line style="fill:none;stroke:#9D9D9D;stroke-width:2;stroke-linecap:round;stroke-linejoin:round;stroke-miterlimit:10;" x1="269.17" y1="326.33" x2="412.67" y2="255.67"/>
<line style="fill:none;stroke:#9D9D9D;stroke-width:2;stroke-linecap:round;stroke-linejoin:round;stroke-miterlimit:10;" x1="412.67" y1="309.67" x2="268.5" y2="381"/>
<line style="fill:none;stroke:#9D9D9D;stroke-width:2;stroke-linecap:round;stroke-linejoin:round;stroke-miterlimit:10;" x1="364.63" y1="225.26" x2="364.63" y2="388.31"/>
<line style="fill:none;stroke:#9D9D9D;stroke-width:2;stroke-linecap:round;stroke-linejoin:round;stroke-miterlimit:10;" x1="316.13" y1="249.26" x2="316.13" y2="412.32"/>
<line style="fill:none;stroke:#9D9D9D;stroke-width:2;stroke-linecap:round;stroke-linejoin:round;stroke-miterlimit:10;" x1="412.67" y1="201.5" x2="268.5" y2="131"/>
<line style="fill:none;stroke:#9D9D9D;stroke-width:2;stroke-linecap:round;stroke-linejoin:round;stroke-miterlimit:10;" x1="364.63" y1="178.01" x2="222.67" y2="249.26"/>
<line style="fill:none;stroke:#9D9D9D;stroke-width:2;stroke-linecap:round;stroke-linejoin:round;stroke-miterlimit:10;" x1="316.13" y1="154.29" x2="173.5" y2="225.26"/>
<circle style="fill:#9D9D9C;stroke:#9D9D9D;stroke-width:2;stroke-miterlimit:10;" cx="316.13" cy="154.29" r="2.5"/>
<circle style="fill:#9D9D9C;stroke:#9D9D9D;stroke-width:2;stroke-miterlimit:10;" cx="364.63" cy="178.01" r="2.5"/>
<circle style="fill:#9D9D9C;stroke:#9D9D9D;stroke-width:2;stroke-miterlimit:10;" cx="412.67" cy="201.5" r="2.5"/>
<circle style="fill:#9D9D9C;stroke:#9D9D9D;stroke-width:2;stroke-miterlimit:10;" cx="412.67" cy="256.44" r="2.5"/>
<circle style="fill:#9D9D9C;stroke:#9D9D9D;stroke-width:2;stroke-miterlimit:10;" cx="412.67" cy="310" r="2.5"/>
<circle style="fill:#9D9D9C;stroke:#9D9D9D;stroke-width:2;stroke-miterlimit:10;" cx="412.67" cy="365.27" r="2.5"/>
<circle style="fill:#9D9D9C;stroke:#9D9D9D;stroke-width:2;stroke-miterlimit:10;" cx="364.63" cy="388.31" r="2.5"/>
<circle style="fill:#9D9D9C;stroke:#9D9D9D;stroke-width:2;stroke-miterlimit:10;" cx="316.13" cy="411.5" r="2.5"/>
<circle style="fill:#9D9D9C;stroke:#9D9D9D;stroke-width:2;stroke-miterlimit:10;" cx="268.5" cy="434.5" r="2.5"/>
<circle style="fill:#9D9D9C;stroke:#9D9D9D;stroke-width:2;stroke-miterlimit:10;" cx="221.04" cy="411.5" r="2.5"/>
<circle style="fill:#9D9D9C;stroke:#9D9D9D;stroke-width:2;stroke-miterlimit:10;" cx="172.53" cy="388.31" r="2.5"/>
<circle style="fill:#9D9D9C;stroke:#9D9D9D;stroke-width:2;stroke-miterlimit:10;" cx="124.5" cy="365" r="2.5"/>
<circle style="fill:#9D9D9C;stroke:#9D9D9D;stroke-width:2;stroke-miterlimit:10;" cx="124.5" cy="309.67" r="2.5"/>
<circle style="fill:#9D9D9C;stroke:#9D9D9D;stroke-width:2;stroke-miterlimit:10;" cx="124.5" cy="255.67" r="2.5"/>
<circle style="fill:#9D9D9C;stroke:#9D9D9D;stroke-width:2;stroke-miterlimit:10;" cx="124.83" cy="201.5" r="2.5"/>
<circle style="fill:#9D9D9C;stroke:#9D9D9D;stroke-width:2;stroke-miterlimit:10;" cx="172.92" cy="178.01" r="2.5"/>
<circle style="fill:#9D9D9C;stroke:#9D9D9D;stroke-width:2;stroke-miterlimit:10;" cx="221.5" cy="154.29" r="2.5"/>
<circle style="fill:#9D9D9C;stroke:#9D9D9C;stroke-width:2;stroke-miterlimit:10;" cx="268.5" cy="131" r="2.5"/>
<circle style="fill:#9D9D9C;stroke:#9D9D9D;stroke-width:2;stroke-miterlimit:10;" cx="268.5" cy="178.01" r="2.5"/>
<circle style="fill:#9D9D9C;stroke:#9D9D9D;stroke-width:2;stroke-miterlimit:10;" cx="220.17" cy="201.86" r="2.5"/>
<circle style="fill:#9D9D9C;stroke:#9D9D9D;stroke-width:2;stroke-miterlimit:10;" cx="268.5" cy="226.19" r="2.5"/>
<circle style="fill:#9D9D9C;stroke:#9D9D9D;stroke-width:2;stroke-miterlimit:10;" cx="221.75" cy="249.26" r="2.5"/>
<circle style="fill:#9D9D9C;stroke:#9D9D9D;stroke-width:2;stroke-miterlimit:10;" cx="268.5" cy="272.49" r="2.5"/>
<circle style="fill:#9D9D9C;stroke:#9D9D9D;stroke-width:2;stroke-miterlimit:10;" cx="268.5" cy="326.27" r="2.5"/>
<circle style="fill:#9D9D9C;stroke:#9D9D9D;stroke-width:2;stroke-miterlimit:10;" cx="316.13" cy="303.36" r="2.5"/>
<circle style="fill:#9D9D9C;stroke:#9D9D9D;stroke-width:2;stroke-miterlimit:10;" cx="221.04" cy="303.36" r="2.5"/>
<circle style="fill:#9D9D9C;stroke:#9D9D9D;stroke-width:2;stroke-miterlimit:10;" cx="221.04" cy="357.52" r="2.5"/>
<circle style="fill:#9D9D9C;stroke:#9D9D9D;stroke-width:2;stroke-miterlimit:10;" cx="316.13" cy="357.52" r="2.5"/>
<circle style="fill:#9D9D9C;stroke:#9D9D9D;stroke-width:2;stroke-miterlimit:10;" cx="268.67" cy="381" r="2.5"/>
<circle style="fill:#9D9D9C;stroke:#9D9D9D;stroke-width:2;stroke-miterlimit:10;" cx="364.63" cy="333.29" r="2.5"/>
<circle style="fill:#9D9D9C;stroke:#9D9D9D;stroke-width:2;stroke-miterlimit:10;" cx="364.63" cy="279.52" r="2.5"/>
<circle style="fill:#9D9D9C;stroke:#9D9D9D;stroke-width:2;stroke-miterlimit:10;" cx="364.63" cy="225.26" r="2.5"/>
<circle style="fill:#9D9D9C;stroke:#9D9D9D;stroke-width:2;stroke-miterlimit:10;" cx="315.75" cy="249.69" r="2.5"/>
<circle style="fill:#9D9D9C;stroke:#9D9D9D;stroke-width:2;stroke-miterlimit:10;" cx="316.75" cy="202.27" r="2.5"/>
<circle style="fill:#9D9D9C;stroke:#9D9D9D;stroke-width:2;stroke-miterlimit:10;" cx="173.5" cy="225.69" r="2.5"/>
<circle style="fill:#9D9D9C;stroke:#9D9D9D;stroke-width:2;stroke-miterlimit:10;" cx="172.53" cy="279.27" r="2.5"/>
<circle style="fill:#9D9D9C;stroke:#9D9D9D;stroke-width:2;stroke-miterlimit:10;" cx="172.53" cy="333.29" r="2.5"/>
<path style="opacity:0.5;fill:#9D9D9C;stroke:#9D9D9D;stroke-miterlimit:10;" d="M366.94,287.87l45.51,22.41
	c0.07,0.04,0.15,0.05,0.22,0.05c0.18,0,0.36-0.1,0.45-0.28c0.12-0.25,0.02-0.55-0.23-0.67L367.44,287c0.12-0.32,0.19-0.66,0.19-1.03
	c0-1.48-1.08-2.71-2.5-2.95v-47.87c0.83-0.14,1.55-0.62,2-1.3l45.31,22.42c0.07,0.04,0.15,0.05,0.22,0.05c0.18,0,0.36-0.1,0.45-0.28
	c0.12-0.25,0.02-0.55-0.23-0.67l-45.36-22.44c0.06-0.24,0.1-0.48,0.1-0.73c0-1.48-1.08-2.71-2.5-2.95v-52.07
	c0-0.28-0.22-0.5-0.5-0.5s-0.5,0.22-0.5,0.5v52.07c-0.74,0.13-1.39,0.53-1.84,1.09l-43.33-21.44c0.1-0.3,0.16-0.61,0.16-0.93
	c0-1.48-1.08-2.71-2.5-2.95v-51.85c0-0.28-0.22-0.5-0.5-0.5s-0.5,0.22-0.5,0.5v51.85c-0.82,0.14-1.52,0.6-1.97,1.26l-42.15-20.86
	c0.1-0.29,0.16-0.6,0.16-0.93c0-1.48-1.08-2.71-2.5-2.95V131c0-0.28-0.22-0.5-0.5-0.5s-0.5,0.22-0.5,0.5v50.55
	c-1.42,0.24-2.5,1.47-2.5,2.95c0,0.3,0.06,0.58,0.14,0.86l-42.3,20.93c-0.45-0.66-1.16-1.12-1.97-1.26v-51.85
	c0-0.28-0.22-0.5-0.5-0.5s-0.5,0.22-0.5,0.5v51.85c-1.42,0.24-2.5,1.47-2.5,2.95c0,0.33,0.07,0.64,0.16,0.93l-43.33,21.44
	c-0.45-0.57-1.09-0.97-1.84-1.09v-52.07c0-0.28-0.22-0.5-0.5-0.5s-0.5,0.22-0.5,0.5v52.07c-1.42,0.24-2.5,1.47-2.5,2.95
	c0,0.25,0.04,0.5,0.1,0.73l-45.36,22.44c-0.25,0.12-0.35,0.42-0.23,0.67c0.09,0.18,0.26,0.28,0.45,0.28c0.07,0,0.15-0.02,0.22-0.05
	l45.31-22.42c0.45,0.68,1.17,1.16,2,1.3v48.12c-1.42,0.24-2.5,1.47-2.5,2.95c0,0.28,0.05,0.55,0.13,0.81l-45.38,22.35
	c-0.25,0.12-0.35,0.42-0.23,0.67c0.09,0.18,0.26,0.28,0.45,0.28c0.07,0,0.15-0.02,0.22-0.05l45.36-22.34
	c0.45,0.64,1.15,1.1,1.95,1.23v48.03c-0.91,0.52-1.53,1.48-1.53,2.6c0,0.28,0.05,0.55,0.13,0.81l-46.35,22.93
	c-0.25,0.12-0.35,0.42-0.23,0.67c0.09,0.18,0.26,0.28,0.45,0.28c0.07,0,0.15-0.02,0.22-0.05l46.33-22.92
	c0.54,0.77,1.44,1.28,2.45,1.28c0.85,0,1.62-0.36,2.17-0.94l41.69,20.75c-0.12,0.32-0.19,0.66-0.19,1.02c0,0.29,0.05,0.56,0.13,0.82
	l-44.99,22.58c-0.25,0.12-0.35,0.42-0.22,0.67c0.09,0.17,0.26,0.28,0.45,0.28c0.08,0,0.15-0.02,0.22-0.05l44.96-22.57
	c0.54,0.77,1.43,1.27,2.45,1.27c1.06,0,1.98-0.55,2.52-1.38l42.95,21.37c-0.08,0.27-0.14,0.55-0.14,0.85c0,0.34,0.07,0.65,0.17,0.95
	l-44.85,22.32c-0.25,0.12-0.35,0.42-0.23,0.67c0.09,0.18,0.26,0.28,0.45,0.28c0.07,0,0.15-0.02,0.22-0.05l44.88-22.33
	c0.55,0.7,1.4,1.17,2.36,1.17c0.99,0,1.86-0.49,2.41-1.22l45,22.39c0.07,0.04,0.15,0.05,0.22,0.05c0.18,0,0.36-0.1,0.45-0.28
	c0.12-0.25,0.02-0.55-0.22-0.67l-45-22.39c0.09-0.28,0.15-0.57,0.15-0.88c0-0.27-0.05-0.53-0.11-0.77l43.16-21.47
	c0.55,0.6,1.33,0.99,2.21,0.99c0.91,0,1.72-0.42,2.27-1.07l45.38,22.78c0.07,0.04,0.15,0.05,0.22,0.05c0.18,0,0.36-0.1,0.45-0.28
	c0.12-0.25,0.02-0.55-0.22-0.67l-45.31-22.74c0.13-0.33,0.21-0.69,0.21-1.07c0-0.19-0.02-0.37-0.06-0.55l42.3-21.05
	c0.5,0.95,1.49,1.61,2.64,1.61c1,0,1.88-0.49,2.42-1.24l45.39,22.45c0.07,0.04,0.15,0.05,0.22,0.05c0.18,0,0.36-0.1,0.45-0.28
	c0.12-0.25,0.02-0.55-0.23-0.67l-45.4-22.46c0.08-0.27,0.14-0.56,0.14-0.86c0-1.48-1.08-2.71-2.5-2.95v-48.36
	C365.86,288.8,366.49,288.42,366.94,287.87z M362.21,338.48l-43.67-21.6c0.13-0.33,0.21-0.69,0.21-1.07c0-1.35-0.9-2.48-2.12-2.85
	v-47.86c0.74-0.13,1.39-0.53,1.84-1.09l43.25,21.3c-0.05,0.22-0.08,0.44-0.08,0.68c0,1.48,1.08,2.71,2.5,2.95v48.36
	C363.34,337.42,362.66,337.86,362.21,338.48z M268.5,336.31c-0.97,0-1.82,0.47-2.37,1.18l-41.42-20.79
	c0.02-0.15,0.05-0.31,0.05-0.46c0-0.41-0.08-0.81-0.24-1.16l41.44-20.5c0.53,0.85,1.47,1.43,2.54,1.43c1.1,0,2.06-0.61,2.58-1.5
	l41.74,20.65c-0.05,0.21-0.07,0.42-0.07,0.64c0,0.24,0.04,0.48,0.09,0.7l-41.92,21.04C270.37,336.8,269.5,336.31,268.5,336.31z
	 M221.54,265.09c1.42-0.24,2.5-1.47,2.5-2.95c0-0.25-0.04-0.49-0.1-0.72l41.99-20.68c0.47,0.79,1.28,1.34,2.24,1.45v47.85
	c-1.5,0.17-2.67,1.43-2.67,2.97c0,0.22,0.03,0.44,0.07,0.64l-41.61,20.58c-0.55-0.61-1.33-0.99-2.21-0.99
	c-0.07,0-0.14,0.02-0.22,0.02V265.09z M315.63,265.09v47.73c-1.02,0.04-1.91,0.6-2.42,1.42l-41.76-20.66
	c0.04-0.18,0.06-0.37,0.06-0.57c0-1.42-1-2.61-2.33-2.92v-47.94c0.84-0.19,1.53-0.74,1.94-1.47l42.12,20.74
	c-0.06,0.23-0.1,0.47-0.1,0.72C313.13,263.63,314.21,264.85,315.63,265.09z M361.81,231.23c-0.11,0.31-0.18,0.64-0.18,0.98
	c0,1.48,1.08,2.71,2.5,2.95v47.87c-0.85,0.14-1.58,0.65-2.03,1.35l-43.15-21.25c0.11-0.31,0.18-0.64,0.18-0.98
	c0-1.48-1.08-2.71-2.5-2.95v-48.27c0.76-0.13,1.42-0.54,1.87-1.13L361.81,231.23z M313.24,207.2c-0.07,0.25-0.12,0.51-0.12,0.78
	c0,1.48,1.08,2.71,2.5,2.95v48.27c-0.84,0.14-1.56,0.62-2.01,1.31l-42.17-20.77c0.03-0.17,0.05-0.33,0.05-0.51
	c0-1.42-1-2.61-2.33-2.92v-48.86c0.76-0.13,1.42-0.55,1.87-1.14L313.24,207.2z M266.25,186.26c0.45,0.62,1.13,1.06,1.92,1.19v48.81
	c-1.5,0.17-2.67,1.43-2.67,2.97c0,0.2,0.02,0.39,0.06,0.58l-42.02,20.69c-0.45-0.68-1.17-1.17-2.01-1.31v-48.27
	c1.42-0.24,2.5-1.47,2.5-2.95c0-0.27-0.05-0.53-0.12-0.78L266.25,186.26z M218.67,209.8c0.45,0.59,1.11,1,1.87,1.13v48.27
	c-1.42,0.24-2.5,1.47-2.5,2.95c0,0.35,0.07,0.67,0.18,0.98l-43.29,21.32c-0.45-0.6-1.12-1.03-1.9-1.16v-48.12
	c1.42-0.24,2.5-1.47,2.5-2.95c0-0.35-0.07-0.67-0.18-0.98L218.67,209.8z M173.03,289.18c1.42-0.24,2.5-1.47,2.5-2.95
	c0-0.31-0.06-0.61-0.15-0.89L218.7,264c0.45,0.57,1.09,0.97,1.84,1.09v48.41c-1.05,0.47-1.78,1.52-1.78,2.74
	c0,0.19,0.02,0.37,0.05,0.54l-42.92,21.23c-0.55-0.73-1.41-1.21-2.39-1.21c-0.16,0-0.31,0.02-0.47,0.05V289.18z M176.23,341.04
	c0.17-0.38,0.27-0.79,0.27-1.23c0-0.32-0.06-0.61-0.15-0.9l42.82-21.18c0.52,0.9,1.48,1.52,2.59,1.52c1.14,0,2.12-0.64,2.63-1.58
	l41.28,20.72c-0.1,0.29-0.16,0.6-0.16,0.93c0,0.31,0.06,0.61,0.15,0.89l-43.11,21.63c-0.55-0.72-1.4-1.19-2.38-1.19
	c-0.93,0-1.76,0.44-2.31,1.11L176.23,341.04z M270.98,385.8c-0.54-0.79-1.45-1.31-2.48-1.31c-1,0-1.88,0.5-2.43,1.25l-43-21.39
	c0.05-0.23,0.09-0.46,0.09-0.7c0-0.32-0.07-0.63-0.16-0.93l43.09-21.63c0.55,0.73,1.42,1.22,2.4,1.22c1.01,0,1.9-0.51,2.45-1.28
	l42.88,21.52c-0.05,0.22-0.08,0.44-0.08,0.67c0,0.42,0.09,0.81,0.24,1.17L270.98,385.8z M319.34,361.74
	c-0.52-0.9-1.48-1.51-2.59-1.51c-1.07,0-2,0.56-2.53,1.4l-42.85-21.5c0.07-0.26,0.13-0.53,0.13-0.82c0-0.3-0.06-0.58-0.14-0.86
	l41.88-21.02c0.54,0.82,1.46,1.37,2.51,1.37c0.92,0,1.73-0.42,2.28-1.07l43.74,21.64c-0.08,0.27-0.14,0.56-0.14,0.86
	c0,0.15,0.02,0.29,0.04,0.43L319.34,361.74z"/>
</svg>
